EkkamaiVibe-Heavy.ufo
<glyph name="exclam" format="2">
  <advance width="275"/>
  <unicode hex="0021"/>
  <outline>
    <contour>
      <point x="71" y="1" type="line"/>
      <point x="71" y="121" type="line"/>
      <point x="205" y="121" type="line"/>
      <point x="205" y="1" type="line"/>
    </contour>
    <contour>
      <point x="80" y="131" type="line"/>
      <point x="80" y="783" type="line"/>
      <point x="194" y="783" type="line"/>
      <point x="194" y="131" type="line"/>
    </contour>
  </outline>
</glyph>
<glyph name="quotedbl" format="2">
  <advance width="321"/>
  <unicode hex="0022"/>
  <outline>
    <contour>
      <point x="31" y="507" type="line"/>
      <point x="31" y="682" type="line"/>
      <point x="140" y="682" type="line"/>
      <point x="140" y="507" type="line"/>
    </contour>
    <contour>
      <point x="152" y="507" type="line"/>
      <point x="152" y="682" type="line"/>
      <point x="261" y="682" type="line"/>
      <point x="261" y="507" type="line"/>
    </contour>
  </outline>
</glyph>
<glyph name="numbersign" format="2">
  <advance width="783"/>
  <unicode hex="0023"/>
  <outline>
    <contour>
      <point x="288" y="298" type="line"/>
      <point x="451" y="298" type="line"/>
      <point x="503" y="450" type="line"/>
      <point x="343" y="450" type="line"/>
    </contour>
    <contour>
      <point x="64" y="1" type="line"/>
      <point x="133" y="196" type="line"/>
      <point x="23" y="196" type="line"/>
      <point x="60" y="298" type="line"/>
      <point x="170" y="298" type="line"/>
      <point x="223" y="450" type="line"/>
      <point x="113" y="450" type="line"/>
      <point x="150" y="552" type="line"/>
      <point x="260" y="552" type="line"/>
      <point x="315" y="705" type="line"/>
      <point x="433" y="705" type="line"/>
      <point x="379" y="552" type="line"/>
      <point x="540" y="552" type="line"/>
      <point x="595" y="704" type="line"/>
      <point x="713" y="704" type="line"/>
      <point x="660" y="552" type="line"/>
      <point x="776" y="552" type="line"/>
      <point x="738" y="450" type="line"/>
      <point x="624" y="450" type="line"/>
      <point x="569" y="298" type="line"/>
      <point x="684" y="298" type="line"/>
      <point x="650" y="196" type="line"/>
      <point x="532" y="196" type="line"/>
      <point x="463" y="1" type="line"/>
      <point x="345" y="1" type="line"/>
      <point x="414" y="196" type="line"/>
      <point x="253" y="196" type="line"/>
      <point x="182" y="1" type="line"/>
    </contour>
  </outline>
</glyph>
<glyph name="dollar" format="2">
  <advance width="678"/>
  <unicode hex="0024"/>
  <outline>
    <contour>
      <point x="43" y="110" type="qcurve"/>
      <point x="121" y="186" type="line"/>
      <point x="153" y="157" type="line" smooth="yes"/>
      <point x="165" y="147"/>
      <point x="203" y="132"/>
      <point x="246" y="123"/>
      <point x="289" y="119"/>
      <point x="304" y="119" type="qcurve" smooth="yes"/>
      <point x="339" y="119"/>
      <point x="414" y="127"/>
      <point x="477" y="155"/>
      <point x="517" y="208"/>
      <point x="517" y="253" type="qcurve" smooth="yes"/>
      <point x="517" y="280"/>
      <point x="494" y="327"/>
      <point x="466" y="335" type="qcurve" smooth="yes"/>
      <point x="434" y="345"/>
      <point x="350" y="360"/>
      <point x="263" y="380"/>
      <point x="179" y="408"/>
      <point x="113" y="453"/>
      <point x="73" y="518"/>
      <point x="73" y="565" type="qcurve" smooth="yes"/>
      <point x="73" y="610"/>
      <point x="109" y="677"/>
      <point x="169" y="725"/>
      <point x="245" y="753"/>
      <point x="284" y="759" type="qcurve"/>
      <point x="284" y="834" type="line"/>
      <point x="400" y="834" type="line"/>
      <point x="400" y="762" type="line"/>
      <point x="422" y="761"/>
      <point x="470" y="755"/>
      <point x="517" y="743"/>
      <point x="561" y="725"/>
      <point x="579" y="711" type="qcurve" smooth="yes"/>
      <point x="588" y="704"/>
      <point x="606" y="690"/>
      <point x="615" y="683" type="qcurve"/>
      <point x="535" y="603" type="line"/>
      <point x="529" y="611"/>
      <point x="516" y="629"/>
      <point x="508" y="635" type="qcurve" smooth="yes"/>
      <point x="496" y="644"/>
      <point x="453" y="655"/>
      <point x="404" y="661"/>
      <point x="357" y="663"/>
      <point x="342" y="663" type="qcurve" smooth="yes"/>
      <point x="318" y="663"/>
      <point x="264" y="654"/>
      <point x="217" y="632"/>
      <point x="186" y="593"/>
      <point x="186" y="563" type="qcurve" smooth="yes"/>
      <point x="186" y="539"/>
      <point x="226" y="505"/>
      <point x="289" y="480"/>
      <point x="367" y="462"/>
      <point x="443" y="447"/>
      <point x="509" y="432"/>
      <point x="528" y="423" type="qcurve" smooth="yes"/>
      <point x="552" y="411"/>
      <point x="590" y="375"/>
      <point x="617" y="330"/>
      <point x="631" y="278"/>
      <point x="631" y="252" type="qcurve" smooth="yes"/>
      <point x="631" y="201"/>
      <point x="594" y="121"/>
      <point x="531" y="64"/>
      <point x="447" y="29"/>
      <point x="400" y="23" type="qcurve"/>
      <point x="400" y="-58" type="line"/>
      <point x="284" y="-58" type="line"/>
      <point x="284" y="20" type="line"/>
      <point x="257" y="21"/>
      <point x="202" y="27"/>
      <point x="148" y="40"/>
      <point x="98" y="62"/>
      <point x="77" y="79" type="qcurve" smooth="yes"/>
      <point x="68" y="87"/>
      <point x="52" y="102"/>
    </contour>
  </outline>
</glyph>
<glyph name="percent" format="2">
  <advance width="401"/>
  <unicode hex="0025"/>
  <outline>
    <contour>
      <point x="24" y="94" type="line"/>
      <point x="154" y="372" type="line"/>
      <point x="143" y="367"/>
      <point x="121" y="363"/>
      <point x="110" y="363" type="qcurve" smooth="yes"/>
      <point x="91" y="363"/>
      <point x="55" y="377"/>
      <point x="27" y="402"/>
      <point x="11" y="437"/>
      <point x="11" y="457" type="qcurve" smooth="yes"/>
      <point x="11" y="477"/>
      <point x="27" y="511"/>
      <point x="55" y="536"/>
      <point x="91" y="550"/>
      <point x="110" y="550" type="qcurve" smooth="yes"/>
      <point x="142" y="550"/>
      <point x="196" y="517"/>
      <point x="207" y="485" type="qcurve"/>
      <point x="279" y="638" type="line"/>
      <point x="376" y="595" type="line"/>
      <point x="247" y="317" type="line"/>
      <point x="257" y="322"/>
      <point x="278" y="325"/>
      <point x="289" y="325" type="qcurve" smooth="yes"/>
      <point x="309" y="325"/>
      <point x="345" y="311"/>
      <point x="373" y="287"/>
      <point x="390" y="253"/>
      <point x="390" y="232" type="qcurve" smooth="yes"/>
      <point x="390" y="211"/>
      <point x="373" y="177"/>
      <point x="345" y="153"/>
      <point x="309" y="140"/>
      <point x="289" y="140" type="qcurve" smooth="yes"/>
      <point x="257" y="140"/>
      <point x="205" y="174"/>
      <point x="194" y="205" type="qcurve"/>
      <point x="122" y="53" type="line"/>
    </contour>
  </outline>
</glyph>
<glyph name="ampersand" format="2">
  <advance width="771"/>
  <unicode hex="0026"/>
  <outline>
    <contour>
      <point x="203" y="201" type="qcurve" smooth="yes"/>
      <point x="203" y="170"/>
      <point x="228" y="129"/>
      <point x="269" y="105"/>
      <point x="320" y="95"/>
      <point x="346" y="95" type="qcurve" smooth="yes"/>
      <point x="382" y="95"/>
      <point x="457" y="115"/>
      <point x="486" y="137" type="qcurve"/>
      <point x="299" y="352" type="line"/>
      <point x="281" y="340"/>
      <point x="247" y="307"/>
      <point x="220" y="268"/>
      <point x="203" y="224"/>
    </contour>
    <contour>
      <point x="318" y="495" type="qcurve"/>
      <point x="332" y="503"/>
      <point x="366" y="526"/>
      <point x="396" y="554"/>
      <point x="417" y="586"/>
      <point x="417" y="604" type="qcurve" smooth="yes"/>
      <point x="417" y="638"/>
      <point x="370" y="689"/>
      <point x="335" y="689" type="qcurve" smooth="yes"/>
      <point x="317" y="689"/>
      <point x="286" y="675"/>
      <point x="264" y="651"/>
      <point x="251" y="619"/>
      <point x="251" y="601" type="qcurve" smooth="yes"/>
      <point x="251" y="585"/>
      <point x="265" y="557"/>
      <point x="285" y="530"/>
      <point x="309" y="506"/>
    </contour>
    <contour>
      <point x="88" y="203" type="qcurve" smooth="yes"/>
      <point x="88" y="239"/>
      <point x="111" y="304"/>
      <point x="149" y="362"/>
      <point x="200" y="412"/>
      <point x="227" y="432" type="qcurve"/>
      <point x="209" y="453"/>
      <point x="177" y="489"/>
      <point x="151" y="528"/>
      <point x="136" y="573"/>
      <point x="136" y="603" type="qcurve" smooth="yes"/>
      <point x="136" y="644"/>
      <point x="167" y="713"/>
      <point x="221" y="762"/>
      <point x="292" y="790"/>
      <point x="332" y="790" type="qcurve" smooth="yes"/>
      <point x="372" y="790"/>
      <point x="444" y="763"/>
      <point x="499" y="714"/>
      <point x="532" y="645"/>
      <point x="532" y="604" type="qcurve" smooth="yes"/>
      <point x="532" y="571"/>
      <point x="507" y="515"/>
      <point x="466" y="469"/>
      <point x="415" y="431"/>
      <point x="389" y="415" type="qcurve"/>
      <point x="540" y="242" type="line"/>
      <point x="542" y="261"/>
      <point x="544" y="298"/>
      <point x="544" y="317" type="qcurve"/>
      <point x="658" y="317" type="line"/>
      <point x="658" y="293" type="line" smooth="yes"/>
      <point x="658" y="255"/>
      <point x="644" y="179"/>
      <point x="626" y="144" type="qcurve"/>
      <point x="738" y="20" type="line"/>
      <point x="591" y="19" type="line"/>
      <point x="558" y="57" type="line"/>
      <point x="513" y="24"/>
      <point x="406" y="-6"/>
      <point x="351" y="-6" type="qcurve" smooth="yes"/>
      <point x="303" y="-6"/>
      <point x="208" y="18"/>
      <point x="134" y="69"/>
      <point x="88" y="148"/>
    </contour>
  </outline>
</glyph>
<glyph name="quotesingle" format="2">
  <advance width="230"/>
  <unicode hex="0027"/>
  <outline>
    <contour>
      <point x="60" y="507" type="line"/>
      <point x="60" y="682" type="line"/>
      <point x="169" y="682" type="line"/>
      <point x="169" y="507" type="line"/>
    </contour>
  </outline>
</glyph>
<glyph name="parenleft" format="2">
  <advance width="513"/>
  <unicode hex="0028"/>
  <outline>
    <contour>
      <point x="117" y="352" type="qcurve" smooth="yes"/>
      <point x="117" y="410"/>
      <point x="139" y="540"/>
      <point x="184" y="664"/>
      <point x="253" y="774"/>
      <point x="299" y="812" type="qcurve" smooth="yes"/>
      <point x="314" y="824"/>
      <point x="346" y="844"/>
      <point x="363" y="854" type="qcurve"/>
      <point x="423" y="766" type="line"/>
      <point x="372" y="740"/>
      <point x="300" y="646"/>
      <point x="254" y="532"/>
      <point x="232" y="411"/>
      <point x="232" y="358" type="qcurve" smooth="yes"/>
      <point x="232" y="260"/>
      <point x="285" y="76"/>
      <point x="348" y="-1" type="qcurve" smooth="yes"/>
      <point x="365" y="-21"/>
      <point x="399" y="-50"/>
      <point x="423" y="-61" type="qcurve"/>
      <point x="363" y="-149" type="line"/>
      <point x="298" y="-113"/>
      <point x="205" y="-1"/>
      <point x="145" y="134"/>
      <point x="117" y="281"/>
    </contour>
  </outline>
</glyph>
<glyph name="parenright" format="2">
  <advance width="564"/>
  <unicode hex="0029"/>
  <outline>
    <contour>
      <point x="117" y="-60" type="line"/>
      <point x="146" y="-48"/>
      <point x="185" y="-13"/>
      <point x="203" y="12" type="qcurve" smooth="yes"/>
      <point x="260" y="88"/>
      <point x="310" y="255"/>
      <point x="310" y="349" type="qcurve" smooth="yes"/>
      <point x="310" y="448"/>
      <point x="255" y="627"/>
      <point x="194" y="706" type="qcurve" smooth="yes"/>
      <point x="185" y="718"/>
      <point x="169" y="736"/>
      <point x="152" y="749"/>
      <point x="131" y="760"/>
      <point x="117" y="766" type="qcurve"/>
      <point x="179" y="853" type="line"/>
      <point x="242" y="821"/>
      <point x="334" y="709"/>
      <point x="394" y="573"/>
      <point x="423" y="426"/>
      <point x="423" y="360" type="qcurve" smooth="yes"/>
      <point x="423" y="224"/>
      <point x="339" y="-7"/>
      <point x="243" y="-105" type="qcurve" smooth="yes"/>
      <point x="240" y="-109"/>
      <point x="232" y="-115" type="qcurve" smooth="yes"/>
      <point x="204" y="-134"/>
      <point x="179" y="-150" type="qcurve"/>
    </contour>
  </outline>
</glyph>
<glyph name="asterisk" format="2">
  <advance width="513"/>
  <unicode hex="002A"/>
  <outline>
    <contour>
      <point x="92" y="410" type="line"/>
      <point x="165" y="508" type="line"/>
      <point x="46" y="545" type="line"/>
      <point x="76" y="644" type="line"/>
      <point x="198" y="607" type="line"/>
      <point x="198" y="728" type="line"/>
      <point x="312" y="728" type="line"/>
      <point x="312" y="607" type="line"/>
      <point x="433" y="644" type="line"/>
      <point x="464" y="545" type="line"/>
      <point x="344" y="509" type="line"/>
      <point x="418" y="410" type="line"/>
      <point x="329" y="344" type="line"/>
      <point x="256" y="444" type="line"/>
      <point x="179" y="344" type="line"/>
    </contour>
  </outline>
</glyph>
<glyph name="plus" format="2">
  <advance width="487"/>
  <unicode hex="002B"/>
  <outline>
    <contour>
      <point x="60" y="280" type="line"/>
      <point x="60" y="376" type="line"/>
      <point x="188" y="376" type="line"/>
      <point x="188" y="500" type="line"/>
      <point x="298" y="500" type="line"/>
      <point x="298" y="376" type="line"/>
      <point x="426" y="376" type="line"/>
      <point x="426" y="280" type="line"/>
      <point x="298" y="280" type="line"/>
      <point x="298" y="155" type="line"/>
      <point x="188" y="155" type="line"/>
      <point x="188" y="280" type="line"/>
    </contour>
  </outline>
</glyph>
<glyph name="comma" format="2">
  <advance width="265"/>
  <unicode hex="002C"/>
  <outline>
    <contour>
      <point x="86" y="-123" type="line"/>
      <point x="89" y="-97"/>
      <point x="99" y="-46"/>
      <point x="99" y="-20" type="qcurve" smooth="yes"/>
      <point x="99" y="13"/>
      <point x="81" y="47"/>
      <point x="55" y="67" type="qcurve"/>
      <point x="138" y="142" type="line"/>
      <point x="159" y="121"/>
      <point x="187" y="87"/>
      <point x="204" y="52"/>
      <point x="212" y="9"/>
      <point x="212" y="-21" type="qcurve" smooth="yes"/>
      <point x="212" y="-50"/>
      <point x="204" y="-106"/>
      <point x="198" y="-134" type="qcurve"/>
    </contour>
  </outline>
</glyph>
<glyph name="hyphen" format="2">
  <advance width="518"/>
  <unicode hex="002D"/>
  <outline>
    <contour>
      <point x="60" y="240" type="line"/>
      <point x="60" y="337" type="line"/>
      <point x="458" y="337" type="line"/>
      <point x="458" y="240" type="line"/>
    </contour>
  </outline>
</glyph>
<glyph name="period" format="2">
  <advance width="252"/>
  <unicode hex="002E"/>
  <outline>
    <contour>
      <point x="60" y="59" type="qcurve" smooth="yes"/>
      <point x="60" y="85"/>
      <point x="102" y="119"/>
      <point x="127" y="119" type="qcurve" smooth="yes"/>
      <point x="153" y="119"/>
      <point x="192" y="86"/>
      <point x="192" y="59" type="qcurve" smooth="yes"/>
      <point x="192" y="33"/>
      <point x="152" y="1"/>
      <point x="127" y="1" type="qcurve" smooth="yes"/>
      <point x="102" y="1"/>
      <point x="60" y="32"/>
    </contour>
  </outline>
</glyph>
<glyph name="slash" format="2">
  <advance width="448"/>
  <unicode hex="002F"/>
  <outline>
    <contour>
      <point x="29" y="1" type="line"/>
      <point x="308" y="783" type="line"/>
      <point x="426" y="783" type="line"/>
      <point x="147" y="1" type="line"/>
    </contour>
  </outline>
</glyph>
<glyph name="zero" format="2">
  <advance width="710"/>
  <unicode hex="0030"/>
  <outline>
    <contour>
      <point x="195" y="196" type="line" smooth="yes"/>
      <point x="195" y="166"/>
      <point x="227" y="127"/>
      <point x="275" y="103"/>
      <point x="330" y="93"/>
      <point x="354" y="93" type="qcurve" smooth="yes"/>
      <point x="379" y="93"/>
      <point x="436" y="102"/>
      <point x="484" y="124"/>
      <point x="516" y="165"/>
      <point x="516" y="196" type="qcurve" smooth="yes"/>
      <point x="516" y="589" type="line" smooth="yes"/>
      <point x="516" y="601"/>
      <point x="507" y="622"/>
      <point x="500" y="632" type="qcurve" smooth="yes"/>
      <point x="474" y="668"/>
      <point x="397" y="691"/>
      <point x="355" y="691" type="qcurve" smooth="yes"/>
      <point x="331" y="691"/>
      <point x="275" y="681"/>
      <point x="227" y="658"/>
      <point x="195" y="619"/>
      <point x="195" y="589" type="qcurve" smooth="yes"/>
    </contour>
    <contour>
      <point x="80" y="196" type="qcurve" smooth="yes"/>
      <point x="80" y="589" type="line" smooth="yes"/>
      <point x="80" y="609"/>
      <point x="91" y="646"/>
      <point x="99" y="664" type="qcurve" smooth="yes"/>
      <point x="116" y="700"/>
      <point x="170" y="749"/>
      <point x="237" y="779"/>
      <point x="311" y="793"/>
      <point x="348" y="793" type="qcurve" smooth="yes"/>
      <point x="395" y="793"/>
      <point x="494" y="771"/>
      <point x="576" y="722"/>
      <point x="629" y="644"/>
      <point x="629" y="589" type="qcurve" smooth="yes"/>
      <point x="629" y="195" type="line" smooth="yes"/>
      <point x="629" y="141"/>
      <point x="577" y="64"/>
      <point x="496" y="15"/>
      <point x="397" y="-8"/>
      <point x="351" y="-8" type="qcurve" smooth="yes"/>
      <point x="329" y="-8"/>
      <point x="287" y="-5"/>
      <point x="266" y="0" type="qcurve" smooth="yes"/>
      <point x="231" y="8"/>
      <point x="164" y="42"/>
      <point x="112" y="92"/>
      <point x="80" y="157"/>
    </contour>
  </outline>
</glyph>
<glyph name="one" format="2">
  <advance width="389"/>
  <unicode hex="0031"/>
  <outline>
    <contour>
      <point x="38" y="602" type="qcurve"/>
      <point x="38" y="703" type="line"/>
      <point x="58" y="703" type="line" smooth="yes"/>
      <point x="85" y="703"/>
      <point x="129" y="707"/>
      <point x="165" y="723"/>
      <point x="193" y="755"/>
      <point x="204" y="783" type="qcurve"/>
      <point x="309" y="783" type="line"/>
      <point x="309" y="1" type="line"/>
      <point x="195" y="1" type="line"/>
      <point x="195" y="626" type="line"/>
      <point x="158" y="609"/>
      <point x="78" y="602"/>
    </contour>
  </outline>
</glyph>
<glyph name="two" format="2">
  <advance width="619"/>
  <unicode hex="0032"/>
  <outline>
    <contour>
      <point x="61" y="1" type="line"/>
      <point x="61" y="33"/>
      <point x="60" y="94"/>
      <point x="60" y="126" type="qcurve" smooth="yes"/>
      <point x="60" y="150"/>
      <point x="72" y="192"/>
      <point x="86" y="212" type="qcurve" smooth="yes"/>
      <point x="103" y="236"/>
      <point x="169" y="300"/>
      <point x="246" y="366"/>
      <point x="320" y="425"/>
      <point x="345" y="444" type="qcurve" smooth="yes"/>
      <point x="364" y="458"/>
      <point x="400" y="488"/>
      <point x="417" y="505" type="qcurve" smooth="yes"/>
      <point x="435" y="524"/>
      <point x="443" y="562"/>
      <point x="443" y="586" type="qcurve" smooth="yes"/>
      <point x="443" y="601" type="line" smooth="yes"/>
      <point x="443" y="626"/>
      <point x="415" y="659"/>
      <point x="374" y="680"/>
      <point x="326" y="689"/>
      <point x="306" y="689" type="qcurve" smooth="yes"/>
      <point x="279" y="689"/>
      <point x="237" y="680"/>
      <point x="202" y="661"/>
      <point x="169" y="633"/>
      <point x="151" y="615" type="qcurve"/>
      <point x="65" y="682" type="line"/>
      <point x="77" y="692" type="line"/>
      <point x="92" y="718"/>
      <point x="147" y="755"/>
      <point x="212" y="779"/>
      <point x="280" y="790"/>
      <point x="308" y="790" type="qcurve" smooth="yes"/>
      <point x="346" y="790"/>
      <point x="427" y="771"/>
      <point x="497" y="731"/>
      <point x="548" y="671"/>
      <point x="555" y="629" type="qcurve" smooth="yes"/>
      <point x="557" y="618"/>
      <point x="558" y="594"/>
      <point x="558" y="582" type="qcurve" smooth="yes"/>
      <point x="558" y="536"/>
      <point x="536" y="466"/>
      <point x="499" y="435" type="qcurve" smooth="yes"/>
      <point x="265" y="238" type="line" smooth="yes"/>
      <point x="246" y="222"/>
      <point x="213" y="196"/>
      <point x="189" y="167"/>
      <point x="175" y="130"/>
      <point x="175" y="103" type="qcurve"/>
      <point x="559" y="103" type="line"/>
      <point x="559" y="1" type="line"/>
    </contour>
  </outline>
</glyph>
<glyph name="three" format="2">
  <advance width="620"/>
  <unicode hex="0033"/>
  <outline>
    <contour>
      <point x="41" y="72" type="qcurve"/>
      <point x="104" y="155" type="line"/>
      <point x="128" y="140"/>
      <point x="169" y="117"/>
      <point x="209" y="101"/>
      <point x="254" y="93"/>
      <point x="284" y="93" type="qcurve" smooth="yes"/>
      <point x="310" y="93"/>
      <point x="366" y="104"/>
      <point x="414" y="130"/>
      <point x="445" y="173"/>
      <point x="445" y="204" type="qcurve" smooth="yes"/>
      <point x="445" y="212"/>
      <point x="444" y="230"/>
      <point x="444" y="238" type="qcurve" smooth="yes"/>
      <point x="444" y="275"/>
      <point x="417" y="300" type="qcurve" smooth="yes"/>
      <point x="397" y="320"/>
      <point x="344" y="337"/>
      <point x="286" y="343"/>
      <point x="228" y="341"/>
      <point x="202" y="341" type="qcurve"/>
      <point x="202" y="443" type="line"/>
      <point x="246" y="443" type="line" smooth="yes"/>
      <point x="269" y="443"/>
      <point x="331" y="447"/>
      <point x="386" y="464"/>
      <point x="424" y="500"/>
      <point x="424" y="532" type="qcurve" smooth="yes"/>
      <point x="424" y="602" type="line" smooth="yes"/>
      <point x="424" y="627"/>
      <point x="396" y="660"/>
      <point x="355" y="681"/>
      <point x="307" y="690"/>
      <point x="287" y="690" type="qcurve" smooth="yes"/>
      <point x="245" y="690"/>
      <point x="185" y="665"/>
      <point x="156" y="636" type="qcurve" smooth="yes"/>
      <point x="153" y="633"/>
      <point x="151" y="632" type="qcurve"/>
      <point x="146" y="632" type="line" smooth="yes"/>
      <point x="136" y="632"/>
      <point x="109" y="643"/>
      <point x="80" y="660"/>
      <point x="55" y="677"/>
      <point x="47" y="683" type="qcurve"/>
      <point x="59" y="693" type="line"/>
      <point x="74" y="719"/>
      <point x="129" y="756"/>
      <point x="194" y="780"/>
      <point x="262" y="791"/>
      <point x="289" y="791" type="qcurve" smooth="yes"/>
      <point x="340" y="791"/>
      <point x="432" y="766"/>
      <point x="501" y="713"/>
      <point x="541" y="632"/>
      <point x="541" y="576" type="qcurve" smooth="yes"/>
      <point x="541" y="547"/>
      <point x="536" y="497"/>
      <point x="521" y="453"/>
      <point x="492" y="413"/>
      <point x="468" y="395" type="qcurve"/>
      <point x="512" y="365"/>
      <point x="560" y="282"/>
      <point x="560" y="228" type="qcurve" smooth="yes"/>
      <point x="560" y="202"/>
      <point x="556" y="154"/>
      <point x="545" y="131" type="qcurve"/>
      <point x="529" y="93"/>
      <point x="472" y="40"/>
      <point x="402" y="7"/>
      <point x="324" y="-8"/>
      <point x="285" y="-8" type="qcurve" smooth="yes"/>
      <point x="215" y="-8"/>
      <point x="98" y="30"/>
    </contour>
  </outline>
</glyph>
<glyph name="four" format="2">
  <advance width="655"/>
  <unicode hex="0034"/>
  <outline>
    <contour>
      <point x="184" y="238" type="line"/>
      <point x="412" y="238" type="line"/>
      <point x="412" y="564" type="line"/>
    </contour>
    <contour>
      <point x="41" y="136" type="line"/>
      <point x="41" y="191" type="line" smooth="yes"/>
      <point x="41" y="194"/>
      <point x="41" y="209"/>
      <point x="43" y="211" type="qcurve" smooth="yes"/>
      <point x="435" y="782" type="line"/>
      <point x="525" y="782" type="line"/>
      <point x="525" y="238" type="line"/>
      <point x="595" y="238" type="line"/>
      <point x="595" y="136" type="line"/>
      <point x="525" y="136" type="line"/>
      <point x="525" y="1" type="line"/>
      <point x="412" y="1" type="line"/>
      <point x="412" y="136" type="line"/>
    </contour>
  </outline>
</glyph>
<glyph name="five" format="2">
  <advance width="653"/>
  <unicode hex="0035"/>
  <outline>
    <contour>
      <point x="60" y="65" type="qcurve"/>
      <point x="118" y="154" type="line"/>
      <point x="163" y="125"/>
      <point x="252" y="95"/>
      <point x="306" y="95" type="qcurve" smooth="yes"/>
      <point x="329" y="95"/>
      <point x="382" y="105"/>
      <point x="428" y="129"/>
      <point x="458" y="168"/>
      <point x="458" y="196" type="qcurve" smooth="yes"/>
      <point x="458" y="307" type="line" smooth="yes"/>
      <point x="458" y="319"/>
      <point x="450" y="341"/>
      <point x="443" y="351" type="qcurve" smooth="yes"/>
      <point x="430" y="371"/>
      <point x="396" y="394"/>
      <point x="357" y="406"/>
      <point x="314" y="410"/>
      <point x="292" y="410" type="qcurve" smooth="yes"/>
      <point x="279" y="410"/>
      <point x="247" y="408"/>
      <point x="219" y="399"/>
      <point x="200" y="381"/>
      <point x="199" y="364" type="qcurve"/>
      <point x="91" y="364" type="line"/>
      <point x="91" y="783" type="line"/>
      <point x="555" y="783" type="line"/>
      <point x="555" y="681" type="line"/>
      <point x="205" y="681" type="line"/>
      <point x="205" y="495" type="line"/>
      <point x="231" y="503"/>
      <point x="285" y="511"/>
      <point x="312" y="511" type="qcurve" smooth="yes"/>
      <point x="382" y="511"/>
      <point x="510" y="457"/>
      <point x="547" y="395" type="qcurve" smooth="yes"/>
      <point x="559" y="375"/>
      <point x="573" y="330"/>
      <point x="573" y="307" type="qcurve" smooth="yes"/>
      <point x="573" y="195" type="line" smooth="yes"/>
      <point x="573" y="143"/>
      <point x="522" y="67"/>
      <point x="444" y="17"/>
      <point x="349" y="-7"/>
      <point x="304" y="-7" type="qcurve" smooth="yes"/>
      <point x="276" y="-7"/>
      <point x="210" y="3"/>
      <point x="144" y="22"/>
      <point x="84" y="49"/>
    </contour>
  </outline>
</glyph>
<glyph name="six" format="2">
  <advance width="690"/>
  <unicode hex="0036"/>
  <outline>
    <contour>
      <point x="195" y="197" type="line" smooth="yes"/>
      <point x="195" y="169"/>
      <point x="227" y="130"/>
      <point x="274" y="106"/>
      <point x="329" y="95"/>
      <point x="352" y="95" type="qcurve" smooth="yes"/>
      <point x="373" y="95"/>
      <point x="417" y="101"/>
      <point x="458" y="116"/>
      <point x="492" y="142"/>
      <point x="503" y="161" type="qcurve" smooth="yes"/>
      <point x="507" y="169"/>
      <point x="516" y="189"/>
      <point x="516" y="197" type="qcurve" smooth="yes"/>
      <point x="516" y="308" type="line" smooth="yes"/>
      <point x="516" y="320"/>
      <point x="507" y="342"/>
      <point x="500" y="352" type="qcurve" smooth="yes"/>
      <point x="474" y="390"/>
      <point x="398" y="410"/>
      <point x="355" y="410" type="qcurve" smooth="yes"/>
      <point x="331" y="410"/>
      <point x="275" y="401"/>
      <point x="227" y="377"/>
      <point x="195" y="338"/>
      <point x="195" y="308" type="qcurve" smooth="yes"/>
    </contour>
    <contour>
      <point x="80" y="197" type="qcurve" smooth="yes"/>
      <point x="80" y="578" type="line" smooth="yes"/>
      <point x="80" y="611"/>
      <point x="93" y="643" type="qcurve" smooth="yes"/>
      <point x="110" y="686"/>
      <point x="171" y="743"/>
      <point x="247" y="778"/>
      <point x="333" y="792"/>
      <point x="375" y="792" type="qcurve" smooth="yes"/>
      <point x="447" y="792"/>
      <point x="563" y="746"/>
      <point x="613" y="693" type="qcurve"/>
      <point x="597" y="698" type="line"/>
      <point x="606" y="693"/>
      <point x="623" y="684"/>
      <point x="629" y="676" type="qcurve"/>
      <point x="543" y="611" type="line"/>
      <point x="519" y="634"/>
      <point x="487" y="664"/>
      <point x="454" y="683"/>
      <point x="409" y="691"/>
      <point x="373" y="691" type="qcurve" smooth="yes"/>
      <point x="347" y="691"/>
      <point x="285" y="680"/>
      <point x="231" y="655"/>
      <point x="195" y="611"/>
      <point x="195" y="578" type="qcurve" smooth="yes"/>
      <point x="195" y="479" type="line"/>
      <point x="231" y="498"/>
      <point x="310" y="512"/>
      <point x="351" y="512" type="qcurve" smooth="yes"/>
      <point x="397" y="512"/>
      <point x="438" y="505" type="qcurve" smooth="yes"/>
      <point x="474" y="499"/>
      <point x="542" y="465"/>
      <point x="596" y="414"/>
      <point x="629" y="347"/>
      <point x="629" y="308" type="qcurve" smooth="yes"/>
      <point x="629" y="196" type="line" smooth="yes"/>
      <point x="629" y="176"/>
      <point x="618" y="139"/>
      <point x="610" y="122" type="qcurve" smooth="yes"/>
      <point x="592" y="85"/>
      <point x="538" y="35"/>
      <point x="471" y="5"/>
      <point x="396" y="-8"/>
      <point x="358" y="-8" type="qcurve" smooth="yes"/>
      <point x="312" y="-8"/>
      <point x="214" y="16"/>
      <point x="133" y="65"/>
      <point x="80" y="143"/>
    </contour>
  </outline>
</glyph>
<glyph name="seven" format="2">
  <advance width="575"/>
  <unicode hex="0037"/>
  <outline>
    <contour>
      <point x="161" y="1" type="line"/>
      <point x="406" y="680" type="line"/>
      <point x="20" y="680" type="line"/>
      <point x="20" y="783" type="line"/>
      <point x="534" y="783" type="line"/>
      <point x="534" y="702" type="line"/>
      <point x="511" y="651"/>
      <point x="475" y="543"/>
      <point x="455" y="490" type="qcurve" smooth="yes"/>
      <point x="410" y="367"/>
      <point x="324" y="124"/>
      <point x="279" y="1" type="qcurve"/>
    </contour>
  </outline>
</glyph>
<glyph name="eight" format="2">
  <advance width="671"/>
  <unicode hex="0038"/>
  <outline>
    <contour>
      <point x="315" y="441" type="qcurve" smooth="yes"/>
      <point x="357" y="441" type="line" smooth="yes"/>
      <point x="375" y="441"/>
      <point x="417" y="454"/>
      <point x="453" y="477"/>
      <point x="477" y="511"/>
      <point x="477" y="532" type="qcurve" smooth="yes"/>
      <point x="477" y="602" type="line" smooth="yes"/>
      <point x="477" y="628"/>
      <point x="449" y="662"/>
      <point x="407" y="683"/>
      <point x="359" y="691"/>
      <point x="338" y="691" type="qcurve" smooth="yes"/>
      <point x="318" y="691"/>
      <point x="268" y="683"/>
      <point x="225" y="662"/>
      <point x="195" y="628"/>
      <point x="195" y="602" type="qcurve" smooth="yes"/>
      <point x="195" y="532" type="line" smooth="yes"/>
      <point x="195" y="510"/>
      <point x="218" y="475"/>
      <point x="253" y="453"/>
      <point x="296" y="441"/>
    </contour>
    <contour>
      <point x="176" y="197" type="line" smooth="yes"/>
      <point x="176" y="168"/>
      <point x="209" y="128"/>
      <point x="257" y="104"/>
      <point x="313" y="94"/>
      <point x="336" y="94" type="qcurve" smooth="yes"/>
      <point x="362" y="94"/>
      <point x="410" y="102"/>
      <point x="452" y="122"/>
      <point x="484" y="156"/>
      <point x="494" y="182" type="qcurve" smooth="yes"/>
      <point x="497" y="190"/>
      <point x="497" y="197" type="qcurve" smooth="yes"/>
      <point x="497" y="239" type="line" smooth="yes"/>
      <point x="497" y="268"/>
      <point x="468" y="308"/>
      <point x="424" y="333"/>
      <point x="371" y="344"/>
      <point x="347" y="344" type="qcurve" smooth="yes"/>
      <point x="326" y="344"/>
      <point x="283" y="342"/>
      <point x="263" y="336" type="qcurve" smooth="yes"/>
      <point x="247" y="331"/>
      <point x="216" y="313"/>
      <point x="191" y="288"/>
      <point x="176" y="257"/>
      <point x="176" y="239" type="qcurve" smooth="yes"/>
    </contour>
    <contour>
      <point x="60" y="213" type="qcurve" smooth="yes"/>
      <point x="60" y="273"/>
      <point x="101" y="360"/>
      <point x="152" y="394" type="qcurve"/>
      <point x="128" y="412"/>
      <point x="100" y="454"/>
      <point x="85" y="500"/>
      <point x="80" y="551"/>
      <point x="80" y="579" type="qcurve" smooth="yes"/>
      <point x="80" y="633"/>
      <point x="121" y="714"/>
      <point x="190" y="768"/>
      <point x="281" y="794"/>
      <point x="331" y="794" type="qcurve" smooth="yes"/>
      <point x="382" y="794"/>
      <point x="476" y="769"/>
      <point x="548" y="717"/>
      <point x="592" y="636"/>
      <point x="592" y="580" type="qcurve" smooth="yes"/>
      <point x="592" y="550"/>
      <point x="589" y="500"/>
      <point x="575" y="455"/>
      <point x="547" y="415"/>
      <point x="521" y="395" type="qcurve"/>
      <point x="550" y="374"/>
      <point x="586" y="332"/>
      <point x="605" y="285"/>
      <point x="611" y="230"/>
      <point x="611" y="195" type="qcurve" smooth="yes"/>
      <point x="611" y="175"/>
      <point x="599" y="136"/>
      <point x="590" y="118" type="qcurve" smooth="yes"/>
      <point x="572" y="83"/>
      <point x="518" y="35"/>
      <point x="452" y="5"/>
      <point x="378" y="-8"/>
      <point x="341" y="-8" type="qcurve" smooth="yes"/>
      <point x="290" y="-8"/>
      <point x="189" y="17"/>
      <point x="110" y="71"/>
      <point x="60" y="155"/>
    </contour>
  </outline>
</glyph>
<glyph name="nine" format="2">
  <advance width="691"/>
  <unicode hex="0039"/>
  <outline>
    <contour>
      <point x="336" y="374" type="qcurve" smooth="yes"/>
      <point x="380" y="374"/>
      <point x="453" y="395"/>
      <point x="481" y="432" type="qcurve" smooth="yes"/>
      <point x="497" y="453"/>
      <point x="497" y="476" type="qcurve" smooth="yes"/>
      <point x="497" y="587" type="line" smooth="yes"/>
      <point x="497" y="612"/>
      <point x="469" y="650"/>
      <point x="427" y="676"/>
      <point x="377" y="689"/>
      <point x="356" y="689" type="qcurve" smooth="yes"/>
      <point x="329" y="689"/>
      <point x="270" y="682"/>
      <point x="218" y="661"/>
      <point x="181" y="622"/>
      <point x="175" y="590" type="qcurve" smooth="yes"/>
      <point x="173" y="579"/>
      <point x="174" y="556"/>
      <point x="174" y="545" type="qcurve" smooth="yes"/>
      <point x="174" y="537"/>
      <point x="174" y="512"/>
      <point x="175" y="485"/>
      <point x="178" y="461"/>
      <point x="180" y="453" type="qcurve" smooth="yes"/>
      <point x="188" y="428"/>
      <point x="222" y="397"/>
      <point x="265" y="380"/>
      <point x="313" y="374"/>
    </contour>
    <contour>
      <point x="60" y="107" type="qcurve"/>
      <point x="152" y="174" type="line"/>
      <point x="169" y="150"/>
      <point x="204" y="119"/>
      <point x="243" y="101"/>
      <point x="289" y="93"/>
      <point x="318" y="93" type="qcurve" smooth="yes"/>
      <point x="344" y="93"/>
      <point x="407" y="104"/>
      <point x="461" y="129"/>
      <point x="497" y="173"/>
      <point x="497" y="206" type="qcurve" smooth="yes"/>
      <point x="497" y="306" type="line"/>
      <point x="461" y="287"/>
      <point x="381" y="272"/>
      <point x="340" y="272" type="qcurve" smooth="yes"/>
      <point x="318" y="272"/>
      <point x="275" y="275"/>
      <point x="254" y="279" type="qcurve" smooth="yes"/>
      <point x="217" y="286"/>
      <point x="148" y="319"/>
      <point x="94" y="369"/>
      <point x="61" y="436"/>
      <point x="61" y="476" type="qcurve" smooth="yes"/>
      <point x="61" y="588" type="line" smooth="yes"/>
      <point x="61" y="608"/>
      <point x="72" y="645"/>
      <point x="81" y="662" type="qcurve" smooth="yes"/>
      <point x="100" y="698"/>
      <point x="154" y="748"/>
      <point x="220" y="779"/>
      <point x="294" y="792"/>
      <point x="333" y="792" type="qcurve" smooth="yes"/>
      <point x="379" y="792"/>
      <point x="477" y="768"/>
      <point x="558" y="718"/>
      <point x="611" y="641"/>
      <point x="611" y="587" type="qcurve" smooth="yes"/>
      <point x="611" y="206" type="line" smooth="yes"/>
      <point x="611" y="171"/>
      <point x="598" y="141" type="qcurve" smooth="yes"/>
      <point x="580" y="97"/>
      <point x="519" y="40"/>
      <point x="444" y="6"/>
      <point x="359" y="-8"/>
      <point x="315" y="-8" type="qcurve" smooth="yes"/>
      <point x="271" y="-8"/>
      <point x="174" y="14"/>
      <point x="137" y="38" type="qcurve" smooth="yes"/>
      <point x="120" y="49"/>
      <point x="92" y="77"/>
      <point x="78" y="91" type="qcurve"/>
      <point x="94" y="85" type="line"/>
      <point x="85" y="90"/>
      <point x="68" y="100"/>
    </contour>
  </outline>
</glyph>
<glyph name="colon" format="2">
  <advance width="252"/>
  <unicode hex="003A"/>
  <outline>
    <contour>
      <point x="60" y="174" type="qcurve" smooth="yes"/>
      <point x="60" y="200"/>
      <point x="102" y="234"/>
      <point x="127" y="234" type="qcurve" smooth="yes"/>
      <point x="152" y="234"/>
      <point x="192" y="200"/>
      <point x="192" y="174" type="qcurve" smooth="yes"/>
      <point x="192" y="148"/>
      <point x="152" y="115"/>
      <point x="127" y="115" type="qcurve" smooth="yes"/>
      <point x="102" y="115"/>
      <point x="60" y="147"/>
    </contour>
    <contour>
      <point x="60" y="452" type="qcurve" smooth="yes"/>
      <point x="60" y="479"/>
      <point x="101" y="511"/>
      <point x="127" y="511" type="qcurve" smooth="yes"/>
      <point x="152" y="511"/>
      <point x="192" y="478"/>
      <point x="192" y="452" type="qcurve" smooth="yes"/>
      <point x="192" y="426"/>
      <point x="152" y="393"/>
      <point x="127" y="393" type="qcurve" smooth="yes"/>
      <point x="101" y="393"/>
      <point x="60" y="425"/>
    </contour>
  </outline>
</glyph>
<glyph name="semicolon" format="2">
  <advance width="265"/>
  <unicode hex="003B"/>
  <outline>
    <contour>
      <point x="84" y="22" type="line"/>
      <point x="89" y="48"/>
      <point x="98" y="99"/>
      <point x="98" y="125" type="qcurve" smooth="yes"/>
      <point x="98" y="142"/>
      <point x="95" y="165"/>
      <point x="85" y="185"/>
      <point x="68" y="202"/>
      <point x="54" y="211" type="qcurve"/>
      <point x="137" y="286" type="line"/>
      <point x="156" y="267"/>
      <point x="184" y="233"/>
      <point x="203" y="195"/>
      <point x="212" y="152"/>
      <point x="212" y="124" type="qcurve" smooth="yes"/>
      <point x="212" y="95"/>
      <point x="203" y="39"/>
      <point x="197" y="10" type="qcurve"/>
    </contour>
    <contour>
      <point x="72" y="452" type="qcurve" smooth="yes"/>
      <point x="72" y="479"/>
      <point x="113" y="511"/>
      <point x="139" y="511" type="qcurve" smooth="yes"/>
      <point x="164" y="511"/>
      <point x="204" y="478"/>
      <point x="204" y="452" type="qcurve" smooth="yes"/>
      <point x="204" y="426"/>
      <point x="164" y="393"/>
      <point x="139" y="393" type="qcurve" smooth="yes"/>
      <point x="113" y="393"/>
      <point x="72" y="425"/>
    </contour>
  </outline>
</glyph>
<glyph name="less" format="2">
  <advance width="448"/>
  <unicode hex="003C"/>
  <outline>
    <contour>
      <point x="60" y="324" type="line"/>
      <point x="314" y="570" type="line"/>
      <point x="387" y="498" type="line"/>
      <point x="206" y="324" type="line"/>
      <point x="387" y="149" type="line"/>
      <point x="314" y="77" type="line"/>
    </contour>
  </outline>
</glyph>
<glyph name="equal" format="2">
  <advance width="487"/>
  <unicode hex="003D"/>
  <outline>
    <contour>
      <point x="60" y="214" type="line"/>
      <point x="60" y="311" type="line"/>
      <point x="426" y="311" type="line"/>
      <point x="426" y="214" type="line"/>
    </contour>
    <contour>
      <point x="60" y="326" type="line"/>
      <point x="60" y="422" type="line"/>
      <point x="426" y="422" type="line"/>
      <point x="426" y="326" type="line"/>
    </contour>
  </outline>
</glyph>
<glyph name="greater" format="2">
  <advance width="448"/>
  <unicode hex="003E"/>
  <outline>
    <contour>
      <point x="60" y="149" type="line"/>
      <point x="242" y="324" type="line"/>
      <point x="60" y="498" type="line"/>
      <point x="134" y="570" type="line"/>
      <point x="387" y="324" type="line"/>
      <point x="134" y="77" type="line"/>
    </contour>
  </outline>
</glyph>
<glyph name="question" format="2">
  <advance width="522"/>
  <unicode hex="003F"/>
  <outline>
    <contour>
      <point x="20" y="543" type="line"/>
      <point x="20" y="569" type="line" smooth="yes"/>
      <point x="20" y="616"/>
      <point x="57" y="695"/>
      <point x="120" y="754"/>
      <point x="203" y="787"/>
      <point x="248" y="787" type="qcurve" smooth="yes"/>
      <point x="294" y="787"/>
      <point x="378" y="755"/>
      <point x="441" y="697"/>
      <point x="478" y="617"/>
      <point x="478" y="569" type="qcurve" smooth="yes"/>
      <point x="478" y="533"/>
      <point x="459" y="478"/>
      <point x="428" y="435"/>
      <point x="391" y="401"/>
      <point x="355" y="367"/>
      <point x="325" y="331"/>
      <point x="316" y="309" type="qcurve" smooth="yes"/>
      <point x="310" y="292"/>
      <point x="305" y="247"/>
      <point x="305" y="199"/>
      <point x="307" y="152"/>
      <point x="307" y="133" type="qcurve"/>
      <point x="193" y="133" type="line"/>
      <point x="193" y="260" type="line" smooth="yes"/>
      <point x="193" y="308"/>
      <point x="218" y="374"/>
      <point x="256" y="423"/>
      <point x="299" y="460"/>
      <point x="337" y="497"/>
      <point x="362" y="540"/>
      <point x="362" y="569" type="qcurve" smooth="yes"/>
      <point x="362" y="593"/>
      <point x="344" y="635"/>
      <point x="314" y="667"/>
      <point x="272" y="685"/>
      <point x="248" y="685" type="qcurve" smooth="yes"/>
      <point x="236" y="685"/>
      <point x="215" y="680"/>
      <point x="204" y="675" type="qcurve" smooth="yes"/>
      <point x="160" y="655"/>
      <point x="135" y="588"/>
      <point x="135" y="543" type="qcurve"/>
    </contour>
    <contour>
      <point x="182" y="1" type="line"/>
      <point x="182" y="121" type="line"/>
      <point x="315" y="121" type="line"/>
      <point x="315" y="1" type="line"/>
    </contour>
  </outline>
</glyph>
<glyph name="at" format="2">
  <advance width="993"/>
  <unicode hex="0040"/>
  <outline>
    <contour>
      <point x="434" y="209" type="qcurve" smooth="yes"/>
      <point x="434" y="190"/>
      <point x="452" y="166"/>
      <point x="472" y="166" type="qcurve" smooth="yes"/>
      <point x="497" y="166"/>
      <point x="545" y="180"/>
      <point x="568" y="188" type="qcurve"/>
      <point x="563" y="205"/>
      <point x="560" y="238"/>
      <point x="559" y="255" type="qcurve"/>
      <point x="501" y="255" type="line" smooth="yes"/>
      <point x="489" y="255"/>
      <point x="466" y="251"/>
      <point x="446" y="241"/>
      <point x="434" y="223"/>
    </contour>
    <contour>
      <point x="92" y="289" type="qcurve" smooth="yes"/>
      <point x="92" y="373"/>
      <point x="158" y="516"/>
      <point x="270" y="620"/>
      <point x="418" y="679"/>
      <point x="500" y="679" type="qcurve" smooth="yes"/>
      <point x="586" y="679"/>
      <point x="734" y="618"/>
      <point x="845" y="510"/>
      <point x="908" y="363"/>
      <point x="908" y="277" type="qcurve" smooth="yes"/>
      <point x="908" y="235"/>
      <point x="888" y="163"/>
      <point x="846" y="110"/>
      <point x="781" y="79"/>
      <point x="736" y="79" type="qcurve" smooth="yes"/>
      <point x="681" y="79"/>
      <point x="635" y="104" type="qcurve"/>
      <point x="596" y="87"/>
      <point x="515" y="64"/>
      <point x="472" y="64" type="qcurve" smooth="yes"/>
      <point x="441" y="64"/>
      <point x="385" y="85"/>
      <point x="343" y="123"/>
      <point x="318" y="176"/>
      <point x="318" y="209" type="qcurve" smooth="yes"/>
      <point x="318" y="261"/>
      <point x="364" y="320"/>
      <point x="434" y="350"/>
      <point x="519" y="357"/>
      <point x="559" y="357" type="qcurve"/>
      <point x="559" y="368" type="line"/>
      <point x="578" y="354" type="line"/>
      <point x="563" y="367"/>
      <point x="555" y="387"/>
      <point x="545" y="400"/>
      <point x="518" y="406"/>
      <point x="484" y="406" type="qcurve" smooth="yes"/>
      <point x="468" y="406"/>
      <point x="437" y="403"/>
      <point x="423" y="395" type="qcurve"/>
      <point x="407" y="370" type="line"/>
      <point x="324" y="445" type="line"/>
      <point x="338" y="465"/>
      <point x="375" y="490"/>
      <point x="419" y="504"/>
      <point x="466" y="508"/>
      <point x="488" y="508" type="qcurve" smooth="yes"/>
      <point x="535" y="508"/>
      <point x="605" y="491"/>
      <point x="652" y="450"/>
      <point x="676" y="384"/>
      <point x="676" y="335" type="qcurve" smooth="yes"/>
      <point x="676" y="315"/>
      <point x="674" y="276"/>
      <point x="674" y="256" type="qcurve" smooth="yes"/>
      <point x="674" y="218"/>
      <point x="700" y="182"/>
      <point x="741" y="182" type="qcurve" smooth="yes"/>
      <point x="758" y="182"/>
      <point x="779" y="202"/>
      <point x="790" y="230"/>
      <point x="794" y="263"/>
      <point x="794" y="276" type="qcurve" smooth="yes"/>
      <point x="794" y="339"/>
      <point x="750" y="449"/>
      <point x="671" y="530"/>
      <point x="562" y="577"/>
      <point x="498" y="577" type="qcurve" smooth="yes"/>
      <point x="440" y="577"/>
      <point x="334" y="532"/>
      <point x="253" y="454"/>
      <point x="206" y="349"/>
      <point x="206" y="290" type="qcurve" smooth="yes"/>
      <point x="206" y="230"/>
      <point x="253" y="125"/>
      <point x="332" y="47"/>
      <point x="438" y="2"/>
      <point x="497" y="2" type="qcurve" smooth="yes"/>
      <point x="544" y="2"/>
      <point x="624" y="27"/>
      <point x="663" y="51" type="qcurve"/>
      <point x="680" y="-3"/>
      <point x="709" y="-48" type="qcurve"/>
      <point x="682" y="-58"/>
      <point x="631" y="-77"/>
      <point x="581" y="-92"/>
      <point x="529" y="-101"/>
      <point x="499" y="-101" type="qcurve" smooth="yes"/>
      <point x="418" y="-101"/>
      <point x="271" y="-41"/>
      <point x="159" y="64"/>
      <point x="92" y="207"/>
    </contour>
  </outline>
</glyph>
<glyph name="A" format="2">
  <advance width="741"/>
  <unicode hex="0041"/>
  <outline>
    <contour>
      <point x="291" y="380" type="line"/>
      <point x="451" y="380" type="line"/>
      <point x="371" y="602" type="line"/>
    </contour>
    <contour>
      <point x="33" y="1" type="line"/>
      <point x="320" y="783" type="line"/>
      <point x="421" y="783" type="line"/>
      <point x="709" y="1" type="line"/>
      <point x="591" y="1" type="line"/>
      <point x="489" y="278" type="line"/>
      <point x="255" y="278" type="line"/>
      <point x="151" y="1" type="line"/>
    </contour>
  </outline>
</glyph>
<glyph name="B" format="2">
  <advance width="695"/>
  <unicode hex="0042"/>
  <outline>
    <contour>
      <point x="207" y="443" type="line"/>
      <point x="432" y="443" type="line" smooth="yes"/>
      <point x="451" y="443"/>
      <point x="478" y="469"/>
      <point x="494" y="506"/>
      <point x="502" y="547"/>
      <point x="502" y="562" type="qcurve" smooth="yes"/>
      <point x="502" y="578"/>
      <point x="495" y="619"/>
      <point x="478" y="656"/>
      <point x="451" y="681"/>
      <point x="431" y="681" type="qcurve" smooth="yes"/>
      <point x="207" y="681" type="line"/>
    </contour>
    <contour>
      <point x="207" y="102" type="line"/>
      <point x="456" y="102" type="line" smooth="yes"/>
      <point x="477" y="102"/>
      <point x="506" y="127"/>
      <point x="522" y="163"/>
      <point x="529" y="205"/>
      <point x="529" y="222" type="qcurve" smooth="yes"/>
      <point x="529" y="238"/>
      <point x="521" y="279"/>
      <point x="504" y="315"/>
      <point x="476" y="340"/>
      <point x="456" y="340" type="qcurve" smooth="yes"/>
      <point x="207" y="340" type="line"/>
    </contour>
    <contour>
      <point x="93" y="1" type="line"/>
      <point x="93" y="783" type="line"/>
      <point x="432" y="783" type="line" smooth="yes"/>
      <point x="479" y="783"/>
      <point x="549" y="744"/>
      <point x="594" y="680"/>
      <point x="616" y="599"/>
      <point x="616" y="557" type="qcurve" smooth="yes"/>
      <point x="616" y="515"/>
      <point x="594" y="436"/>
      <point x="565" y="404" type="qcurve"/>
      <point x="609" y="371"/>
      <point x="642" y="272"/>
      <point x="642" y="219" type="qcurve" smooth="yes"/>
      <point x="642" y="177"/>
      <point x="619" y="98"/>
      <point x="573" y="37"/>
      <point x="504" y="1"/>
      <point x="457" y="1" type="qcurve" smooth="yes"/>
    </contour>
  </outline>
</glyph>
<glyph name="C" format="2">
  <advance width="692"/>
  <unicode hex="0043"/>
  <outline>
    <contour>
      <point x="43" y="391" type="qcurve" smooth="yes"/>
      <point x="43" y="476"/>
      <point x="65" y="623"/>
      <point x="132" y="731"/>
      <point x="255" y="793"/>
      <point x="355" y="793" type="qcurve" smooth="yes"/>
      <point x="387" y="793"/>
      <point x="461" y="783"/>
      <point x="533" y="761"/>
      <point x="595" y="724"/>
      <point x="616" y="698" type="qcurve" smooth="yes"/>
      <point x="624" y="687"/>
      <point x="638" y="666"/>
      <point x="646" y="655" type="qcurve"/>
      <point x="549" y="597" type="line"/>
      <point x="533" y="627"/>
      <point x="492" y="664"/>
      <point x="443" y="684"/>
      <point x="387" y="691"/>
      <point x="355" y="691" type="qcurve" smooth="yes"/>
      <point x="282" y="691"/>
      <point x="202" y="640"/>
      <point x="164" y="556"/>
      <point x="157" y="448"/>
      <point x="157" y="391" type="qcurve" smooth="yes"/>
      <point x="157" y="334"/>
      <point x="164" y="226"/>
      <point x="202" y="143"/>
      <point x="282" y="93"/>
      <point x="355" y="93" type="qcurve" smooth="yes"/>
      <point x="373" y="93"/>
      <point x="422" y="98"/>
      <point x="471" y="111"/>
      <point x="514" y="132"/>
      <point x="526" y="148" type="qcurve" smooth="yes"/>
      <point x="533" y="157"/>
      <point x="540" y="178"/>
      <point x="542" y="189" type="qcurve"/>
      <point x="646" y="130" type="line"/>
      <point x="638" y="119"/>
      <point x="624" y="97"/>
      <point x="616" y="86" type="qcurve" smooth="yes"/>
      <point x="595" y="58"/>
      <point x="533" y="22"/>
      <point x="462" y="0"/>
      <point x="388" y="-9"/>
      <point x="355" y="-9" type="qcurve" smooth="yes"/>
      <point x="256" y="-9"/>
      <point x="133" y="52"/>
      <point x="66" y="160"/>
      <point x="43" y="306"/>
    </contour>
  </outline>
</glyph>
<glyph name="D" format="2">
  <advance width="700"/>
  <unicode hex="0044"/>
  <outline>
    <contour>
      <point x="187" y="103" type="line"/>
      <point x="325" y="103" type="line" smooth="yes"/>
      <point x="399" y="103"/>
      <point x="479" y="149"/>
      <point x="516" y="228"/>
      <point x="523" y="333"/>
      <point x="523" y="391" type="qcurve" smooth="yes"/>
      <point x="523" y="449"/>
      <point x="516" y="554"/>
      <point x="478" y="634"/>
      <point x="398" y="681"/>
      <point x="325" y="681" type="qcurve" smooth="yes"/>
      <point x="187" y="681" type="line"/>
    </contour>
    <contour>
      <point x="72" y="1" type="line"/>
      <point x="72" y="783" type="line"/>
      <point x="325" y="783" type="line" smooth="yes"/>
      <point x="423" y="783"/>
      <point x="545" y="724"/>
      <point x="613" y="620"/>
      <point x="637" y="476"/>
      <point x="637" y="391" type="qcurve" smooth="yes"/>
      <point x="637" y="305"/>
      <point x="613" y="162"/>
      <point x="546" y="58"/>
      <point x="424" y="1"/>
      <point x="325" y="1" type="qcurve" smooth="yes"/>
    </contour>
  </outline>
</glyph>
<glyph name="E" format="2">
  <advance width="669"/>
  <unicode hex="0045"/>
  <outline>
    <contour>
      <point x="93" y="1" type="line"/>
      <point x="93" y="783" type="line"/>
      <point x="617" y="783" type="line"/>
      <point x="617" y="681" type="line"/>
      <point x="207" y="681" type="line"/>
      <point x="207" y="443" type="line"/>
      <point x="585" y="443" type="line"/>
      <point x="585" y="341" type="line"/>
      <point x="207" y="341" type="line"/>
      <point x="207" y="103" type="line"/>
      <point x="617" y="103" type="line"/>
      <point x="617" y="1" type="line"/>
    </contour>
  </outline>
</glyph>
<glyph name="F" format="2">
  <advance width="669"/>
  <unicode hex="0046"/>
  <outline>
    <contour>
      <point x="93" y="1" type="line"/>
      <point x="93" y="783" type="line"/>
      <point x="617" y="783" type="line"/>
      <point x="617" y="681" type="line"/>
      <point x="207" y="681" type="line"/>
      <point x="207" y="443" type="line"/>
      <point x="585" y="443" type="line"/>
      <point x="585" y="341" type="line"/>
      <point x="207" y="341" type="line"/>
      <point x="207" y="1" type="line"/>
    </contour>
  </outline>
</glyph>
<glyph name="G" format="2">
  <advance width="720"/>
  <unicode hex="0047"/>
  <outline>
    <contour>
      <point x="51" y="390" type="qcurve" smooth="yes"/>
      <point x="51" y="476"/>
      <point x="73" y="623"/>
      <point x="140" y="730"/>
      <point x="263" y="791"/>
      <point x="363" y="791" type="qcurve" smooth="yes"/>
      <point x="396" y="791"/>
      <point x="469" y="782"/>
      <point x="539" y="760"/>
      <point x="602" y="725"/>
      <point x="624" y="698" type="qcurve" smooth="yes"/>
      <point x="633" y="687"/>
      <point x="647" y="664"/>
      <point x="655" y="652" type="qcurve"/>
      <point x="553" y="595" type="line"/>
      <point x="548" y="613"/>
      <point x="535" y="638"/>
      <point x="520" y="650" type="qcurve" smooth="yes"/>
      <point x="506" y="661"/>
      <point x="466" y="676"/>
      <point x="423" y="685"/>
      <point x="381" y="689"/>
      <point x="363" y="689" type="qcurve" smooth="yes"/>
      <point x="288" y="689"/>
      <point x="207" y="639"/>
      <point x="171" y="555"/>
      <point x="166" y="447"/>
      <point x="166" y="388" type="qcurve" smooth="yes"/>
      <point x="166" y="331"/>
      <point x="173" y="224"/>
      <point x="211" y="142"/>
      <point x="291" y="92"/>
      <point x="363" y="92" type="qcurve" smooth="yes"/>
      <point x="421" y="92"/>
      <point x="496" y="126"/>
      <point x="540" y="188"/>
      <point x="558" y="273"/>
      <point x="559" y="325" type="qcurve"/>
      <point x="325" y="325" type="line"/>
      <point x="325" y="427" type="line"/>
      <point x="676" y="427" type="line"/>
      <point x="676" y="401" type="line" smooth="yes"/>
      <point x="676" y="315"/>
      <point x="654" y="165"/>
      <point x="588" y="54"/>
      <point x="465" y="-10"/>
      <point x="363" y="-10" type="qcurve" smooth="yes"/>
      <point x="265" y="-10"/>
      <point x="143" y="52"/>
      <point x="75" y="160"/>
      <point x="51" y="306"/>
    </contour>
  </outline>
</glyph>
<glyph name="H" format="2">
  <advance width="734"/>
  <unicode hex="0048"/>
  <outline>
    <contour>
      <point x="93" y="1" type="line"/>
      <point x="93" y="783" type="line"/>
      <point x="207" y="783" type="line"/>
      <point x="207" y="443" type="line"/>
      <point x="528" y="443" type="line"/>
      <point x="528" y="783" type="line"/>
      <point x="642" y="783" type="line"/>
      <point x="642" y="1" type="line"/>
      <point x="528" y="1" type="line"/>
      <point x="528" y="341" type="line"/>
      <point x="207" y="341" type="line"/>
      <point x="207" y="1" type="line"/>
    </contour>
  </outline>
</glyph>
<glyph name="I" format="2">
  <advance width="300"/>
  <unicode hex="0049"/>
  <outline>
    <contour>
      <point x="93" y="1" type="line"/>
      <point x="93" y="783" type="line"/>
      <point x="207" y="783" type="line"/>
      <point x="207" y="1" type="line"/>
    </contour>
  </outline>
</glyph>
<glyph name="J" format="2">
  <advance width="443"/>
  <unicode hex="004A"/>
  <outline>
    <contour>
      <point x="-11" y="16" type="qcurve"/>
      <point x="13" y="105" type="line"/>
      <point x="40" y="105" type="line" smooth="yes"/>
      <point x="60" y="105"/>
      <point x="97" y="97"/>
      <point x="117" y="97" type="qcurve" smooth="yes"/>
      <point x="140" y="97"/>
      <point x="183" y="106"/>
      <point x="216" y="127"/>
      <point x="235" y="162"/>
      <point x="235" y="189" type="qcurve" smooth="yes"/>
      <point x="235" y="783" type="line"/>
      <point x="351" y="783" type="line"/>
      <point x="351" y="181" type="line" smooth="yes"/>
      <point x="351" y="133"/>
      <point x="309" y="63"/>
      <point x="242" y="17"/>
      <point x="158" y="-5"/>
      <point x="116" y="-5" type="qcurve" smooth="yes"/>
      <point x="84" y="-5"/>
      <point x="18" y="2"/>
    </contour>
  </outline>
</glyph>
<glyph name="K" format="2">
  <advance width="736"/>
  <unicode hex="004B"/>
  <outline>
    <contour>
      <point x="93" y="1" type="line"/>
      <point x="93" y="783" type="line"/>
      <point x="207" y="783" type="line"/>
      <point x="207" y="456" type="line"/>
      <point x="547" y="783" type="line"/>
      <point x="704" y="783" type="line"/>
      <point x="348" y="440" type="line"/>
      <point x="689" y="1" type="line"/>
      <point x="549" y="1" type="line"/>
      <point x="268" y="364" type="line"/>
      <point x="207" y="306" type="line"/>
      <point x="207" y="1" type="line"/>
    </contour>
  </outline>
</glyph>
<glyph name="L" format="2">
  <advance width="649"/>
  <unicode hex="004C"/>
  <outline>
    <contour>
      <point x="93" y="1" type="line"/>
      <point x="93" y="783" type="line"/>
      <point x="207" y="783" type="line"/>
      <point x="207" y="103" type="line"/>
      <point x="617" y="103" type="line"/>
      <point x="617" y="1" type="line"/>
    </contour>
  </outline>
</glyph>
<glyph name="M" format="2">
  <advance width="838"/>
  <unicode hex="004D"/>
  <outline>
    <contour>
      <point x="93" y="1" type="line"/>
      <point x="93" y="783" type="line"/>
      <point x="201" y="783" type="line"/>
      <point x="420" y="188" type="line"/>
      <point x="639" y="783" type="line"/>
      <point x="746" y="783" type="line"/>
      <point x="746" y="1" type="line"/>
      <point x="632" y="1" type="line"/>
      <point x="632" y="443" type="line"/>
      <point x="467" y="1" type="line"/>
      <point x="373" y="1" type="line"/>
      <point x="207" y="443" type="line"/>
      <point x="207" y="1" type="line"/>
    </contour>
  </outline>
</glyph>
<glyph name="N" format="2">
  <advance width="734"/>
  <unicode hex="004E"/>
  <outline>
    <contour>
      <point x="93" y="1" type="line"/>
      <point x="93" y="782" type="line"/>
      <point x="201" y="782" type="line"/>
      <point x="528" y="231" type="line"/>
      <point x="528" y="782" type="line"/>
      <point x="642" y="782" type="line"/>
      <point x="642" y="1" type="line"/>
      <point x="534" y="1" type="line"/>
      <point x="207" y="551" type="line"/>
      <point x="207" y="1" type="line"/>
    </contour>
  </outline>
</glyph>
<glyph name="O" format="2">
  <advance width="760"/>
  <unicode hex="004F"/>
  <outline>
    <contour>
      <point x="379" y="93" type="qcurve" smooth="yes"/>
      <point x="453" y="93"/>
      <point x="532" y="143"/>
      <point x="569" y="227"/>
      <point x="575" y="334"/>
      <point x="575" y="391" type="qcurve" smooth="yes"/>
      <point x="575" y="429"/>
      <point x="573" y="503"/>
      <point x="562" y="569"/>
      <point x="538" y="626"/>
      <point x="495" y="668"/>
      <point x="428" y="691"/>
      <point x="379" y="691" type="qcurve" smooth="yes"/>
      <point x="306" y="691"/>
      <point x="227" y="640"/>
      <point x="189" y="556"/>
      <point x="182" y="448"/>
      <point x="182" y="391" type="qcurve" smooth="yes"/>
      <point x="182" y="334"/>
      <point x="189" y="227"/>
      <point x="226" y="143"/>
      <point x="306" y="93"/>
    </contour>
    <contour>
      <point x="67" y="391" type="qcurve" smooth="yes"/>
      <point x="67" y="475"/>
      <point x="91" y="622"/>
      <point x="158" y="731"/>
      <point x="280" y="793"/>
      <point x="379" y="793" type="qcurve" smooth="yes"/>
      <point x="478" y="793"/>
      <point x="600" y="731"/>
      <point x="667" y="622"/>
      <point x="691" y="475"/>
      <point x="691" y="391" type="qcurve" smooth="yes"/>
      <point x="691" y="306"/>
      <point x="668" y="160"/>
      <point x="600" y="52"/>
      <point x="478" y="-9"/>
      <point x="379" y="-9" type="qcurve" smooth="yes"/>
      <point x="280" y="-9"/>
      <point x="158" y="52"/>
      <point x="91" y="160"/>
      <point x="67" y="306"/>
    </contour>
  </outline>
</glyph>
<glyph name="P" format="2">
  <advance width="670"/>
  <unicode hex="0050"/>
  <outline>
    <contour>
      <point x="207" y="443" type="line"/>
      <point x="432" y="443" type="line" smooth="yes"/>
      <point x="451" y="443"/>
      <point x="478" y="469"/>
      <point x="495" y="507"/>
      <point x="503" y="548"/>
      <point x="503" y="563" type="qcurve" smooth="yes"/>
      <point x="503" y="579"/>
      <point x="496" y="620"/>
      <point x="479" y="656"/>
      <point x="451" y="681"/>
      <point x="431" y="681" type="qcurve" smooth="yes"/>
      <point x="207" y="681" type="line"/>
    </contour>
    <contour>
      <point x="93" y="1" type="line"/>
      <point x="93" y="783" type="line"/>
      <point x="432" y="783" type="line" smooth="yes"/>
      <point x="477" y="783"/>
      <point x="547" y="745"/>
      <point x="593" y="683"/>
      <point x="617" y="603"/>
      <point x="617" y="562" type="qcurve" smooth="yes"/>
      <point x="617" y="493"/>
      <point x="558" y="381"/>
      <point x="493" y="353" type="qcurve" smooth="yes"/>
      <point x="478" y="346"/>
      <point x="449" y="341"/>
      <point x="432" y="341" type="qcurve" smooth="yes"/>
      <point x="207" y="341" type="line"/>
      <point x="207" y="1" type="line"/>
    </contour>
  </outline>
</glyph>
<glyph name="Q" format="2">
  <advance width="760"/>
  <unicode hex="0051"/>
  <outline>
    <contour>
      <point x="395" y="93" type="qcurve" smooth="yes"/>
      <point x="405" y="93"/>
      <point x="410" y="94" type="qcurve"/>
      <point x="396" y="114"/>
      <point x="372" y="157"/>
      <point x="368" y="181" type="qcurve"/>
      <point x="470" y="229" type="line"/>
      <point x="477" y="203"/>
      <point x="499" y="155"/>
      <point x="518" y="136" type="qcurve"/>
      <point x="539" y="159"/>
      <point x="562" y="218"/>
      <point x="573" y="281"/>
      <point x="575" y="345"/>
      <point x="575" y="375" type="qcurve" smooth="yes"/>
      <point x="575" y="433"/>
      <point x="571" y="546"/>
      <point x="535" y="636"/>
      <point x="455" y="691"/>
      <point x="379" y="691" type="qcurve" smooth="yes"/>
      <point x="304" y="691"/>
      <point x="223" y="636"/>
      <point x="187" y="547"/>
      <point x="182" y="435"/>
      <point x="182" y="377" type="qcurve" smooth="yes"/>
      <point x="182" y="336"/>
      <point x="187" y="245"/>
      <point x="214" y="166"/>
      <point x="269" y="107"/>
      <point x="320" y="98" type="qcurve" smooth="yes"/>
      <point x="339" y="95"/>
      <point x="376" y="93"/>
    </contour>
    <contour>
      <point x="67" y="391" type="qcurve" smooth="yes"/>
      <point x="67" y="475"/>
      <point x="91" y="622"/>
      <point x="158" y="731"/>
      <point x="280" y="793"/>
      <point x="379" y="793" type="qcurve" smooth="yes"/>
      <point x="478" y="793"/>
      <point x="600" y="731"/>
      <point x="667" y="623"/>
      <point x="691" y="476"/>
      <point x="691" y="391" type="qcurve" smooth="yes"/>
      <point x="691" y="353"/>
      <point x="688" y="275"/>
      <point x="675" y="199"/>
      <point x="649" y="127"/>
      <point x="625" y="95" type="qcurve"/>
      <point x="642" y="92"/>
      <point x="674" y="93"/>
      <point x="691" y="93" type="qcurve"/>
      <point x="687" y="66"/>
      <point x="686" y="18"/>
      <point x="687" y="-9" type="qcurve"/>
      <point x="656" y="-9" type="line" smooth="yes"/>
      <point x="621" y="-9"/>
      <point x="551" y="1"/>
      <point x="518" y="15" type="qcurve"/>
      <point x="485" y="2"/>
      <point x="414" y="-9"/>
      <point x="379" y="-9" type="qcurve" smooth="yes"/>
      <point x="280" y="-9"/>
      <point x="158" y="52"/>
      <point x="91" y="160"/>
      <point x="67" y="306"/>
    </contour>
  </outline>
</glyph>
<glyph name="R" format="2">
  <advance width="701"/>
  <unicode hex="0052"/>
  <outline>
    <contour>
      <point x="207" y="443" type="line"/>
      <point x="431" y="443" type="line" smooth="yes"/>
      <point x="451" y="443"/>
      <point x="478" y="469"/>
      <point x="495" y="506"/>
      <point x="502" y="547"/>
      <point x="502" y="562" type="qcurve" smooth="yes"/>
      <point x="502" y="578"/>
      <point x="495" y="619"/>
      <point x="478" y="656"/>
      <point x="451" y="681"/>
      <point x="431" y="681" type="qcurve" smooth="yes"/>
      <point x="207" y="681" type="line"/>
    </contour>
    <contour>
      <point x="93" y="1" type="line"/>
      <point x="93" y="783" type="line"/>
      <point x="432" y="783" type="line" smooth="yes"/>
      <point x="477" y="783"/>
      <point x="546" y="744"/>
      <point x="593" y="681"/>
      <point x="617" y="601"/>
      <point x="617" y="560" type="qcurve" smooth="yes"/>
      <point x="617" y="534"/>
      <point x="608" y="480"/>
      <point x="587" y="431"/>
      <point x="555" y="389"/>
      <point x="532" y="374" type="qcurve"/>
      <point x="669" y="1" type="line"/>
      <point x="551" y="1" type="line"/>
      <point x="425" y="342" type="line"/>
      <point x="370" y="342"/>
      <point x="262" y="341"/>
      <point x="207" y="341" type="qcurve"/>
      <point x="207" y="1" type="line"/>
    </contour>
  </outline>
</glyph>
<glyph name="S" format="2">
  <advance width="710"/>
  <unicode hex="0053"/>
  <outline>
    <contour>
      <point x="72" y="96" type="qcurve"/>
      <point x="156" y="162" type="line"/>
      <point x="177" y="139"/>
      <point x="219" y="112"/>
      <point x="264" y="98"/>
      <point x="315" y="94"/>
      <point x="344" y="94" type="qcurve" smooth="yes"/>
      <point x="381" y="94"/>
      <point x="446" y="111"/>
      <point x="495" y="147"/>
      <point x="523" y="204"/>
      <point x="523" y="245" type="qcurve" smooth="yes"/>
      <point x="523" y="268"/>
      <point x="511" y="309"/>
      <point x="492" y="324" type="qcurve" smooth="yes"/>
      <point x="478" y="335"/>
      <point x="442" y="343"/>
      <point x="425" y="348" type="qcurve" smooth="yes"/>
      <point x="402" y="354"/>
      <point x="356" y="367"/>
      <point x="333" y="373" type="qcurve" smooth="yes"/>
      <point x="291" y="384"/>
      <point x="208" y="412"/>
      <point x="143" y="458"/>
      <point x="102" y="527"/>
      <point x="102" y="579" type="qcurve" smooth="yes"/>
      <point x="102" y="635"/>
      <point x="148" y="715"/>
      <point x="222" y="767"/>
      <point x="318" y="791"/>
      <point x="367" y="791" type="qcurve" smooth="yes"/>
      <point x="391" y="791"/>
      <point x="451" y="787"/>
      <point x="510" y="775"/>
      <point x="565" y="755"/>
      <point x="584" y="740" type="qcurve" smooth="yes"/>
      <point x="595" y="732"/>
      <point x="611" y="710"/>
      <point x="620" y="699" type="qcurve"/>
      <point x="539" y="633" type="line"/>
      <point x="518" y="654"/>
      <point x="479" y="677"/>
      <point x="438" y="687"/>
      <point x="392" y="689"/>
      <point x="365" y="689" type="qcurve" smooth="yes"/>
      <point x="338" y="689"/>
      <point x="285" y="679"/>
      <point x="242" y="654"/>
      <point x="215" y="612"/>
      <point x="215" y="580" type="qcurve" smooth="yes"/>
      <point x="215" y="536"/>
      <point x="277" y="493"/>
      <point x="371" y="468"/>
      <point x="480" y="447"/>
      <point x="574" y="401"/>
      <point x="636" y="316"/>
      <point x="636" y="240" type="qcurve" smooth="yes"/>
      <point x="636" y="180"/>
      <point x="589" y="88"/>
      <point x="511" y="25"/>
      <point x="409" y="-8"/>
      <point x="353" y="-8" type="qcurve" smooth="yes"/>
      <point x="313" y="-8"/>
      <point x="234" y="-1"/>
      <point x="162" y="21"/>
      <point x="98" y="62"/>
    </contour>
  </outline>
</glyph>
<glyph name="T" format="2">
  <advance width="603"/>
  <unicode hex="0054"/>
  <outline>
    <contour>
      <point x="245" y="1" type="line"/>
      <point x="245" y="681" type="line"/>
      <point x="52" y="681" type="line"/>
      <point x="52" y="783" type="line"/>
      <point x="551" y="783" type="line"/>
      <point x="551" y="681" type="line"/>
      <point x="359" y="681" type="line"/>
      <point x="359" y="1" type="line"/>
    </contour>
  </outline>
</glyph>
<glyph name="U" format="2">
  <advance width="761"/>
  <unicode hex="0055"/>
  <outline>
    <contour>
      <point x="93" y="206" type="qcurve" smooth="yes"/>
      <point x="93" y="783" type="line"/>
      <point x="207" y="783" type="line"/>
      <point x="207" y="206" type="line" smooth="yes"/>
      <point x="207" y="175"/>
      <point x="241" y="132"/>
      <point x="291" y="105"/>
      <point x="351" y="93"/>
      <point x="376" y="93" type="qcurve" smooth="yes"/>
      <point x="402" y="93"/>
      <point x="464" y="104"/>
      <point x="518" y="130"/>
      <point x="555" y="174"/>
      <point x="555" y="206" type="qcurve" smooth="yes"/>
      <point x="555" y="783" type="line"/>
      <point x="669" y="783" type="line"/>
      <point x="669" y="206" type="line" smooth="yes"/>
      <point x="669" y="185"/>
      <point x="658" y="145"/>
      <point x="648" y="126" type="qcurve" smooth="yes"/>
      <point x="629" y="88"/>
      <point x="571" y="36"/>
      <point x="502" y="5"/>
      <point x="424" y="-9"/>
      <point x="384" y="-9" type="qcurve" smooth="yes"/>
      <point x="359" y="-9"/>
      <point x="309" y="-4"/>
      <point x="285" y="1" type="qcurve" smooth="yes"/>
      <point x="249" y="9"/>
      <point x="180" y="45"/>
      <point x="126" y="98"/>
      <point x="93" y="166"/>
    </contour>
  </outline>
</glyph>
<glyph name="V" format="2">
  <advance width="741"/>
  <unicode hex="0056"/>
  <outline>
    <contour>
      <point x="325" y="1" type="line"/>
      <point x="33" y="783" type="line"/>
      <point x="151" y="783" type="line"/>
      <point x="372" y="188" type="line"/>
      <point x="591" y="783" type="line"/>
      <point x="709" y="783" type="line"/>
      <point x="418" y="1" type="line"/>
    </contour>
  </outline>
</glyph>
<glyph name="W" format="2">
  <advance width="1018"/>
  <unicode hex="0057"/>
  <outline>
    <contour>
      <point x="254" y="0" type="line"/>
      <point x="33" y="782" type="line"/>
      <point x="152" y="782" type="line"/>
      <point x="305" y="242" type="line"/>
      <point x="458" y="782" type="line"/>
      <point x="561" y="782" type="line"/>
      <point x="714" y="242" type="line"/>
      <point x="867" y="782" type="line"/>
      <point x="986" y="782" type="line"/>
      <point x="765" y="0" type="line"/>
      <point x="663" y="0" type="line"/>
      <point x="510" y="553" type="line"/>
      <point x="356" y="0" type="line"/>
    </contour>
  </outline>
</glyph>
<glyph name="X" format="2">
  <advance width="721"/>
  <unicode hex="0058"/>
  <outline>
    <contour>
      <point x="33" y="1" type="line"/>
      <point x="294" y="391" type="line"/>
      <point x="33" y="783" type="line"/>
      <point x="165" y="783" type="line"/>
      <point x="361" y="483" type="line"/>
      <point x="554" y="783" type="line"/>
      <point x="689" y="783" type="line"/>
      <point x="427" y="391" type="line"/>
      <point x="689" y="1" type="line"/>
      <point x="554" y="1" type="line"/>
      <point x="361" y="301" type="line"/>
      <point x="165" y="1" type="line"/>
    </contour>
  </outline>
</glyph>
<glyph name="Y" format="2">
  <advance width="722"/>
  <unicode hex="0059"/>
  <outline>
    <contour>
      <point x="302" y="1" type="line"/>
      <point x="302" y="82"/>
      <point x="303" y="242"/>
      <point x="303" y="323" type="qcurve" smooth="yes"/>
      <point x="303" y="337"/>
      <point x="304" y="363"/>
      <point x="302" y="376" type="qcurve" smooth="yes"/>
      <point x="301" y="388"/>
      <point x="280" y="423"/>
      <point x="253" y="459"/>
      <point x="226" y="493"/>
      <point x="218" y="504" type="qcurve" smooth="yes"/>
      <point x="33" y="783" type="line"/>
      <point x="165" y="783" type="line"/>
      <point x="360" y="484" type="line"/>
      <point x="554" y="783" type="line"/>
      <point x="689" y="783" type="line"/>
      <point x="502" y="504" type="line" smooth="yes"/>
      <point x="494" y="492"/>
      <point x="467" y="459"/>
      <point x="441" y="424"/>
      <point x="420" y="390"/>
      <point x="417" y="377" type="qcurve"/>
      <point x="417" y="375"/>
      <point x="418" y="367"/>
      <point x="418" y="365" type="qcurve" smooth="yes"/>
      <point x="418" y="1" type="line"/>
    </contour>
  </outline>
</glyph>
<glyph name="Z" format="2">
  <advance width="700"/>
  <unicode hex="005A"/>
  <outline>
    <contour>
      <point x="52" y="1" type="line"/>
      <point x="52" y="55" type="line" smooth="yes"/>
      <point x="52" y="58"/>
      <point x="52" y="74"/>
      <point x="54" y="76" type="qcurve" smooth="yes"/>
      <point x="490" y="681" type="line"/>
      <point x="52" y="681" type="line"/>
      <point x="52" y="783" type="line"/>
      <point x="646" y="783" type="line"/>
      <point x="647" y="725" type="line"/>
      <point x="647" y="722"/>
      <point x="646" y="711"/>
      <point x="644" y="708" type="qcurve" smooth="yes"/>
      <point x="208" y="103" type="line"/>
      <point x="647" y="103" type="line"/>
      <point x="647" y="1" type="line"/>
    </contour>
  </outline>
</glyph>
<glyph name="bracketleft" format="2">
  <advance width="340"/>
  <unicode hex="005B"/>
  <outline>
    <contour>
      <point x="50" y="-85" type="line"/>
      <point x="50" y="811" type="line"/>
      <point x="285" y="811" type="line"/>
      <point x="285" y="714" type="line"/>
      <point x="165" y="714" type="line"/>
      <point x="165" y="12" type="line"/>
      <point x="286" y="12" type="line"/>
      <point x="286" y="-85" type="line"/>
    </contour>
  </outline>
</glyph>
<glyph name="backslash" format="2">
  <advance width="534"/>
  <unicode hex="005C"/>
  <outline>
    <contour>
      <point x="41" y="783" type="line"/>
      <point x="158" y="783" type="line"/>
      <point x="438" y="1" type="line"/>
      <point x="319" y="1" type="line"/>
    </contour>
  </outline>
</glyph>
<glyph name="bracketright" format="2">
  <advance width="340"/>
  <unicode hex="005D"/>
  <outline>
    <contour>
      <point x="50" y="-85" type="line"/>
      <point x="50" y="12" type="line"/>
      <point x="170" y="12" type="line"/>
      <point x="170" y="714" type="line"/>
      <point x="51" y="714" type="line"/>
      <point x="51" y="811" type="line"/>
      <point x="286" y="811" type="line"/>
      <point x="286" y="-85" type="line"/>
    </contour>
  </outline>
</glyph>
<glyph name="asciicircum" format="2">
  <advance width="554"/>
  <unicode hex="005E"/>
  <outline>
    <contour>
      <point x="22" y="235" type="line"/>
      <point x="275" y="482" type="line"/>
      <point x="531" y="235" type="line"/>
      <point x="458" y="165" type="line"/>
      <point x="275" y="339" type="line"/>
      <point x="96" y="165" type="line"/>
    </contour>
  </outline>
</glyph>
<glyph name="underscore" format="2">
  <advance width="515"/>
  <unicode hex="005F"/>
  <outline>
    <contour>
      <point x="12" y="-67" type="line"/>
      <point x="12" y="29" type="line"/>
      <point x="502" y="29" type="line"/>
      <point x="502" y="-67" type="line"/>
    </contour>
  </outline>
</glyph>
<glyph name="grave" format="2">
  <advance width="338"/>
  <unicode hex="0060"/>
  <outline>
    <contour>
      <point x="51" y="610" type="qcurve"/>
      <point x="52" y="712" type="line"/>
      <point x="84" y="712" type="line" smooth="yes"/>
      <point x="125" y="712"/>
      <point x="186" y="685"/>
      <point x="237" y="642"/>
      <point x="281" y="587"/>
      <point x="303" y="558" type="qcurve"/>
      <point x="220" y="494" type="line"/>
      <point x="196" y="518"/>
      <point x="153" y="575"/>
      <point x="125" y="595" type="qcurve" smooth="yes"/>
      <point x="108" y="607"/>
      <point x="71" y="610"/>
    </contour>
  </outline>
</glyph>
<glyph name="a" format="2">
  <advance width="554"/>
  <unicode hex="0061"/>
  <outline>
    <contour>
      <point x="167" y="158" type="qcurve" smooth="yes"/>
      <point x="167" y="126"/>
      <point x="203" y="92"/>
      <point x="235" y="92" type="qcurve" smooth="yes"/>
      <point x="267" y="92"/>
      <point x="338" y="111"/>
      <point x="367" y="123" type="qcurve"/>
      <point x="367" y="224" type="line"/>
      <point x="271" y="224" type="line" smooth="yes"/>
      <point x="254" y="224"/>
      <point x="217" y="220"/>
      <point x="187" y="206"/>
      <point x="167" y="180"/>
    </contour>
    <contour>
      <point x="52" y="162" type="qcurve" smooth="yes"/>
      <point x="52" y="186"/>
      <point x="61" y="208" type="qcurve" smooth="yes"/>
      <point x="75" y="246"/>
      <point x="125" y="294"/>
      <point x="187" y="320"/>
      <point x="259" y="329"/>
      <point x="296" y="329" type="qcurve" smooth="yes"/>
      <point x="313" y="329"/>
      <point x="349" y="327"/>
      <point x="367" y="326" type="qcurve"/>
      <point x="367" y="391" type="line" smooth="yes"/>
      <point x="367" y="408"/>
      <point x="346" y="429"/>
      <point x="316" y="441"/>
      <point x="282" y="446"/>
      <point x="270" y="446" type="qcurve" smooth="yes"/>
      <point x="261" y="446"/>
      <point x="231" y="445"/>
      <point x="200" y="441"/>
      <point x="172" y="434"/>
      <point x="165" y="428" type="qcurve"/>
      <point x="151" y="394" type="line"/>
      <point x="65" y="480" type="line"/>
      <point x="86" y="502"/>
      <point x="134" y="528"/>
      <point x="185" y="543"/>
      <point x="239" y="548"/>
      <point x="268" y="548" type="qcurve" smooth="yes"/>
      <point x="303" y="548"/>
      <point x="378" y="530"/>
      <point x="441" y="492"/>
      <point x="481" y="433"/>
      <point x="481" y="392" type="qcurve" smooth="yes"/>
      <point x="481" y="1" type="line"/>
      <point x="386" y="1" type="line"/>
      <point x="380" y="17" type="line"/>
      <point x="345" y="6"/>
      <point x="272" y="-10"/>
      <point x="235" y="-10" type="qcurve" smooth="yes"/>
      <point x="195" y="-10"/>
      <point x="128" y="13"/>
      <point x="79" y="56"/>
      <point x="52" y="120"/>
    </contour>
  </outline>
</glyph>
<glyph name="b" format="2">
  <advance width="579"/>
  <unicode hex="0062"/>
  <outline>
    <contour>
      <point x="73" y="1" type="line"/>
      <point x="73" y="715" type="line"/>
      <point x="188" y="715" type="line"/>
      <point x="188" y="519" type="line"/>
      <point x="213" y="533"/>
      <point x="268" y="547"/>
      <point x="297" y="547" type="qcurve" smooth="yes"/>
      <point x="367" y="547"/>
      <point x="454" y="505"/>
      <point x="503" y="431"/>
      <point x="521" y="329"/>
      <point x="521" y="268" type="qcurve" smooth="yes"/>
      <point x="521" y="208"/>
      <point x="502" y="106"/>
      <point x="453" y="33"/>
      <point x="366" y="-9"/>
      <point x="297" y="-9" type="qcurve" smooth="yes"/>
      <point x="266" y="-9"/>
      <point x="205" y="7"/>
      <point x="179" y="23" type="qcurve"/>
      <point x="174" y="1" type="line"/>
    </contour>
    <contour>
      <point x="297" y="93" type="qcurve" smooth="yes"/>
      <point x="330" y="93"/>
      <point x="372" y="112"/>
      <point x="397" y="147"/>
      <point x="407" y="196"/>
      <point x="407" y="225" type="qcurve" smooth="yes"/>
      <point x="407" y="312" type="line" smooth="yes"/>
      <point x="407" y="341"/>
      <point x="397" y="389"/>
      <point x="372" y="425"/>
      <point x="329" y="445"/>
      <point x="297" y="445" type="qcurve" smooth="yes"/>
      <point x="258" y="445"/>
      <point x="213" y="416"/>
      <point x="192" y="368"/>
      <point x="187" y="308"/>
      <point x="187" y="276" type="qcurve" smooth="yes"/>
      <point x="187" y="244"/>
      <point x="189" y="179"/>
      <point x="209" y="126"/>
      <point x="254" y="93"/>
    </contour>
  </outline>
</glyph>
<glyph name="c" format="2">
  <advance width="553"/>
  <unicode hex="0063"/>
  <outline>
    <contour>
      <point x="57" y="269" type="qcurve" smooth="yes"/>
      <point x="57" y="328"/>
      <point x="77" y="429"/>
      <point x="127" y="504"/>
      <point x="214" y="547"/>
      <point x="281" y="547" type="qcurve" smooth="yes"/>
      <point x="308" y="547"/>
      <point x="364" y="539"/>
      <point x="417" y="520"/>
      <point x="463" y="489"/>
      <point x="480" y="467" type="qcurve" smooth="yes"/>
      <point x="487" y="458"/>
      <point x="498" y="439"/>
      <point x="505" y="430" type="qcurve"/>
      <point x="395" y="375" type="line"/>
      <point x="391" y="408" type="line"/>
      <point x="383" y="418"/>
      <point x="356" y="432"/>
      <point x="325" y="441"/>
      <point x="293" y="445"/>
      <point x="281" y="445" type="qcurve" smooth="yes"/>
      <point x="244" y="445"/>
      <point x="200" y="418"/>
      <point x="177" y="374"/>
      <point x="171" y="316"/>
      <point x="171" y="286" type="qcurve" smooth="yes"/>
      <point x="171" y="254"/>
      <point x="172" y="185"/>
      <point x="191" y="129"/>
      <point x="237" y="93"/>
      <point x="281" y="93" type="qcurve" smooth="yes"/>
      <point x="308" y="93"/>
      <point x="373" y="108"/>
      <point x="391" y="131" type="qcurve"/>
      <point x="395" y="163" type="line"/>
      <point x="506" y="108" type="line"/>
      <point x="497" y="96"/>
      <point x="482" y="70"/>
      <point x="471" y="59" type="qcurve" smooth="yes"/>
      <point x="454" y="41"/>
      <point x="408" y="15"/>
      <point x="358" y="-1"/>
      <point x="305" y="-9"/>
      <point x="281" y="-9" type="qcurve" smooth="yes"/>
      <point x="212" y="-9"/>
      <point x="125" y="33"/>
      <point x="76" y="107"/>
      <point x="57" y="209"/>
    </contour>
  </outline>
</glyph>
<glyph name="d" format="2">
  <advance width="579"/>
  <unicode hex="0064"/>
  <outline>
    <contour>
      <point x="56" y="268" type="qcurve" smooth="yes"/>
      <point x="56" y="328"/>
      <point x="75" y="430"/>
      <point x="124" y="505"/>
      <point x="211" y="547"/>
      <point x="280" y="547" type="qcurve" smooth="yes"/>
      <point x="309" y="547"/>
      <point x="365" y="533"/>
      <point x="390" y="519" type="qcurve"/>
      <point x="390" y="715" type="line"/>
      <point x="505" y="715" type="line"/>
      <point x="505" y="1" type="line"/>
      <point x="404" y="1" type="line"/>
      <point x="399" y="23" type="line"/>
      <point x="344" y="-9"/>
      <point x="280" y="-9" type="qcurve" smooth="yes"/>
      <point x="212" y="-9"/>
      <point x="125" y="33"/>
      <point x="75" y="107"/>
      <point x="56" y="208"/>
    </contour>
    <contour>
      <point x="280" y="93" type="qcurve" smooth="yes"/>
      <point x="323" y="93"/>
      <point x="369" y="126"/>
      <point x="389" y="178"/>
      <point x="391" y="243"/>
      <point x="391" y="276" type="qcurve" smooth="yes"/>
      <point x="391" y="308"/>
      <point x="386" y="369"/>
      <point x="364" y="416"/>
      <point x="320" y="445"/>
      <point x="280" y="445" type="qcurve" smooth="yes"/>
      <point x="266" y="445"/>
      <point x="231" y="440"/>
      <point x="219" y="433" type="qcurve" smooth="yes"/>
      <point x="206" y="425"/>
      <point x="187" y="396"/>
      <point x="176" y="362"/>
      <point x="171" y="326"/>
      <point x="171" y="312" type="qcurve" smooth="yes"/>
      <point x="171" y="225" type="line" smooth="yes"/>
      <point x="171" y="197"/>
      <point x="181" y="148"/>
      <point x="206" y="113"/>
      <point x="248" y="93"/>
    </contour>
  </outline>
</glyph>
<glyph name="e" format="2">
  <advance width="559"/>
  <unicode hex="0065"/>
  <outline>
    <contour>
      <point x="169" y="317" type="qcurve"/>
      <point x="387" y="317" type="line"/>
      <point x="386" y="346"/>
      <point x="376" y="394"/>
      <point x="352" y="427"/>
      <point x="310" y="445"/>
      <point x="277" y="445" type="qcurve" smooth="yes"/>
      <point x="245" y="445"/>
      <point x="204" y="426"/>
      <point x="180" y="393"/>
      <point x="170" y="346"/>
    </contour>
    <contour>
      <point x="53" y="267" type="qcurve" smooth="yes"/>
      <point x="53" y="326"/>
      <point x="72" y="429"/>
      <point x="123" y="504"/>
      <point x="210" y="547"/>
      <point x="277" y="547" type="qcurve" smooth="yes"/>
      <point x="359" y="547"/>
      <point x="450" y="492"/>
      <point x="493" y="400"/>
      <point x="502" y="280"/>
      <point x="502" y="215" type="qcurve"/>
      <point x="169" y="215" type="line"/>
      <point x="170" y="188"/>
      <point x="180" y="144"/>
      <point x="203" y="111"/>
      <point x="242" y="93"/>
      <point x="272" y="93" type="qcurve" smooth="yes"/>
      <point x="293" y="93"/>
      <point x="332" y="97"/>
      <point x="366" y="111"/>
      <point x="391" y="138"/>
      <point x="397" y="160" type="qcurve"/>
      <point x="502" y="106" type="line"/>
      <point x="494" y="95"/>
      <point x="480" y="72"/>
      <point x="471" y="61" type="qcurve" smooth="yes"/>
      <point x="455" y="42"/>
      <point x="408" y="15"/>
      <point x="356" y="-1"/>
      <point x="301" y="-9"/>
      <point x="277" y="-9" type="qcurve" smooth="yes"/>
      <point x="208" y="-9"/>
      <point x="121" y="32"/>
      <point x="72" y="105"/>
      <point x="53" y="207"/>
    </contour>
  </outline>
</glyph>
<glyph name="f" format="2">
  <advance width="357"/>
  <unicode hex="0066"/>
  <outline>
    <contour>
      <point x="102" y="1" type="line"/>
      <point x="102" y="377" type="line"/>
      <point x="59" y="377" type="line"/>
      <point x="59" y="479" type="line"/>
      <point x="102" y="479" type="line"/>
      <point x="102" y="583" type="line" smooth="yes"/>
      <point x="102" y="618"/>
      <point x="131" y="671"/>
      <point x="178" y="706"/>
      <point x="238" y="724"/>
      <point x="270" y="724" type="qcurve" smooth="yes"/>
      <point x="293" y="724"/>
      <point x="337" y="719"/>
      <point x="360" y="715" type="qcurve"/>
      <point x="341" y="614" type="line"/>
      <point x="323" y="616"/>
      <point x="288" y="622"/>
      <point x="270" y="622" type="qcurve" smooth="yes"/>
      <point x="245" y="622"/>
      <point x="216" y="603"/>
      <point x="216" y="576" type="qcurve" smooth="yes"/>
      <point x="216" y="479" type="line"/>
      <point x="326" y="479" type="line"/>
      <point x="326" y="377" type="line"/>
      <point x="216" y="377" type="line"/>
      <point x="216" y="1" type="line"/>
    </contour>
  </outline>
</glyph>
<glyph name="g" format="2">
  <advance width="559"/>
  <unicode hex="0067"/>
  <outline>
    <contour>
      <point x="55" y="-71" type="qcurve"/>
      <point x="160" y="-15" type="line"/>
      <point x="163" y="-23"/>
      <point x="168" y="-38"/>
      <point x="169" y="-46" type="qcurve"/>
      <point x="187" y="-69"/>
      <point x="250" y="-84"/>
      <point x="277" y="-84" type="qcurve" smooth="yes"/>
      <point x="331" y="-84"/>
      <point x="379" y="-34"/>
      <point x="385" y="18" type="qcurve"/>
      <point x="360" y="5"/>
      <point x="305" y="-9"/>
      <point x="277" y="-9" type="qcurve" smooth="yes"/>
      <point x="208" y="-9"/>
      <point x="121" y="33"/>
      <point x="72" y="108"/>
      <point x="53" y="210"/>
      <point x="53" y="270" type="qcurve" smooth="yes"/>
      <point x="53" y="331"/>
      <point x="71" y="433"/>
      <point x="120" y="506"/>
      <point x="208" y="547"/>
      <point x="277" y="547" type="qcurve" smooth="yes"/>
      <point x="340" y="547"/>
      <point x="396" y="516" type="qcurve"/>
      <point x="401" y="538" type="line"/>
      <point x="502" y="538" type="line"/>
      <point x="502" y="94" type="line" smooth="yes"/>
      <point x="502" y="34"/>
      <point x="483" y="-69"/>
      <point x="433" y="-144"/>
      <point x="346" y="-186"/>
      <point x="277" y="-186" type="qcurve" smooth="yes"/>
      <point x="231" y="-186"/>
      <point x="141" y="-161"/>
      <point x="104" y="-132" type="qcurve" smooth="yes"/>
      <point x="88" y="-119"/>
      <point x="66" y="-88"/>
    </contour>
    <contour>
      <point x="277" y="93" type="qcurve" smooth="yes"/>
      <point x="322" y="93"/>
      <point x="369" y="129"/>
      <point x="388" y="186"/>
      <point x="389" y="256"/>
      <point x="389" y="289" type="qcurve" smooth="yes"/>
      <point x="389" y="319"/>
      <point x="382" y="376"/>
      <point x="358" y="419"/>
      <point x="314" y="445"/>
      <point x="277" y="445" type="qcurve" smooth="yes"/>
      <point x="234" y="445"/>
      <point x="189" y="412"/>
      <point x="169" y="360"/>
      <point x="167" y="295"/>
      <point x="167" y="263" type="qcurve" smooth="yes"/>
      <point x="167" y="231"/>
      <point x="172" y="170"/>
      <point x="193" y="122"/>
      <point x="238" y="93"/>
    </contour>
  </outline>
</glyph>
<glyph name="h" format="2">
  <advance width="580"/>
  <unicode hex="0068"/>
  <outline>
    <contour>
      <point x="93" y="1" type="line"/>
      <point x="93" y="783" type="line"/>
      <point x="207" y="783" type="line"/>
      <point x="207" y="528" type="line"/>
      <point x="231" y="539"/>
      <point x="284" y="547"/>
      <point x="310" y="547" type="qcurve" smooth="yes"/>
      <point x="345" y="547"/>
      <point x="415" y="528"/>
      <point x="472" y="489"/>
      <point x="508" y="431"/>
      <point x="508" y="391" type="qcurve" smooth="yes"/>
      <point x="508" y="1" type="line"/>
      <point x="394" y="1" type="line"/>
      <point x="394" y="391" type="line" smooth="yes"/>
      <point x="394" y="408"/>
      <point x="375" y="430"/>
      <point x="347" y="443"/>
      <point x="315" y="449"/>
      <point x="302" y="449" type="qcurve" smooth="yes"/>
      <point x="289" y="449"/>
      <point x="256" y="443"/>
      <point x="227" y="430"/>
      <point x="207" y="408"/>
      <point x="207" y="391" type="qcurve" smooth="yes"/>
      <point x="207" y="1" type="line"/>
    </contour>
  </outline>
</glyph>
<glyph name="i" format="2">
  <advance width="274"/>
  <unicode hex="0069"/>
  <outline>
    <contour>
      <point x="80" y="590" type="line"/>
      <point x="80" y="714" type="line"/>
      <point x="195" y="714" type="line"/>
      <point x="195" y="590" type="line"/>
    </contour>
    <contour>
      <point x="80" y="1" type="line"/>
      <point x="80" y="538" type="line"/>
      <point x="195" y="538" type="line"/>
      <point x="195" y="1" type="line"/>
    </contour>
  </outline>
</glyph>
<glyph name="j" format="2">
  <advance width="338"/>
  <unicode hex="006A"/>
  <outline>
    <contour>
      <point x="152" y="590" type="line"/>
      <point x="152" y="714" type="line"/>
      <point x="265" y="714" type="line"/>
      <point x="265" y="590" type="line"/>
    </contour>
    <contour>
      <point x="7" y="-173" type="qcurve"/>
      <point x="27" y="-66" type="line"/>
      <point x="45" y="-70"/>
      <point x="81" y="-75"/>
      <point x="99" y="-75" type="qcurve" smooth="yes"/>
      <point x="124" y="-75"/>
      <point x="152" y="-56"/>
      <point x="152" y="-29" type="qcurve" smooth="yes"/>
      <point x="152" y="538" type="line"/>
      <point x="265" y="538" type="line"/>
      <point x="265" y="-35" type="line" smooth="yes"/>
      <point x="265" y="-69"/>
      <point x="237" y="-122"/>
      <point x="190" y="-158"/>
      <point x="131" y="-177"/>
      <point x="99" y="-177" type="qcurve" smooth="yes"/>
      <point x="76" y="-177"/>
      <point x="30" y="-173"/>
    </contour>
  </outline>
</glyph>
<glyph name="k" format="2">
  <advance width="585"/>
  <unicode hex="006B"/>
  <outline>
    <contour>
      <point x="93" y="1" type="line"/>
      <point x="93" y="783" type="line"/>
      <point x="207" y="783" type="line"/>
      <point x="207" y="355" type="line"/>
      <point x="397" y="538" type="line"/>
      <point x="553" y="538" type="line"/>
      <point x="308" y="300" type="line"/>
      <point x="539" y="1" type="line"/>
      <point x="401" y="1" type="line"/>
      <point x="226" y="224" type="line"/>
      <point x="207" y="207" type="line"/>
      <point x="207" y="1" type="line"/>
    </contour>
  </outline>
</glyph>
<glyph name="l" format="2">
  <advance width="293"/>
  <unicode hex="006C"/>
  <outline>
    <contour>
      <point x="86" y="1" type="line"/>
      <point x="86" y="715" type="line"/>
      <point x="201" y="715" type="line"/>
      <point x="201" y="1" type="line"/>
    </contour>
  </outline>
</glyph>
<glyph name="m" format="2">
  <advance width="726"/>
  <unicode hex="006D"/>
  <outline>
    <contour>
      <point x="72" y="1" type="line"/>
      <point x="72" y="538" type="line"/>
      <point x="173" y="538" type="line"/>
      <point x="176" y="527" type="line"/>
      <point x="215" y="548"/>
      <point x="260" y="548" type="qcurve" smooth="yes"/>
      <point x="288" y="548"/>
      <point x="340" y="533"/>
      <point x="363" y="516" type="qcurve"/>
      <point x="389" y="533"/>
      <point x="448" y="547"/>
      <point x="478" y="547" type="qcurve" smooth="yes"/>
      <point x="508" y="547"/>
      <point x="570" y="532"/>
      <point x="621" y="499"/>
      <point x="653" y="449"/>
      <point x="653" y="414" type="qcurve" smooth="yes"/>
      <point x="653" y="1" type="line"/>
      <point x="538" y="1" type="line"/>
      <point x="538" y="414" type="line" smooth="yes"/>
      <point x="538" y="424"/>
      <point x="525" y="437"/>
      <point x="505" y="444"/>
      <point x="485" y="447"/>
      <point x="477" y="447" type="qcurve" smooth="yes"/>
      <point x="470" y="447"/>
      <point x="449" y="444"/>
      <point x="431" y="437"/>
      <point x="418" y="424"/>
      <point x="418" y="414" type="qcurve" smooth="yes"/>
      <point x="418" y="1" type="line"/>
      <point x="307" y="1" type="line"/>
      <point x="307" y="414" type="line" smooth="yes"/>
      <point x="307" y="424"/>
      <point x="294" y="437"/>
      <point x="275" y="444"/>
      <point x="255" y="447"/>
      <point x="247" y="447" type="qcurve" smooth="yes"/>
      <point x="240" y="447"/>
      <point x="219" y="444"/>
      <point x="200" y="437"/>
      <point x="187" y="424"/>
      <point x="187" y="414" type="qcurve" smooth="yes"/>
      <point x="187" y="1" type="line"/>
    </contour>
  </outline>
</glyph>
<glyph name="n" format="2">
  <advance width="560"/>
  <unicode hex="006E"/>
  <outline>
    <contour>
      <point x="72" y="2" type="line"/>
      <point x="72" y="538" type="line"/>
      <point x="173" y="538" type="line"/>
      <point x="177" y="521" type="line"/>
      <point x="203" y="535"/>
      <point x="260" y="546"/>
      <point x="289" y="546" type="qcurve" smooth="yes"/>
      <point x="323" y="546"/>
      <point x="394" y="526"/>
      <point x="451" y="486"/>
      <point x="487" y="427"/>
      <point x="487" y="389" type="qcurve" smooth="yes"/>
      <point x="487" y="1" type="line"/>
      <point x="373" y="1" type="line"/>
      <point x="373" y="389" type="line" smooth="yes"/>
      <point x="373" y="406"/>
      <point x="354" y="428"/>
      <point x="326" y="441"/>
      <point x="294" y="447"/>
      <point x="281" y="447" type="qcurve" smooth="yes"/>
      <point x="268" y="447"/>
      <point x="235" y="441"/>
      <point x="207" y="428"/>
      <point x="187" y="406"/>
      <point x="187" y="389" type="qcurve" smooth="yes"/>
      <point x="187" y="2" type="line"/>
    </contour>
  </outline>
</glyph>
<glyph name="o" format="2">
  <advance width="559"/>
  <unicode hex="006F"/>
  <outline>
    <contour>
      <point x="278" y="90" type="qcurve" smooth="yes"/>
      <point x="310" y="90"/>
      <point x="353" y="111"/>
      <point x="378" y="147"/>
      <point x="388" y="196"/>
      <point x="388" y="224" type="qcurve" smooth="yes"/>
      <point x="388" y="311" type="line" smooth="yes"/>
      <point x="388" y="340"/>
      <point x="378" y="389"/>
      <point x="352" y="425"/>
      <point x="310" y="445"/>
      <point x="278" y="445" type="qcurve" smooth="yes"/>
      <point x="244" y="445"/>
      <point x="201" y="422"/>
      <point x="177" y="383"/>
      <point x="168" y="331"/>
      <point x="168" y="302" type="qcurve" smooth="yes"/>
      <point x="168" y="222" type="line" smooth="yes"/>
      <point x="168" y="193"/>
      <point x="178" y="145"/>
      <point x="203" y="110"/>
      <point x="246" y="90"/>
    </contour>
    <contour>
      <point x="54" y="267" type="qcurve" smooth="yes"/>
      <point x="54" y="327"/>
      <point x="73" y="430"/>
      <point x="122" y="505"/>
      <point x="209" y="547"/>
      <point x="278" y="547" type="qcurve" smooth="yes"/>
      <point x="347" y="547"/>
      <point x="434" y="505"/>
      <point x="484" y="430"/>
      <point x="503" y="327"/>
      <point x="503" y="267" type="qcurve" smooth="yes"/>
      <point x="503" y="207"/>
      <point x="484" y="105"/>
      <point x="433" y="30"/>
      <point x="346" y="-12"/>
      <point x="278" y="-12" type="qcurve" smooth="yes"/>
      <point x="209" y="-12"/>
      <point x="122" y="30"/>
      <point x="73" y="105"/>
      <point x="54" y="207"/>
    </contour>
  </outline>
</glyph>
<glyph name="p" format="2">
  <advance width="559"/>
  <unicode hex="0070"/>
  <outline>
    <contour>
      <point x="63" y="-177" type="line"/>
      <point x="63" y="538" type="line"/>
      <point x="164" y="538" type="line"/>
      <point x="169" y="516" type="line"/>
      <point x="196" y="530"/>
      <point x="256" y="547"/>
      <point x="287" y="547" type="qcurve" smooth="yes"/>
      <point x="356" y="547"/>
      <point x="443" y="506"/>
      <point x="493" y="432"/>
      <point x="512" y="330"/>
      <point x="512" y="270" type="qcurve" smooth="yes"/>
      <point x="512" y="210"/>
      <point x="493" y="107"/>
      <point x="444" y="33"/>
      <point x="356" y="-9"/>
      <point x="287" y="-9" type="qcurve" smooth="yes"/>
      <point x="258" y="-9"/>
      <point x="203" y="5"/>
      <point x="178" y="19" type="qcurve"/>
      <point x="178" y="-177" type="line"/>
    </contour>
    <contour>
      <point x="287" y="93" type="qcurve" smooth="yes"/>
      <point x="326" y="93"/>
      <point x="371" y="121"/>
      <point x="394" y="168"/>
      <point x="399" y="228"/>
      <point x="399" y="260" type="qcurve" smooth="yes"/>
      <point x="399" y="293"/>
      <point x="397" y="359"/>
      <point x="376" y="412"/>
      <point x="331" y="445"/>
      <point x="287" y="445" type="qcurve" smooth="yes"/>
      <point x="254" y="445"/>
      <point x="211" y="423"/>
      <point x="186" y="385"/>
      <point x="177" y="334"/>
      <point x="177" y="305" type="qcurve" smooth="yes"/>
      <point x="177" y="226" type="line" smooth="yes"/>
      <point x="177" y="198"/>
      <point x="187" y="149"/>
      <point x="212" y="113"/>
      <point x="255" y="93"/>
    </contour>
  </outline>
</glyph>
<glyph name="q" format="2">
  <advance width="559"/>
  <unicode hex="0071"/>
  <outline>
    <contour>
      <point x="53" y="270" type="qcurve" smooth="yes"/>
      <point x="53" y="330"/>
      <point x="72" y="431"/>
      <point x="122" y="505"/>
      <point x="209" y="547"/>
      <point x="277" y="547" type="qcurve" smooth="yes"/>
      <point x="340" y="547"/>
      <point x="396" y="516" type="qcurve"/>
      <point x="401" y="538" type="line"/>
      <point x="502" y="538" type="line"/>
      <point x="502" y="-177" type="line"/>
      <point x="387" y="-177" type="line"/>
      <point x="387" y="19" type="line"/>
      <point x="362" y="5"/>
      <point x="306" y="-9"/>
      <point x="277" y="-9" type="qcurve" smooth="yes"/>
      <point x="208" y="-9"/>
      <point x="121" y="33"/>
      <point x="72" y="108"/>
      <point x="53" y="210"/>
    </contour>
    <contour>
      <point x="277" y="93" type="qcurve" smooth="yes"/>
      <point x="322" y="93"/>
      <point x="369" y="129"/>
      <point x="388" y="186"/>
      <point x="389" y="256"/>
      <point x="389" y="289" type="qcurve" smooth="yes"/>
      <point x="389" y="319"/>
      <point x="382" y="376"/>
      <point x="358" y="419"/>
      <point x="314" y="445"/>
      <point x="277" y="445" type="qcurve" smooth="yes"/>
      <point x="234" y="445"/>
      <point x="189" y="412"/>
      <point x="169" y="360"/>
      <point x="167" y="295"/>
      <point x="167" y="263" type="qcurve" smooth="yes"/>
      <point x="167" y="231"/>
      <point x="172" y="170"/>
      <point x="193" y="122"/>
      <point x="238" y="93"/>
    </contour>
  </outline>
</glyph>
<glyph name="r" format="2">
  <advance width="475"/>
  <unicode hex="0072"/>
  <outline>
    <contour>
      <point x="85" y="1" type="line"/>
      <point x="85" y="538" type="line"/>
      <point x="184" y="538" type="line"/>
      <point x="188" y="517" type="line"/>
      <point x="216" y="532"/>
      <point x="278" y="543"/>
      <point x="309" y="543" type="qcurve" smooth="yes"/>
      <point x="351" y="543"/>
      <point x="415" y="528"/>
      <point x="451" y="505" type="qcurve"/>
      <point x="404" y="413" type="line"/>
      <point x="389" y="419"/>
      <point x="369" y="430"/>
      <point x="349" y="437"/>
      <point x="326" y="441"/>
      <point x="309" y="441" type="qcurve" smooth="yes"/>
      <point x="267" y="441"/>
      <point x="222" y="409"/>
      <point x="203" y="358"/>
      <point x="200" y="295"/>
      <point x="200" y="263" type="qcurve" smooth="yes"/>
      <point x="200" y="1" type="line"/>
    </contour>
  </outline>
</glyph>
<glyph name="s" format="2">
  <advance width="495"/>
  <unicode hex="0073"/>
  <outline>
    <contour>
      <point x="51" y="59" type="qcurve"/>
      <point x="43" y="69" type="line"/>
      <point x="118" y="128" type="line"/>
      <point x="133" y="124"/>
      <point x="153" y="106"/>
      <point x="167" y="101" type="qcurve" smooth="yes"/>
      <point x="185" y="94"/>
      <point x="224" y="90"/>
      <point x="243" y="90" type="qcurve" smooth="yes"/>
      <point x="258" y="90"/>
      <point x="293" y="97"/>
      <point x="321" y="113"/>
      <point x="340" y="138"/>
      <point x="340" y="157" type="qcurve" smooth="yes"/>
      <point x="340" y="171"/>
      <point x="332" y="201"/>
      <point x="318" y="207" type="qcurve" smooth="yes"/>
      <point x="304" y="213"/>
      <point x="270" y="219"/>
      <point x="256" y="223" type="qcurve" smooth="yes"/>
      <point x="223" y="231"/>
      <point x="154" y="252"/>
      <point x="98" y="288"/>
      <point x="62" y="343"/>
      <point x="62" y="384" type="qcurve" smooth="yes"/>
      <point x="62" y="427"/>
      <point x="95" y="489"/>
      <point x="149" y="530"/>
      <point x="221" y="549"/>
      <point x="260" y="549" type="qcurve" smooth="yes"/>
      <point x="291" y="549"/>
      <point x="371" y="536"/>
      <point x="399" y="522" type="qcurve" smooth="yes"/>
      <point x="416" y="513"/>
      <point x="432" y="491"/>
      <point x="443" y="476" type="qcurve"/>
      <point x="364" y="408" type="line"/>
      <point x="349" y="422"/>
      <point x="327" y="438"/>
      <point x="304" y="446"/>
      <point x="277" y="447"/>
      <point x="257" y="447" type="qcurve" smooth="yes"/>
      <point x="224" y="447"/>
      <point x="176" y="422"/>
      <point x="176" y="384" type="qcurve" smooth="yes"/>
      <point x="176" y="361"/>
      <point x="217" y="339"/>
      <point x="279" y="325"/>
      <point x="350" y="309"/>
      <point x="412" y="275"/>
      <point x="453" y="213"/>
      <point x="453" y="160" type="qcurve" smooth="yes"/>
      <point x="453" y="118"/>
      <point x="415" y="53"/>
      <point x="355" y="10"/>
      <point x="280" y="-12"/>
      <point x="242" y="-12" type="qcurve" smooth="yes"/>
      <point x="224" y="-12"/>
      <point x="165" y="-4"/>
      <point x="106" y="13"/>
      <point x="58" y="40"/>
    </contour>
  </outline>
</glyph>
<glyph name="t" format="2">
  <advance width="386"/>
  <unicode hex="0074"/>
  <outline>
    <contour>
      <point x="95" y="436" type="line"/>
      <point x="52" y="436" type="line"/>
      <point x="52" y="538" type="line"/>
      <point x="95" y="538" type="line"/>
      <point x="95" y="714" type="line"/>
      <point x="208" y="714" type="line"/>
      <point x="208" y="538" type="line"/>
      <point x="338" y="538" type="line"/>
      <point x="338" y="436" type="line"/>
      <point x="208" y="436" type="line"/>
      <point x="208" y="143" type="line" smooth="yes"/>
      <point x="208" y="116"/>
      <point x="237" y="97"/>
      <point x="262" y="97" type="qcurve" smooth="yes"/>
      <point x="280" y="97"/>
      <point x="315" y="103"/>
      <point x="333" y="105" type="qcurve"/>
      <point x="352" y="4" type="line"/>
      <point x="329" y="2"/>
      <point x="285" y="-5"/>
      <point x="262" y="-5" type="qcurve" smooth="yes"/>
      <point x="231" y="-5"/>
      <point x="170" y="13"/>
      <point x="124" y="49"/>
      <point x="95" y="102"/>
      <point x="95" y="136" type="qcurve" smooth="yes"/>
    </contour>
  </outline>
</glyph>
<glyph name="u" format="2">
  <advance width="560"/>
  <unicode hex="0075"/>
  <outline>
    <contour>
      <point x="72" y="149" type="qcurve" smooth="yes"/>
      <point x="72" y="538" type="line"/>
      <point x="187" y="538" type="line"/>
      <point x="187" y="149" type="line" smooth="yes"/>
      <point x="187" y="133"/>
      <point x="207" y="110"/>
      <point x="235" y="97"/>
      <point x="268" y="91"/>
      <point x="281" y="91" type="qcurve" smooth="yes"/>
      <point x="294" y="91"/>
      <point x="326" y="97"/>
      <point x="354" y="111"/>
      <point x="373" y="133"/>
      <point x="373" y="149" type="qcurve" smooth="yes"/>
      <point x="373" y="538" type="line"/>
      <point x="487" y="538" type="line"/>
      <point x="487" y="1" type="line"/>
      <point x="389" y="1" type="line"/>
      <point x="384" y="16" type="line"/>
      <point x="331" y="-9"/>
      <point x="274" y="-9" type="qcurve" smooth="yes"/>
      <point x="239" y="-9"/>
      <point x="167" y="10"/>
      <point x="109" y="49"/>
      <point x="72" y="109"/>
    </contour>
  </outline>
</glyph>
<glyph name="v" format="2">
  <advance width="580"/>
  <unicode hex="0076"/>
  <outline>
    <contour>
      <point x="243" y="1" type="line"/>
      <point x="43" y="538" type="line"/>
      <point x="160" y="538" type="line"/>
      <point x="289" y="189" type="line"/>
      <point x="418" y="538" type="line"/>
      <point x="537" y="538" type="line"/>
      <point x="336" y="1" type="line"/>
    </contour>
  </outline>
</glyph>
<glyph name="w" format="2">
  <advance width="782"/>
  <unicode hex="0077"/>
  <outline>
    <contour>
      <point x="200" y="1" type="line"/>
      <point x="43" y="538" type="line"/>
      <point x="161" y="538" type="line"/>
      <point x="251" y="227" type="line"/>
      <point x="338" y="538" type="line"/>
      <point x="443" y="538" type="line"/>
      <point x="533" y="227" type="line"/>
      <point x="621" y="538" type="line"/>
      <point x="739" y="538" type="line"/>
      <point x="581" y="1" type="line"/>
      <point x="481" y="1" type="line"/>
      <point x="392" y="318" type="line"/>
      <point x="300" y="1" type="line"/>
    </contour>
  </outline>
</glyph>
<glyph name="x" format="2">
  <advance width="615"/>
  <unicode hex="0078"/>
  <outline>
    <contour>
      <point x="43" y="1" type="line"/>
      <point x="240" y="270" type="line"/>
      <point x="43" y="539" type="line"/>
      <point x="179" y="539" type="line"/>
      <point x="307" y="357" type="line"/>
      <point x="434" y="539" type="line"/>
      <point x="572" y="539" type="line"/>
      <point x="376" y="270" type="line"/>
      <point x="573" y="1" type="line"/>
      <point x="436" y="1" type="line"/>
      <point x="307" y="183" type="line"/>
      <point x="178" y="1" type="line"/>
    </contour>
  </outline>
</glyph>
<glyph name="y" format="2">
  <advance width="560"/>
  <unicode hex="0079"/>
  <outline>
    <contour>
      <point x="128" y="-177" type="line"/>
      <point x="210" y="34" type="line"/>
      <point x="22" y="538" type="line"/>
      <point x="140" y="538" type="line"/>
      <point x="268" y="188" type="line"/>
      <point x="397" y="538" type="line"/>
      <point x="517" y="538" type="line"/>
      <point x="251" y="-177" type="line"/>
    </contour>
  </outline>
</glyph>
<glyph name="z" format="2">
  <advance width="501"/>
  <unicode hex="007A"/>
  <outline>
    <contour>
      <point x="52" y="1" type="line"/>
      <point x="52" y="83" type="line" smooth="yes"/>
      <point x="52" y="85"/>
      <point x="54" y="91"/>
      <point x="54" y="93" type="qcurve"/>
      <point x="302" y="436" type="line"/>
      <point x="57" y="436" type="line"/>
      <point x="57" y="538" type="line"/>
      <point x="444" y="538" type="line"/>
      <point x="444" y="452" type="line" smooth="yes"/>
      <point x="444" y="446"/>
      <point x="442" y="443" type="qcurve" smooth="yes"/>
      <point x="196" y="103" type="line"/>
      <point x="449" y="103" type="line"/>
      <point x="449" y="1" type="line"/>
    </contour>
  </outline>
</glyph>
<glyph name="braceleft" format="2">
  <advance width="450"/>
  <unicode hex="007B"/>
  <outline>
    <contour>
      <point x="60" y="420" type="line"/>
      <point x="172" y="528" type="line"/>
      <point x="172" y="717" type="line"/>
      <point x="174" y="717" type="line"/>
      <point x="183" y="783"/>
      <point x="263" y="881"/>
      <point x="325" y="906" type="qcurve" smooth="yes"/>
      <point x="354" y="918"/>
      <point x="417" y="924"/>
      <point x="449" y="924" type="qcurve"/>
      <point x="449" y="827" type="line"/>
      <point x="363" y="827"/>
      <point x="284" y="753"/>
      <point x="283" y="666" type="qcurve" smooth="yes"/>
      <point x="282" y="491" type="line"/>
      <point x="206" y="420" type="line"/>
      <point x="282" y="347" type="line"/>
      <point x="282" y="158" type="line"/>
      <point x="262" y="173" type="line"/>
      <point x="271" y="132"/>
      <point x="299" y="71"/>
      <point x="342" y="30"/>
      <point x="405" y="10"/>
      <point x="449" y="10" type="qcurve"/>
      <point x="449" y="-86" type="line"/>
      <point x="419" y="-86" type="line" smooth="yes"/>
      <point x="372" y="-86"/>
      <point x="286" y="-54"/>
      <point x="218" y="5"/>
      <point x="176" y="86"/>
      <point x="173" y="134" type="qcurve"/>
      <point x="193" y="121" type="line"/>
      <point x="186" y="129"/>
      <point x="177" y="180"/>
      <point x="173" y="241"/>
      <point x="172" y="298"/>
      <point x="172" y="311" type="qcurve"/>
    </contour>
  </outline>
</glyph>
<glyph name="bar" format="2">
  <advance width="230"/>
  <unicode hex="007C"/>
  <outline>
    <contour>
      <point x="60" y="-39" type="line"/>
      <point x="60" y="879" type="line"/>
      <point x="169" y="879" type="line"/>
      <point x="169" y="-39" type="line"/>
    </contour>
  </outline>
</glyph>
<glyph name="braceright" format="2">
  <advance width="449"/>
  <unicode hex="007D"/>
  <outline>
    <contour>
      <point x="0" y="-86" type="qcurve"/>
      <point x="0" y="11" type="line"/>
      <point x="86" y="11"/>
      <point x="167" y="87"/>
      <point x="168" y="174" type="qcurve" smooth="yes"/>
      <point x="169" y="347" type="line"/>
      <point x="244" y="420" type="line"/>
      <point x="169" y="491" type="line"/>
      <point x="169" y="681" type="line"/>
      <point x="189" y="667" type="line"/>
      <point x="180" y="709"/>
      <point x="151" y="769"/>
      <point x="107" y="809"/>
      <point x="44" y="828"/>
      <point x="0" y="828" type="qcurve"/>
      <point x="0" y="925" type="line"/>
      <point x="32" y="925" type="line" smooth="yes"/>
      <point x="78" y="925"/>
      <point x="164" y="892"/>
      <point x="232" y="833"/>
      <point x="275" y="752"/>
      <point x="276" y="704" type="qcurve"/>
      <point x="256" y="718" type="line"/>
      <point x="264" y="710"/>
      <point x="272" y="658"/>
      <point x="276" y="597"/>
      <point x="277" y="541"/>
      <point x="277" y="528" type="qcurve"/>
      <point x="389" y="420" type="line"/>
      <point x="277" y="310" type="line"/>
      <point x="277" y="122" type="line"/>
      <point x="275" y="122" type="line"/>
      <point x="268" y="58"/>
      <point x="186" y="-45"/>
      <point x="126" y="-68" type="qcurve" smooth="yes"/>
      <point x="96" y="-80"/>
      <point x="32" y="-86"/>
    </contour>
  </outline>
</glyph>
<glyph name="asciitilde" format="2">
  <advance width="580"/>
  <unicode hex="007E"/>
  <outline>
    <contour>
      <point x="20" y="192" type="line"/>
      <point x="20" y="218" type="line" smooth="yes"/>
      <point x="20" y="253"/>
      <point x="49" y="313"/>
      <point x="97" y="356"/>
      <point x="159" y="380"/>
      <point x="193" y="380" type="qcurve" smooth="yes"/>
      <point x="234" y="380"/>
      <point x="290" y="351"/>
      <point x="332" y="317"/>
      <point x="366" y="288"/>
      <point x="386" y="288" type="qcurve" smooth="yes"/>
      <point x="407" y="288"/>
      <point x="433" y="304"/>
      <point x="447" y="329"/>
      <point x="451" y="362"/>
      <point x="451" y="380" type="qcurve"/>
      <point x="559" y="380" type="line"/>
      <point x="559" y="355" type="line" smooth="yes"/>
      <point x="559" y="320"/>
      <point x="531" y="260"/>
      <point x="483" y="217"/>
      <point x="420" y="192"/>
      <point x="386" y="192" type="qcurve" smooth="yes"/>
      <point x="344" y="192"/>
      <point x="289" y="220"/>
      <point x="248" y="255"/>
      <point x="214" y="283"/>
      <point x="193" y="283" type="qcurve" smooth="yes"/>
      <point x="172" y="283"/>
      <point x="146" y="268"/>
      <point x="133" y="242"/>
      <point x="129" y="210"/>
      <point x="129" y="192" type="qcurve"/>
    </contour>
  </outline>
</glyph>
<glyph name="uni0080" format="2">
  <advance width="561"/>
  <unicode hex="0080"/>
  <unicode hex="20AC"/>
  <unicode hex="F700"/>
  <outline>
    <contour>
      <point x="102" y="499" type="qcurve"/>
      <point x="24" y="573" type="line"/>
      <point x="48" y="598"/>
      <point x="101" y="627"/>
      <point x="158" y="643"/>
      <point x="219" y="648"/>
      <point x="252" y="648" type="qcurve" smooth="yes"/>
      <point x="288" y="648"/>
      <point x="361" y="640"/>
      <point x="394" y="623" type="qcurve"/>
      <point x="394" y="648" type="line"/>
      <point x="510" y="648" type="line"/>
      <point x="510" y="622" type="line" smooth="yes"/>
      <point x="510" y="600"/>
      <point x="500" y="559"/>
      <point x="487" y="541" type="qcurve"/>
      <point x="498" y="524"/>
      <point x="510" y="484"/>
      <point x="510" y="464" type="qcurve" smooth="yes"/>
      <point x="510" y="1" type="line"/>
      <point x="394" y="1" type="line"/>
      <point x="394" y="194" type="line" smooth="yes"/>
      <point x="394" y="224"/>
      <point x="358" y="257"/>
      <point x="307" y="274"/>
      <point x="250" y="278"/>
      <point x="229" y="278" type="qcurve"/>
      <point x="229" y="380" type="line"/>
      <point x="260" y="380" type="line" smooth="yes"/>
      <point x="294" y="380"/>
      <point x="362" y="369"/>
      <point x="394" y="355" type="qcurve"/>
      <point x="394" y="464" type="line" smooth="yes"/>
      <point x="394" y="472"/>
      <point x="388" y="489"/>
      <point x="383" y="496" type="qcurve" smooth="yes"/>
      <point x="372" y="513"/>
      <point x="342" y="533"/>
      <point x="307" y="544"/>
      <point x="270" y="547"/>
      <point x="252" y="547" type="qcurve" smooth="yes"/>
      <point x="241" y="547"/>
      <point x="207" y="545"/>
      <point x="171" y="541"/>
      <point x="139" y="532"/>
      <point x="130" y="526" type="qcurve" smooth="yes"/>
      <point x="122" y="520"/>
      <point x="109" y="506"/>
    </contour>
  </outline>
</glyph>
<glyph name="uni0081" format="2">
  <advance width="50"/>
  <unicode hex="0081"/>
  <unicode hex="F701"/>
  <outline>
    <contour>
      <point x="-555" y="682" type="line"/>
      <point x="-555" y="784" type="line"/>
      <point x="-110" y="784" type="line"/>
      <point x="-110" y="682" type="line"/>
    </contour>
  </outline>
</glyph>
<glyph name="uni0082" format="2">
  <advance width="50"/>
  <unicode hex="0082"/>
  <unicode hex="201A"/>
  <unicode hex="F702"/>
  <outline>
    <contour>
      <point x="-555" y="682" type="line"/>
      <point x="-555" y="784" type="line"/>
      <point x="-236" y="784" type="line" smooth="yes"/>
      <point x="-228" y="784"/>
      <point x="-222" y="810"/>
      <point x="-222" y="845"/>
      <point x="-224" y="877"/>
      <point x="-224" y="883" type="qcurve"/>
      <point x="-110" y="883" type="line"/>
      <point x="-110" y="801" type="line" smooth="yes"/>
      <point x="-110" y="775"/>
      <point x="-131" y="731"/>
      <point x="-165" y="700"/>
      <point x="-211" y="682"/>
      <point x="-236" y="682" type="qcurve" smooth="yes"/>
    </contour>
  </outline>
</glyph>
<glyph name="uni0083" format="2">
  <advance width="50"/>
  <unicode hex="0083"/>
  <unicode hex="0192"/>
  <unicode hex="F703"/>
  <outline>
    <contour>
      <point x="-556" y="682" type="line"/>
      <point x="-556" y="784" type="line"/>
      <point x="-346" y="784" type="line"/>
      <point x="-346" y="809"/>
      <point x="-327" y="852"/>
      <point x="-294" y="884"/>
      <point x="-250" y="902"/>
      <point x="-225" y="902" type="qcurve" smooth="yes"/>
      <point x="-203" y="902"/>
      <point x="-161" y="887"/>
      <point x="-130" y="859"/>
      <point x="-111" y="820"/>
      <point x="-111" y="796" type="qcurve" smooth="yes"/>
      <point x="-111" y="772"/>
      <point x="-129" y="730"/>
      <point x="-161" y="700"/>
      <point x="-202" y="682"/>
      <point x="-226" y="682" type="qcurve" smooth="yes"/>
    </contour>
  </outline>
</glyph>
<glyph name="uni0084" format="2">
  <advance width="50"/>
  <unicode hex="0084"/>
  <unicode hex="201E"/>
  <unicode hex="F704"/>
  <outline>
    <contour>
      <point x="-243" y="783" type="line"/>
      <point x="-217" y="783" type="line"/>
      <point x="-217" y="883" type="line"/>
      <point x="-110" y="883" type="line"/>
      <point x="-110" y="801" type="line" smooth="yes"/>
      <point x="-110" y="775"/>
      <point x="-131" y="731"/>
      <point x="-165" y="700"/>
      <point x="-211" y="682"/>
      <point x="-236" y="682" type="qcurve" smooth="yes"/>
      <point x="-555" y="682" type="line"/>
      <point x="-555" y="784" type="line"/>
      <point x="-363" y="784" type="line" smooth="yes"/>
      <point x="-356" y="784"/>
      <point x="-351" y="811"/>
      <point x="-350" y="845"/>
      <point x="-352" y="877"/>
      <point x="-352" y="883" type="qcurve"/>
      <point x="-243" y="883" type="line"/>
    </contour>
  </outline>
</glyph>
<glyph name="uni0085" format="2">
  <advance width="531"/>
  <unicode hex="0085"/>
  <unicode hex="2026"/>
  <outline>
    <contour>
      <point x="339" y="59" type="qcurve" smooth="yes"/>
      <point x="339" y="85"/>
      <point x="381" y="119"/>
      <point x="406" y="119" type="qcurve" smooth="yes"/>
      <point x="432" y="119"/>
      <point x="470" y="85"/>
      <point x="470" y="59" type="qcurve" smooth="yes"/>
      <point x="470" y="33"/>
      <point x="431" y="1"/>
      <point x="406" y="1" type="qcurve" smooth="yes"/>
      <point x="381" y="1"/>
      <point x="339" y="32"/>
    </contour>
    <contour>
      <point x="200" y="59" type="qcurve" smooth="yes"/>
      <point x="200" y="86"/>
      <point x="240" y="119"/>
      <point x="266" y="119" type="qcurve" smooth="yes"/>
      <point x="291" y="119"/>
      <point x="331" y="85"/>
      <point x="331" y="59" type="qcurve" smooth="yes"/>
      <point x="331" y="33"/>
      <point x="291" y="1"/>
      <point x="266" y="1" type="qcurve" smooth="yes"/>
      <point x="240" y="1"/>
      <point x="200" y="32"/>
    </contour>
    <contour>
      <point x="60" y="59" type="qcurve" smooth="yes"/>
      <point x="60" y="85"/>
      <point x="102" y="119"/>
      <point x="127" y="119" type="qcurve" smooth="yes"/>
      <point x="153" y="119"/>
      <point x="192" y="86"/>
      <point x="192" y="59" type="qcurve" smooth="yes"/>
      <point x="192" y="33"/>
      <point x="152" y="1"/>
      <point x="127" y="1" type="qcurve" smooth="yes"/>
      <point x="102" y="1"/>
      <point x="60" y="32"/>
    </contour>
  </outline>
</glyph>
<glyph name="uni0086" format="2">
  <advance width="62"/>
  <unicode hex="0086"/>
  <unicode hex="2020"/>
  <unicode hex="F705"/>
  <outline>
    <contour>
      <point x="-254" y="664" type="line"/>
      <point x="-254" y="885" type="line"/>
      <point x="-139" y="885" type="line"/>
      <point x="-139" y="664" type="line"/>
    </contour>
  </outline>
</glyph>
<glyph name="uni0087" format="2">
  <advance width="51"/>
  <unicode hex="0087"/>
  <unicode hex="2021"/>
  <unicode hex="F706"/>
  <outline>
    <contour>
      <point x="-462" y="782" type="line"/>
      <point x="-462" y="877" type="line"/>
      <point x="-341" y="877" type="line" smooth="yes"/>
      <point x="-320" y="877"/>
      <point x="-298" y="862"/>
      <point x="-289" y="837"/>
      <point x="-288" y="806"/>
      <point x="-288" y="790" type="qcurve" smooth="yes"/>
      <point x="-288" y="780"/>
      <point x="-284" y="759"/>
      <point x="-271" y="759" type="qcurve" smooth="yes"/>
      <point x="-30" y="759" type="line"/>
      <point x="-30" y="664" type="line"/>
      <point x="-271" y="664" type="line" smooth="yes"/>
      <point x="-297" y="664"/>
      <point x="-343" y="681"/>
      <point x="-376" y="711"/>
      <point x="-395" y="755"/>
      <point x="-395" y="782" type="qcurve"/>
    </contour>
  </outline>
</glyph>
<glyph name="uni0088" format="2">
  <advance width="50"/>
  <unicode hex="0088"/>
  <unicode hex="02C6"/>
  <unicode hex="F707"/>
  <outline>
    <contour>
      <point x="-550" y="656" type="line"/>
      <point x="-554" y="675"/>
      <point x="-560" y="713"/>
      <point x="-560" y="733" type="qcurve" smooth="yes"/>
      <point x="-560" y="760"/>
      <point x="-545" y="812"/>
      <point x="-515" y="854"/>
      <point x="-470" y="879"/>
      <point x="-440" y="879" type="qcurve" smooth="yes"/>
      <point x="-420" y="879"/>
      <point x="-396" y="861"/>
      <point x="-383" y="847" type="qcurve"/>
      <point x="-369" y="861"/>
      <point x="-346" y="877"/>
      <point x="-326" y="877" type="qcurve" smooth="yes"/>
      <point x="-300" y="877"/>
      <point x="-259" y="858"/>
      <point x="-228" y="825"/>
      <point x="-208" y="783"/>
      <point x="-204" y="759" type="qcurve"/>
      <point x="-110" y="759" type="line"/>
      <point x="-110" y="664" type="line"/>
      <point x="-256" y="664" type="line" smooth="yes"/>
      <point x="-282" y="664"/>
      <point x="-303" y="686"/>
      <point x="-309" y="718"/>
      <point x="-311" y="755"/>
      <point x="-318" y="771" type="qcurve"/>
      <point x="-333" y="756"/>
      <point x="-360" y="730"/>
      <point x="-384" y="730" type="qcurve" smooth="yes"/>
      <point x="-406" y="730"/>
      <point x="-434" y="758"/>
      <point x="-448" y="772" type="qcurve"/>
      <point x="-451" y="763"/>
      <point x="-453" y="745"/>
      <point x="-453" y="735" type="qcurve" smooth="yes"/>
      <point x="-453" y="720"/>
      <point x="-447" y="691"/>
      <point x="-444" y="677" type="qcurve"/>
    </contour>
  </outline>
</glyph>
<glyph name="uni0089" format="2">
  <advance width="58"/>
  <unicode hex="0089"/>
  <unicode hex="2030"/>
  <unicode hex="F708"/>
  <outline>
    <contour>
      <point x="-338" y="727" type="line"/>
      <point x="-338" y="823" type="line"/>
      <point x="-273" y="823" type="line"/>
      <point x="-273" y="885" type="line"/>
      <point x="-167" y="885" type="line"/>
      <point x="-167" y="823" type="line"/>
      <point x="-100" y="823" type="line"/>
      <point x="-100" y="727" type="line"/>
      <point x="-167" y="727" type="line"/>
      <point x="-167" y="664" type="line"/>
      <point x="-273" y="664" type="line"/>
      <point x="-273" y="727" type="line"/>
    </contour>
  </outline>
</glyph>
<glyph name="uni008A" format="2">
  <advance width="53"/>
  <unicode hex="008A"/>
  <unicode hex="0160"/>
  <unicode hex="F709"/>
  <outline>
    <contour>
      <point x="-383" y="664" type="line"/>
      <point x="-383" y="765" type="line" smooth="yes"/>
      <point x="-383" y="791"/>
      <point x="-362" y="835"/>
      <point x="-327" y="866"/>
      <point x="-281" y="884"/>
      <point x="-256" y="884" type="qcurve" smooth="yes"/>
      <point x="-11" y="884" type="line"/>
      <point x="-11" y="782" type="line"/>
      <point x="-257" y="782" type="line" smooth="yes"/>
      <point x="-268" y="782"/>
      <point x="-269" y="757"/>
      <point x="-269" y="749" type="qcurve" smooth="yes"/>
      <point x="-269" y="664" type="line"/>
    </contour>
  </outline>
</glyph>
<glyph name="uni008B" format="2">
  <advance width="62"/>
  <unicode hex="008B"/>
  <unicode hex="2039"/>
  <unicode hex="F70A"/>
  <outline>
    <contour>
      <point x="-154" y="664" type="line"/>
      <point x="-154" y="885" type="line"/>
      <point x="-39" y="885" type="line"/>
      <point x="-39" y="664" type="line"/>
    </contour>
  </outline>
</glyph>
<glyph name="uni008C" format="2">
  <advance width="51"/>
  <unicode hex="008C"/>
  <unicode hex="0152"/>
  <unicode hex="F70B"/>
  <outline>
    <contour>
      <point x="-351" y="782" type="line"/>
      <point x="-351" y="877" type="line"/>
      <point x="-230" y="877" type="line" smooth="yes"/>
      <point x="-209" y="877"/>
      <point x="-187" y="862"/>
      <point x="-178" y="837"/>
      <point x="-177" y="806"/>
      <point x="-177" y="790" type="qcurve" smooth="yes"/>
      <point x="-177" y="782"/>
      <point x="-175" y="767"/>
      <point x="-169" y="761" type="qcurve" smooth="yes"/>
      <point x="-168" y="760"/>
      <point x="-134" y="758"/>
      <point x="-83" y="758"/>
      <point x="-23" y="758"/>
      <point x="31" y="759"/>
      <point x="74" y="759"/>
      <point x="81" y="759" type="qcurve"/>
      <point x="81" y="664" type="line"/>
      <point x="-160" y="664" type="line" smooth="yes"/>
      <point x="-186" y="664"/>
      <point x="-232" y="681"/>
      <point x="-265" y="711"/>
      <point x="-284" y="755"/>
      <point x="-284" y="782" type="qcurve"/>
    </contour>
  </outline>
</glyph>
<glyph name="uni008D" format="2">
  <advance width="50"/>
  <unicode hex="008D"/>
  <unicode hex="F70C"/>
  <outline>
    <contour>
      <point x="-370" y="656" type="line"/>
      <point x="-374" y="675"/>
      <point x="-380" y="713"/>
      <point x="-380" y="733" type="qcurve" smooth="yes"/>
      <point x="-380" y="760"/>
      <point x="-365" y="812"/>
      <point x="-335" y="854"/>
      <point x="-290" y="879"/>
      <point x="-260" y="879" type="qcurve" smooth="yes"/>
      <point x="-238" y="879"/>
      <point x="-216" y="861"/>
      <point x="-202" y="847" type="qcurve"/>
      <point x="-188" y="861"/>
      <point x="-165" y="877"/>
      <point x="-145" y="877" type="qcurve" smooth="yes"/>
      <point x="-119" y="877"/>
      <point x="-78" y="858"/>
      <point x="-47" y="825"/>
      <point x="-27" y="783"/>
      <point x="-23" y="759" type="qcurve"/>
      <point x="71" y="759" type="line"/>
      <point x="71" y="664" type="line"/>
      <point x="-75" y="664" type="line" smooth="yes"/>
      <point x="-101" y="664"/>
      <point x="-122" y="686"/>
      <point x="-129" y="718"/>
      <point x="-130" y="755"/>
      <point x="-137" y="771" type="qcurve"/>
      <point x="-153" y="756"/>
      <point x="-179" y="730"/>
      <point x="-203" y="730" type="qcurve" smooth="yes"/>
      <point x="-225" y="730"/>
      <point x="-254" y="758"/>
      <point x="-268" y="772" type="qcurve"/>
      <point x="-271" y="763"/>
      <point x="-273" y="745"/>
      <point x="-273" y="735" type="qcurve" smooth="yes"/>
      <point x="-273" y="720"/>
      <point x="-267" y="691"/>
      <point x="-264" y="677" type="qcurve"/>
    </contour>
  </outline>
</glyph>
<glyph name="uni008E" format="2">
  <advance width="58"/>
  <unicode hex="008E"/>
  <unicode hex="017D"/>
  <unicode hex="F70D"/>
  <outline>
    <contour>
      <point x="-213" y="727" type="line"/>
      <point x="-213" y="823" type="line"/>
      <point x="-147" y="823" type="line"/>
      <point x="-147" y="885" type="line"/>
      <point x="-41" y="885" type="line"/>
      <point x="-41" y="823" type="line"/>
      <point x="26" y="823" type="line"/>
      <point x="26" y="727" type="line"/>
      <point x="-41" y="727" type="line"/>
      <point x="-41" y="664" type="line"/>
      <point x="-147" y="664" type="line"/>
      <point x="-147" y="727" type="line"/>
    </contour>
  </outline>
</glyph>
<glyph name="uni008F" format="2">
  <advance width="55"/>
  <unicode hex="008F"/>
  <unicode hex="F70E"/>
  <outline>
    <contour>
      <point x="-340" y="664" type="line"/>
      <point x="-340" y="765" type="line" smooth="yes"/>
      <point x="-340" y="791"/>
      <point x="-319" y="835"/>
      <point x="-284" y="866"/>
      <point x="-238" y="884"/>
      <point x="-213" y="884" type="qcurve" smooth="yes"/>
      <point x="-6" y="884" type="line"/>
      <point x="-6" y="782" type="line"/>
      <point x="-214" y="782" type="line" smooth="yes"/>
      <point x="-219" y="782"/>
      <point x="-224" y="774"/>
      <point x="-226" y="764"/>
      <point x="-225" y="752"/>
      <point x="-225" y="749" type="qcurve" smooth="yes"/>
      <point x="-225" y="664" type="line"/>
    </contour>
  </outline>
</glyph>
<glyph name="uni0091" format="2">
  <advance width="260"/>
  <unicode hex="0091"/>
  <unicode hex="2018"/>
  <outline>
    <contour>
      <point x="57" y="603" type="qcurve" smooth="yes"/>
      <point x="57" y="632"/>
      <point x="66" y="688"/>
      <point x="72" y="717" type="qcurve"/>
      <point x="185" y="705" type="line"/>
      <point x="181" y="679"/>
      <point x="172" y="628"/>
      <point x="172" y="602" type="qcurve" smooth="yes"/>
      <point x="172" y="586"/>
      <point x="177" y="563"/>
      <point x="186" y="544"/>
      <point x="201" y="525"/>
      <point x="210" y="513" type="qcurve"/>
      <point x="135" y="440" type="line"/>
      <point x="115" y="460"/>
      <point x="85" y="494"/>
      <point x="66" y="530"/>
      <point x="57" y="573"/>
    </contour>
  </outline>
</glyph>
<glyph name="uni0092" format="2">
  <advance width="264"/>
  <unicode hex="0092"/>
  <unicode hex="2019"/>
  <outline>
    <contour>
      <point x="87" y="464" type="line"/>
      <point x="91" y="490"/>
      <point x="100" y="541"/>
      <point x="100" y="567" type="qcurve" smooth="yes"/>
      <point x="100" y="599"/>
      <point x="82" y="635"/>
      <point x="56" y="653" type="qcurve"/>
      <point x="139" y="728" type="line"/>
      <point x="160" y="707"/>
      <point x="188" y="674"/>
      <point x="205" y="639"/>
      <point x="213" y="596"/>
      <point x="213" y="566" type="qcurve" smooth="yes"/>
      <point x="213" y="537"/>
      <point x="205" y="480"/>
      <point x="199" y="452" type="qcurve"/>
    </contour>
  </outline>
</glyph>
<glyph name="uni0093" format="2">
  <advance width="479"/>
  <unicode hex="0093"/>
  <unicode hex="201C"/>
  <outline>
    <contour>
      <point x="246" y="603" type="qcurve" smooth="yes"/>
      <point x="246" y="632"/>
      <point x="256" y="688"/>
      <point x="260" y="717" type="qcurve"/>
      <point x="372" y="705" type="line"/>
      <point x="368" y="679"/>
      <point x="361" y="628"/>
      <point x="361" y="602" type="qcurve" smooth="yes"/>
      <point x="361" y="586"/>
      <point x="364" y="562"/>
      <point x="373" y="543"/>
      <point x="390" y="525"/>
      <point x="403" y="516" type="qcurve"/>
      <point x="322" y="440" type="line"/>
      <point x="302" y="461"/>
      <point x="273" y="495"/>
      <point x="255" y="530"/>
      <point x="246" y="573"/>
    </contour>
    <contour>
      <point x="90" y="603" type="qcurve" smooth="yes"/>
      <point x="90" y="632"/>
      <point x="98" y="689"/>
      <point x="104" y="717" type="qcurve"/>
      <point x="217" y="705" type="line"/>
      <point x="213" y="679"/>
      <point x="205" y="628"/>
      <point x="205" y="602" type="qcurve" smooth="yes"/>
      <point x="205" y="572"/>
      <point x="223" y="535"/>
      <point x="243" y="513" type="qcurve"/>
      <point x="167" y="440" type="line"/>
      <point x="147" y="461"/>
      <point x="118" y="495"/>
      <point x="99" y="530"/>
      <point x="90" y="573"/>
    </contour>
  </outline>
</glyph>
<glyph name="uni0094" format="2">
  <advance width="450"/>
  <unicode hex="0094"/>
  <unicode hex="201D"/>
  <outline>
    <contour>
      <point x="250" y="464" type="line"/>
      <point x="254" y="490"/>
      <point x="263" y="541"/>
      <point x="263" y="567" type="qcurve" smooth="yes"/>
      <point x="263" y="583"/>
      <point x="259" y="606"/>
      <point x="250" y="626"/>
      <point x="234" y="644"/>
      <point x="222" y="654" type="qcurve"/>
      <point x="299" y="728" type="line"/>
      <point x="320" y="707"/>
      <point x="349" y="674"/>
      <point x="367" y="639"/>
      <point x="376" y="596"/>
      <point x="376" y="566" type="qcurve" smooth="yes"/>
      <point x="376" y="537"/>
      <point x="368" y="480"/>
      <point x="362" y="452" type="qcurve"/>
    </contour>
    <contour>
      <point x="95" y="464" type="line"/>
      <point x="99" y="490"/>
      <point x="107" y="541"/>
      <point x="107" y="567" type="qcurve" smooth="yes"/>
      <point x="107" y="599"/>
      <point x="91" y="635"/>
      <point x="64" y="653" type="qcurve"/>
      <point x="147" y="728" type="line"/>
      <point x="167" y="707"/>
      <point x="195" y="673"/>
      <point x="213" y="639"/>
      <point x="221" y="596"/>
      <point x="221" y="566" type="qcurve" smooth="yes"/>
      <point x="221" y="537"/>
      <point x="213" y="480"/>
      <point x="207" y="452" type="qcurve"/>
    </contour>
  </outline>
</glyph>
<glyph name="uni0095" format="2">
  <advance width="398"/>
  <unicode hex="0095"/>
  <unicode hex="2022"/>
  <outline>
    <contour>
      <point x="47" y="204" type="qcurve" smooth="yes"/>
      <point x="47" y="234"/>
      <point x="73" y="286"/>
      <point x="115" y="324"/>
      <point x="170" y="346"/>
      <point x="199" y="346" type="qcurve" smooth="yes"/>
      <point x="228" y="346"/>
      <point x="283" y="324"/>
      <point x="325" y="286"/>
      <point x="351" y="234"/>
      <point x="351" y="204" type="qcurve" smooth="yes"/>
      <point x="351" y="173"/>
      <point x="326" y="121"/>
      <point x="284" y="83"/>
      <point x="229" y="61"/>
      <point x="199" y="61" type="qcurve" smooth="yes"/>
      <point x="170" y="61"/>
      <point x="115" y="83"/>
      <point x="73" y="122"/>
      <point x="47" y="174"/>
    </contour>
  </outline>
</glyph>
<glyph name="uni0096" format="2">
  <advance width="512"/>
  <unicode hex="0096"/>
  <unicode hex="2013"/>
  <outline>
    <contour>
      <point x="60" y="217" type="line"/>
      <point x="60" y="315" type="line"/>
      <point x="452" y="315" type="line"/>
      <point x="452" y="217" type="line"/>
    </contour>
  </outline>
</glyph>
<glyph name="uni0098" format="2">
  <advance width="53"/>
  <unicode hex="0098"/>
  <unicode hex="02DC"/>
  <unicode hex="F710"/>
  <outline>
    <contour>
      <point x="-400" y="801" type="qcurve" smooth="yes"/>
      <point x="-400" y="904" type="line"/>
      <point x="-285" y="904" type="line"/>
      <point x="-285" y="897"/>
      <point x="-287" y="857"/>
      <point x="-287" y="816"/>
      <point x="-282" y="784"/>
      <point x="-274" y="784" type="qcurve" smooth="yes"/>
      <point x="-27" y="784" type="line"/>
      <point x="-27" y="683" type="line"/>
      <point x="-274" y="683" type="line" smooth="yes"/>
      <point x="-299" y="683"/>
      <point x="-344" y="700"/>
      <point x="-379" y="732"/>
      <point x="-400" y="775"/>
    </contour>
  </outline>
</glyph>
<glyph name="uni0099" format="2">
  <advance width="57"/>
  <unicode hex="0099"/>
  <unicode hex="2122"/>
  <unicode hex="F711"/>
  <outline>
    <contour>
      <point x="-221" y="749" type="qcurve" smooth="yes"/>
      <point x="-221" y="773"/>
      <point x="-202" y="813"/>
      <point x="-170" y="843"/>
      <point x="-127" y="859"/>
      <point x="-104" y="859" type="qcurve" smooth="yes"/>
      <point x="-80" y="859"/>
      <point x="-36" y="844"/>
      <point x="-3" y="815"/>
      <point x="17" y="775"/>
      <point x="17" y="749" type="qcurve" smooth="yes"/>
      <point x="17" y="724"/>
      <point x="-4" y="684"/>
      <point x="-38" y="655"/>
      <point x="-82" y="639"/>
      <point x="-105" y="639" type="qcurve" smooth="yes"/>
      <point x="-129" y="639"/>
      <point x="-171" y="655"/>
      <point x="-202" y="684"/>
      <point x="-221" y="725"/>
    </contour>
  </outline>
</glyph>
<glyph name="uni009A" format="2">
  <advance width="58"/>
  <unicode hex="009A"/>
  <unicode hex="0161"/>
  <unicode hex="F712"/>
  <outline>
    <contour>
      <point x="-548" y="814" type="qcurve" smooth="yes"/>
      <point x="-548" y="840"/>
      <point x="-525" y="887"/>
      <point x="-508" y="905" type="qcurve" smooth="yes"/>
      <point x="-488" y="925"/>
      <point x="-442" y="949"/>
      <point x="-391" y="961"/>
      <point x="-338" y="965"/>
      <point x="-311" y="965" type="qcurve" smooth="yes"/>
      <point x="-300" y="965"/>
      <point x="-279" y="960"/>
      <point x="-268" y="960" type="qcurve" smooth="yes"/>
      <point x="-242" y="960"/>
      <point x="-206" y="981"/>
      <point x="-187" y="998" type="qcurve"/>
      <point x="-126" y="926" type="line"/>
      <point x="-136" y="910"/>
      <point x="-170" y="887"/>
      <point x="-210" y="873"/>
      <point x="-251" y="867"/>
      <point x="-269" y="867" type="qcurve" smooth="yes"/>
      <point x="-284" y="867"/>
      <point x="-314" y="871"/>
      <point x="-329" y="871" type="qcurve" smooth="yes"/>
      <point x="-342" y="871"/>
      <point x="-380" y="867"/>
      <point x="-415" y="856"/>
      <point x="-440" y="834"/>
      <point x="-440" y="816" type="qcurve" smooth="yes"/>
      <point x="-440" y="803"/>
      <point x="-429" y="783"/>
      <point x="-416" y="778" type="qcurve"/>
      <point x="-407" y="787"/>
      <point x="-385" y="811"/>
      <point x="-361" y="833"/>
      <point x="-334" y="848"/>
      <point x="-320" y="848" type="qcurve" smooth="yes"/>
      <point x="-308" y="848"/>
      <point x="-288" y="843"/>
      <point x="-279" y="834" type="qcurve" smooth="yes"/>
      <point x="-220" y="778" type="line"/>
      <point x="-146" y="778" type="line"/>
      <point x="-146" y="683" type="line"/>
      <point x="-245" y="683" type="line" smooth="yes"/>
      <point x="-270" y="683"/>
      <point x="-303" y="716"/>
      <point x="-319" y="732" type="qcurve"/>
      <point x="-336" y="715"/>
      <point x="-370" y="680"/>
      <point x="-398" y="680" type="qcurve" smooth="yes"/>
      <point x="-428" y="680"/>
      <point x="-482" y="698"/>
      <point x="-524" y="732"/>
      <point x="-548" y="782"/>
    </contour>
  </outline>
</glyph>
<glyph name="uni009B" format="2">
  <advance width="62"/>
  <unicode hex="009B"/>
  <unicode hex="203A"/>
  <unicode hex="F713"/>
  <outline>
    <contour>
      <point x="-244" y="897" type="line"/>
      <point x="-244" y="1117" type="line"/>
      <point x="-129" y="1117" type="line"/>
      <point x="-129" y="897" type="line"/>
    </contour>
  </outline>
</glyph>
<glyph name="uni009C" format="2">
  <advance width="51"/>
  <unicode hex="009C"/>
  <unicode hex="0153"/>
  <unicode hex="F714"/>
  <outline>
    <contour>
      <point x="-462" y="1014" type="line"/>
      <point x="-462" y="1109" type="line"/>
      <point x="-341" y="1109" type="line" smooth="yes"/>
      <point x="-319" y="1109"/>
      <point x="-297" y="1095"/>
      <point x="-288" y="1071"/>
      <point x="-288" y="1040"/>
      <point x="-288" y="1023" type="qcurve" smooth="yes"/>
      <point x="-288" y="1015"/>
      <point x="-282" y="991"/>
      <point x="-271" y="991" type="qcurve" smooth="yes"/>
      <point x="-30" y="991" type="line"/>
      <point x="-30" y="897" type="line"/>
      <point x="-271" y="897" type="line" smooth="yes"/>
      <point x="-297" y="897"/>
      <point x="-342" y="914"/>
      <point x="-375" y="945"/>
      <point x="-395" y="988"/>
      <point x="-395" y="1014" type="qcurve"/>
    </contour>
  </outline>
</glyph>
<glyph name="uni009D" format="2">
  <advance width="50"/>
  <unicode hex="009D"/>
  <unicode hex="F715"/>
  <outline>
    <contour>
      <point x="-550" y="888" type="line"/>
      <point x="-553" y="907"/>
      <point x="-560" y="945"/>
      <point x="-560" y="965" type="qcurve" smooth="yes"/>
      <point x="-560" y="992"/>
      <point x="-546" y="1045"/>
      <point x="-516" y="1086"/>
      <point x="-471" y="1111"/>
      <point x="-440" y="1111" type="qcurve" smooth="yes"/>
      <point x="-419" y="1111"/>
      <point x="-397" y="1096"/>
      <point x="-383" y="1081" type="qcurve"/>
      <point x="-368" y="1095"/>
      <point x="-348" y="1109"/>
      <point x="-326" y="1109" type="qcurve" smooth="yes"/>
      <point x="-272" y="1109"/>
      <point x="-213" y="1040"/>
      <point x="-204" y="991" type="qcurve"/>
      <point x="-110" y="991" type="line"/>
      <point x="-110" y="897" type="line"/>
      <point x="-256" y="897" type="line" smooth="yes"/>
      <point x="-282" y="897"/>
      <point x="-303" y="920"/>
      <point x="-310" y="953"/>
      <point x="-312" y="991"/>
      <point x="-319" y="1007" type="qcurve"/>
      <point x="-327" y="990"/>
      <point x="-365" y="963"/>
      <point x="-384" y="963" type="qcurve" smooth="yes"/>
      <point x="-405" y="963"/>
      <point x="-434" y="991"/>
      <point x="-448" y="1004" type="qcurve"/>
      <point x="-450" y="995"/>
      <point x="-453" y="976"/>
      <point x="-453" y="967" type="qcurve" smooth="yes"/>
      <point x="-453" y="953"/>
      <point x="-447" y="925"/>
      <point x="-445" y="911" type="qcurve"/>
    </contour>
  </outline>
</glyph>
<glyph name="uni009E" format="2">
  <advance width="58"/>
  <unicode hex="009E"/>
  <unicode hex="017E"/>
  <unicode hex="F716"/>
  <outline>
    <contour>
      <point x="-338" y="960" type="line"/>
      <point x="-338" y="1055" type="line"/>
      <point x="-273" y="1055" type="line"/>
      <point x="-273" y="1117" type="line"/>
      <point x="-167" y="1117" type="line"/>
      <point x="-167" y="1055" type="line"/>
      <point x="-100" y="1055" type="line"/>
      <point x="-100" y="960" type="line"/>
      <point x="-167" y="960" type="line"/>
      <point x="-167" y="897" type="line"/>
      <point x="-273" y="897" type="line"/>
      <point x="-273" y="960" type="line"/>
    </contour>
  </outline>
</glyph>
<glyph name="uni009F" format="2">
  <advance width="53"/>
  <unicode hex="009F"/>
  <unicode hex="0178"/>
  <unicode hex="F717"/>
  <outline>
    <contour>
      <point x="-350" y="897" type="line"/>
      <point x="-350" y="999" type="line" smooth="yes"/>
      <point x="-350" y="1025"/>
      <point x="-329" y="1067"/>
      <point x="-293" y="1099"/>
      <point x="-247" y="1116"/>
      <point x="-223" y="1116" type="qcurve" smooth="yes"/>
      <point x="23" y="1116" type="line"/>
      <point x="23" y="1014" type="line"/>
      <point x="-223" y="1014" type="line" smooth="yes"/>
      <point x="-235" y="1014"/>
      <point x="-235" y="990"/>
      <point x="-235" y="982" type="qcurve" smooth="yes"/>
      <point x="-235" y="897" type="line"/>
    </contour>
  </outline>
</glyph>
<glyph name="exclamdown" format="2">
  <advance width="649"/>
  <unicode hex="00A1"/>
  <unicode hex="0E01"/>
  <outline>
    <contour>
      <point x="80" y="1" type="line"/>
      <point x="80" y="494" type="line" smooth="yes"/>
      <point x="80" y="532"/>
      <point x="133" y="578"/>
      <point x="208" y="604"/>
      <point x="288" y="613"/>
      <point x="316" y="613" type="qcurve" smooth="yes"/>
      <point x="358" y="613"/>
      <point x="440" y="599"/>
      <point x="511" y="564"/>
      <point x="563" y="504"/>
      <point x="574" y="459" type="qcurve" smooth="yes"/>
      <point x="578" y="444"/>
      <point x="578" y="426" type="qcurve" smooth="yes"/>
      <point x="578" y="1" type="line"/>
      <point x="463" y="1" type="line"/>
      <point x="463" y="426" type="line" smooth="yes"/>
      <point x="463" y="455"/>
      <point x="428" y="488"/>
      <point x="378" y="506"/>
      <point x="322" y="511"/>
      <point x="301" y="511" type="qcurve" smooth="yes"/>
      <point x="269" y="511"/>
      <point x="224" y="504"/>
      <point x="195" y="490" type="qcurve"/>
      <point x="195" y="1" type="line"/>
    </contour>
  </outline>
</glyph>
<glyph name="cent" format="2">
  <advance width="596"/>
  <unicode hex="00A2"/>
  <unicode hex="0E02"/>
  <outline>
    <contour>
      <point x="70" y="225" type="qcurve" smooth="yes"/>
      <point x="70" y="269"/>
      <point x="108" y="341"/>
      <point x="154" y="404"/>
      <point x="192" y="459"/>
      <point x="192" y="486" type="qcurve" smooth="yes"/>
      <point x="192" y="491"/>
      <point x="185" y="501"/>
      <point x="179" y="501" type="qcurve" smooth="yes"/>
      <point x="51" y="501" type="line"/>
      <point x="51" y="603" type="line"/>
      <point x="179" y="603" type="line" smooth="yes"/>
      <point x="205" y="603"/>
      <point x="251" y="586"/>
      <point x="285" y="556"/>
      <point x="306" y="513"/>
      <point x="306" y="486" type="qcurve" smooth="yes"/>
      <point x="306" y="438"/>
      <point x="268" y="373"/>
      <point x="222" y="315"/>
      <point x="184" y="249"/>
      <point x="184" y="201" type="qcurve" smooth="yes"/>
      <point x="184" y="177" type="line" smooth="yes"/>
      <point x="184" y="155"/>
      <point x="204" y="123"/>
      <point x="236" y="103"/>
      <point x="275" y="93"/>
      <point x="294" y="93" type="qcurve" smooth="yes"/>
      <point x="314" y="93"/>
      <point x="352" y="102"/>
      <point x="382" y="122"/>
      <point x="400" y="154"/>
      <point x="400" y="177" type="qcurve" smooth="yes"/>
      <point x="400" y="603" type="line"/>
      <point x="516" y="603" type="line"/>
      <point x="516" y="177" type="line" smooth="yes"/>
      <point x="516" y="132"/>
      <point x="477" y="63"/>
      <point x="413" y="16"/>
      <point x="334" y="-9"/>
      <point x="293" y="-9" type="qcurve" smooth="yes"/>
      <point x="258" y="-9"/>
      <point x="185" y="11"/>
      <point x="122" y="50"/>
      <point x="78" y="108"/>
      <point x="73" y="146" type="qcurve" smooth="yes"/>
      <point x="71" y="166"/>
      <point x="70" y="205"/>
    </contour>
  </outline>
</glyph>
<glyph name="sterling" format="2">
  <advance width="626"/>
  <unicode hex="00A3"/>
  <unicode hex="0E03"/>
  <outline>
    <contour>
      <point x="98" y="192" type="qcurve" smooth="yes"/>
      <point x="98" y="214"/>
      <point x="101" y="258"/>
      <point x="107" y="280" type="qcurve" smooth="yes"/>
      <point x="115" y="307"/>
      <point x="152" y="359"/>
      <point x="191" y="411"/>
      <point x="221" y="463"/>
      <point x="221" y="491" type="qcurve"/>
      <point x="210" y="471"/>
      <point x="173" y="433"/>
      <point x="156" y="418" type="qcurve"/>
      <point x="20" y="552" type="line"/>
      <point x="98" y="626" type="line"/>
      <point x="156" y="569" type="line"/>
      <point x="192" y="603" type="line"/>
      <point x="208" y="603" type="line" smooth="yes"/>
      <point x="262" y="603"/>
      <point x="335" y="544"/>
      <point x="335" y="487" type="qcurve" smooth="yes"/>
      <point x="335" y="445"/>
      <point x="301" y="379"/>
      <point x="258" y="322"/>
      <point x="220" y="270"/>
      <point x="216" y="240" type="qcurve" smooth="yes"/>
      <point x="214" y="229"/>
      <point x="214" y="207"/>
      <point x="214" y="196" type="qcurve" smooth="yes"/>
      <point x="214" y="141"/>
      <point x="271" y="93"/>
      <point x="324" y="93" type="qcurve" smooth="yes"/>
      <point x="344" y="93"/>
      <point x="382" y="102"/>
      <point x="412" y="123"/>
      <point x="430" y="155"/>
      <point x="430" y="177" type="qcurve" smooth="yes"/>
      <point x="430" y="603" type="line"/>
      <point x="544" y="603" type="line"/>
      <point x="544" y="177" type="line" smooth="yes"/>
      <point x="544" y="133"/>
      <point x="505" y="64"/>
      <point x="442" y="16"/>
      <point x="363" y="-9"/>
      <point x="322" y="-9" type="qcurve" smooth="yes"/>
      <point x="276" y="-9"/>
      <point x="194" y="17"/>
      <point x="133" y="68"/>
      <point x="98" y="143"/>
    </contour>
  </outline>
</glyph>
<glyph name="currency" format="2">
  <advance width="659"/>
  <unicode hex="00A4"/>
  <unicode hex="0E04"/>
  <outline>
    <contour>
      <point x="80" y="1" type="line"/>
      <point x="80" y="425" type="line" smooth="yes"/>
      <point x="80" y="472"/>
      <point x="126" y="543"/>
      <point x="198" y="590"/>
      <point x="285" y="613"/>
      <point x="326" y="613" type="qcurve" smooth="yes"/>
      <point x="370" y="613"/>
      <point x="460" y="589"/>
      <point x="532" y="541"/>
      <point x="578" y="467"/>
      <point x="578" y="417" type="qcurve" smooth="yes"/>
      <point x="578" y="1" type="line"/>
      <point x="463" y="1" type="line"/>
      <point x="463" y="425" type="line" smooth="yes"/>
      <point x="463" y="449"/>
      <point x="435" y="482"/>
      <point x="395" y="502"/>
      <point x="348" y="511"/>
      <point x="329" y="511" type="qcurve" smooth="yes"/>
      <point x="306" y="511"/>
      <point x="259" y="502"/>
      <point x="220" y="479"/>
      <point x="195" y="442"/>
      <point x="195" y="415" type="qcurve" smooth="yes"/>
      <point x="195" y="330" type="line"/>
      <point x="234" y="350"/>
      <point x="317" y="359"/>
      <point x="360" y="359" type="qcurve"/>
      <point x="360" y="257" type="line"/>
      <point x="332" y="257"/>
      <point x="274" y="253"/>
      <point x="226" y="234"/>
      <point x="195" y="194"/>
      <point x="195" y="157" type="qcurve" smooth="yes"/>
      <point x="195" y="1" type="line"/>
    </contour>
  </outline>
</glyph>
<glyph name="yen" format="2">
  <advance width="659"/>
  <unicode hex="00A5"/>
  <unicode hex="0E05"/>
  <outline>
    <contour>
      <point x="80" y="1" type="line"/>
      <point x="80" y="440" type="line" smooth="yes"/>
      <point x="80" y="476"/>
      <point x="107" y="531"/>
      <point x="150" y="574"/>
      <point x="206" y="607"/>
      <point x="235" y="620" type="qcurve"/>
      <point x="328" y="537" type="line"/>
      <point x="423" y="620" type="line"/>
      <point x="451" y="606"/>
      <point x="506" y="575"/>
      <point x="550" y="534"/>
      <point x="578" y="481"/>
      <point x="578" y="445" type="qcurve" smooth="yes"/>
      <point x="578" y="1" type="line"/>
      <point x="463" y="1" type="line"/>
      <point x="463" y="440" type="line" smooth="yes"/>
      <point x="463" y="455"/>
      <point x="448" y="481"/>
      <point x="437" y="491" type="qcurve"/>
      <point x="328" y="403" type="line"/>
      <point x="219" y="491" type="line"/>
      <point x="209" y="480"/>
      <point x="195" y="454"/>
      <point x="195" y="439" type="qcurve" smooth="yes"/>
      <point x="195" y="330" type="line"/>
      <point x="234" y="350"/>
      <point x="317" y="359"/>
      <point x="360" y="359" type="qcurve"/>
      <point x="360" y="257" type="line"/>
      <point x="332" y="257"/>
      <point x="274" y="253"/>
      <point x="226" y="234"/>
      <point x="195" y="194"/>
      <point x="195" y="157" type="qcurve" smooth="yes"/>
      <point x="195" y="1" type="line"/>
    </contour>
  </outline>
</glyph>
<glyph name="brokenbar" format="2">
  <advance width="681"/>
  <unicode hex="00A6"/>
  <unicode hex="0E06"/>
  <outline>
    <contour>
      <point x="102" y="1" type="line"/>
      <point x="102" y="233" type="line" smooth="yes"/>
      <point x="102" y="275"/>
      <point x="140" y="343"/>
      <point x="187" y="401"/>
      <point x="225" y="456"/>
      <point x="225" y="485" type="qcurve"/>
      <point x="159" y="430" type="line"/>
      <point x="20" y="552" type="line"/>
      <point x="102" y="626" type="line"/>
      <point x="159" y="569" type="line"/>
      <point x="195" y="603" type="line"/>
      <point x="210" y="603" type="line" smooth="yes"/>
      <point x="265" y="603"/>
      <point x="339" y="542"/>
      <point x="339" y="485" type="qcurve" smooth="yes"/>
      <point x="339" y="443"/>
      <point x="301" y="374"/>
      <point x="255" y="314"/>
      <point x="217" y="260"/>
      <point x="217" y="234" type="qcurve" smooth="yes"/>
      <point x="217" y="202"/>
      <point x="246" y="150"/>
      <point x="292" y="114"/>
      <point x="350" y="94"/>
      <point x="379" y="94" type="qcurve" smooth="yes"/>
      <point x="398" y="94"/>
      <point x="436" y="104"/>
      <point x="467" y="124"/>
      <point x="486" y="155"/>
      <point x="486" y="177" type="qcurve" smooth="yes"/>
      <point x="486" y="603" type="line"/>
      <point x="600" y="603" type="line"/>
      <point x="600" y="177" type="line" smooth="yes"/>
      <point x="600" y="133"/>
      <point x="561" y="64"/>
      <point x="498" y="17"/>
      <point x="418" y="-8"/>
      <point x="378" y="-8" type="qcurve" smooth="yes"/>
      <point x="333" y="-8"/>
      <point x="245" y="19"/>
      <point x="210" y="48" type="qcurve"/>
      <point x="204" y="1" type="line"/>
    </contour>
  </outline>
</glyph>
<glyph name="section" format="2">
  <advance width="600"/>
  <unicode hex="00A7"/>
  <unicode hex="0E07"/>
  <outline>
    <contour>
      <point x="20" y="234" type="line"/>
      <point x="98" y="311" type="line"/>
      <point x="319" y="95" type="line"/>
      <point x="353" y="100"/>
      <point x="404" y="139"/>
      <point x="404" y="177" type="qcurve" smooth="yes"/>
      <point x="404" y="486" type="line" smooth="yes"/>
      <point x="404" y="491"/>
      <point x="397" y="501"/>
      <point x="391" y="501" type="qcurve" smooth="yes"/>
      <point x="282" y="501" type="line"/>
      <point x="282" y="603" type="line"/>
      <point x="391" y="603" type="line" smooth="yes"/>
      <point x="417" y="603"/>
      <point x="463" y="587"/>
      <point x="499" y="556"/>
      <point x="520" y="513"/>
      <point x="520" y="486" type="qcurve" smooth="yes"/>
      <point x="520" y="177" type="line" smooth="yes"/>
      <point x="520" y="126"/>
      <point x="461" y="41"/>
      <point x="417" y="17" type="qcurve" smooth="yes"/>
      <point x="388" y="1"/>
      <point x="326" y="-8"/>
      <point x="294" y="-8" type="qcurve" smooth="yes"/>
      <point x="271" y="-8"/>
      <point x="254" y="9" type="qcurve" smooth="yes"/>
    </contour>
  </outline>
</glyph>
<glyph name="dieresis" format="2">
  <advance width="586"/>
  <unicode hex="00A8"/>
  <unicode hex="0E08"/>
  <outline>
    <contour>
      <point x="95" y="464" type="qcurve"/>
      <point x="20" y="537" type="line"/>
      <point x="40" y="562"/>
      <point x="94" y="592"/>
      <point x="156" y="608"/>
      <point x="220" y="613"/>
      <point x="250" y="613" type="qcurve" smooth="yes"/>
      <point x="292" y="613"/>
      <point x="382" y="592"/>
      <point x="457" y="547"/>
      <point x="505" y="476"/>
      <point x="505" y="426" type="qcurve" smooth="yes"/>
      <point x="505" y="1" type="line"/>
      <point x="389" y="1" type="line"/>
      <point x="389" y="172" type="line" smooth="yes"/>
      <point x="389" y="202"/>
      <point x="353" y="236"/>
      <point x="302" y="253"/>
      <point x="245" y="257"/>
      <point x="224" y="257" type="qcurve"/>
      <point x="224" y="359" type="line"/>
      <point x="255" y="359" type="line" smooth="yes"/>
      <point x="290" y="359"/>
      <point x="358" y="347"/>
      <point x="389" y="330" type="qcurve"/>
      <point x="389" y="426" type="line" smooth="yes"/>
      <point x="389" y="451"/>
      <point x="360" y="484"/>
      <point x="317" y="503"/>
      <point x="269" y="511"/>
      <point x="249" y="511" type="qcurve" smooth="yes"/>
      <point x="236" y="511"/>
      <point x="203" y="509"/>
      <point x="168" y="504"/>
      <point x="137" y="495"/>
      <point x="126" y="488" type="qcurve" smooth="yes"/>
      <point x="118" y="483"/>
      <point x="103" y="470"/>
    </contour>
  </outline>
</glyph>
<glyph name="copyright" format="2">
  <advance width="853"/>
  <unicode hex="00A9"/>
  <unicode hex="012A"/>
  <outline>
    <contour>
      <point x="128" y="381" type="qcurve" smooth="yes"/>
      <point x="128" y="323"/>
      <point x="177" y="219"/>
      <point x="258" y="142"/>
      <point x="365" y="97"/>
      <point x="422" y="97" type="qcurve" smooth="yes"/>
      <point x="481" y="97"/>
      <point x="588" y="141"/>
      <point x="669" y="218"/>
      <point x="717" y="322"/>
      <point x="717" y="382" type="qcurve" smooth="yes"/>
      <point x="717" y="442"/>
      <point x="671" y="549"/>
      <point x="592" y="628"/>
      <point x="486" y="674"/>
      <point x="426" y="674" type="qcurve" smooth="yes"/>
      <point x="364" y="674"/>
      <point x="256" y="629"/>
      <point x="175" y="551"/>
      <point x="128" y="444"/>
    </contour>
    <contour>
      <point x="14" y="389" type="qcurve" smooth="yes"/>
      <point x="14" y="471"/>
      <point x="81" y="613"/>
      <point x="193" y="717"/>
      <point x="340" y="776"/>
      <point x="420" y="776" type="qcurve" smooth="yes"/>
      <point x="500" y="776"/>
      <point x="649" y="717"/>
      <point x="763" y="614"/>
      <point x="832" y="472"/>
      <point x="832" y="389" type="qcurve" smooth="yes"/>
      <point x="832" y="305"/>
      <point x="766" y="161"/>
      <point x="655" y="56"/>
      <point x="507" y="-4"/>
      <point x="424" y="-4" type="qcurve" smooth="yes"/>
      <point x="341" y="-4"/>
      <point x="192" y="55"/>
      <point x="80" y="160"/>
      <point x="14" y="304"/>
    </contour>
    <contour>
      <point x="225" y="342" type="qcurve" smooth="yes"/>
      <point x="225" y="429" type="line" smooth="yes"/>
      <point x="225" y="473"/>
      <point x="278" y="543"/>
      <point x="316" y="563" type="qcurve" smooth="yes"/>
      <point x="345" y="578"/>
      <point x="410" y="587"/>
      <point x="442" y="587" type="qcurve" smooth="yes"/>
      <point x="499" y="587"/>
      <point x="593" y="543"/>
      <point x="624" y="494" type="qcurve"/>
      <point x="537" y="434" type="line"/>
      <point x="522" y="449"/>
      <point x="503" y="469"/>
      <point x="482" y="480"/>
      <point x="455" y="485"/>
      <point x="433" y="485" type="qcurve" smooth="yes"/>
      <point x="397" y="485"/>
      <point x="359" y="467"/>
      <point x="341" y="434" type="qcurve"/>
      <point x="340" y="436" type="line"/>
      <point x="340" y="342" type="line" smooth="yes"/>
      <point x="340" y="326"/>
      <point x="359" y="304"/>
      <point x="387" y="291"/>
      <point x="419" y="286"/>
      <point x="432" y="286" type="qcurve" smooth="yes"/>
      <point x="453" y="286"/>
      <point x="481" y="291"/>
      <point x="503" y="303"/>
      <point x="523" y="323"/>
      <point x="536" y="338" type="qcurve"/>
      <point x="624" y="277" type="line"/>
      <point x="585" y="228"/>
      <point x="501" y="184"/>
      <point x="438" y="184" type="qcurve" smooth="yes"/>
      <point x="402" y="184"/>
      <point x="327" y="202"/>
      <point x="265" y="241"/>
      <point x="225" y="300"/>
    </contour>
  </outline>
</glyph>
<glyph name="ordfeminine" format="2">
  <advance width="606"/>
  <unicode hex="00AA"/>
  <unicode hex="0E0A"/>
  <outline>
    <contour>
      <point x="184" y="177" type="qcurve" smooth="yes"/>
      <point x="184" y="155"/>
      <point x="204" y="123"/>
      <point x="236" y="103"/>
      <point x="275" y="93"/>
      <point x="294" y="93" type="qcurve" smooth="yes"/>
      <point x="314" y="93"/>
      <point x="352" y="102"/>
      <point x="382" y="122"/>
      <point x="400" y="154"/>
      <point x="400" y="177" type="qcurve" smooth="yes"/>
      <point x="400" y="325" type="line" smooth="yes"/>
      <point x="400" y="342"/>
      <point x="390" y="373"/>
      <point x="379" y="385" type="qcurve" smooth="yes"/>
      <point x="305" y="467" type="line"/>
      <point x="301" y="435"/>
      <point x="273" y="385"/>
      <point x="239" y="339"/>
      <point x="206" y="292"/>
      <point x="195" y="264" type="qcurve" smooth="yes"/>
      <point x="187" y="243"/>
      <point x="184" y="200"/>
    </contour>
    <contour>
      <point x="70" y="225" type="qcurve" smooth="yes"/>
      <point x="70" y="269"/>
      <point x="108" y="341"/>
      <point x="154" y="404"/>
      <point x="192" y="459"/>
      <point x="192" y="486" type="qcurve" smooth="yes"/>
      <point x="192" y="491"/>
      <point x="185" y="501"/>
      <point x="179" y="501" type="qcurve" smooth="yes"/>
      <point x="50" y="501" type="line"/>
      <point x="50" y="603" type="line"/>
      <point x="179" y="603" type="line" smooth="yes"/>
      <point x="227" y="603"/>
      <point x="296" y="552"/>
      <point x="304" y="503" type="qcurve"/>
      <point x="473" y="677" type="line"/>
      <point x="554" y="606" type="line"/>
      <point x="437" y="486" type="line"/>
      <point x="454" y="468"/>
      <point x="482" y="432"/>
      <point x="504" y="395"/>
      <point x="516" y="352"/>
      <point x="516" y="326" type="qcurve" smooth="yes"/>
      <point x="516" y="177" type="line" smooth="yes"/>
      <point x="516" y="132"/>
      <point x="477" y="63"/>
      <point x="413" y="16"/>
      <point x="334" y="-9"/>
      <point x="293" y="-9" type="qcurve" smooth="yes"/>
      <point x="258" y="-9"/>
      <point x="184" y="11"/>
      <point x="122" y="50"/>
      <point x="78" y="109"/>
      <point x="73" y="147" type="qcurve" smooth="yes"/>
      <point x="71" y="167"/>
      <point x="70" y="205"/>
    </contour>
  </outline>
</glyph>
<glyph name="guillemotleft" format="2">
  <advance width="618"/>
  <unicode hex="00AB"/>
  <unicode hex="0E0B"/>
  <outline>
    <contour>
      <point x="308" y="93" type="qcurve" smooth="yes"/>
      <point x="328" y="93"/>
      <point x="366" y="103"/>
      <point x="396" y="123"/>
      <point x="414" y="155"/>
      <point x="414" y="177" type="qcurve" smooth="yes"/>
      <point x="414" y="325" type="line" smooth="yes"/>
      <point x="414" y="359"/>
      <point x="391" y="385" type="qcurve" smooth="yes"/>
      <point x="318" y="466" type="line"/>
      <point x="315" y="428"/>
      <point x="276" y="368"/>
      <point x="233" y="311"/>
      <point x="197" y="250"/>
      <point x="197" y="210" type="qcurve" smooth="yes"/>
      <point x="197" y="202"/>
      <point x="198" y="185"/>
      <point x="198" y="177" type="qcurve" smooth="yes"/>
      <point x="198" y="155"/>
      <point x="218" y="123"/>
      <point x="250" y="103"/>
      <point x="289" y="93"/>
    </contour>
    <contour>
      <point x="82" y="225" type="qcurve" smooth="yes"/>
      <point x="82" y="269"/>
      <point x="121" y="341"/>
      <point x="167" y="403"/>
      <point x="206" y="458"/>
      <point x="206" y="485" type="qcurve"/>
      <point x="140" y="430" type="line"/>
      <point x="0" y="552" type="line"/>
      <point x="82" y="626" type="line"/>
      <point x="140" y="568" type="line"/>
      <point x="175" y="603" type="line"/>
      <point x="191" y="603" type="line" smooth="yes"/>
      <point x="240" y="603"/>
      <point x="310" y="554"/>
      <point x="318" y="503" type="qcurve"/>
      <point x="487" y="677" type="line"/>
      <point x="566" y="606" type="line"/>
      <point x="449" y="486" type="line"/>
      <point x="467" y="466"/>
      <point x="495" y="432"/>
      <point x="516" y="396"/>
      <point x="527" y="354"/>
      <point x="527" y="326" type="qcurve" smooth="yes"/>
      <point x="527" y="177" type="line" smooth="yes"/>
      <point x="527" y="132"/>
      <point x="489" y="63"/>
      <point x="427" y="15"/>
      <point x="348" y="-9"/>
      <point x="307" y="-9" type="qcurve" smooth="yes"/>
      <point x="272" y="-9"/>
      <point x="198" y="11"/>
      <point x="135" y="50"/>
      <point x="90" y="108"/>
      <point x="85" y="147" type="qcurve" smooth="yes"/>
      <point x="83" y="167"/>
      <point x="82" y="205"/>
    </contour>
  </outline>
</glyph>
<glyph name="logicalnot" format="2">
  <advance width="937"/>
  <unicode hex="00AC"/>
  <unicode hex="0E0C"/>
  <outline>
    <contour>
      <point x="80" y="118" type="qcurve" smooth="yes"/>
      <point x="80" y="492" type="line" smooth="yes"/>
      <point x="80" y="528"/>
      <point x="126" y="575"/>
      <point x="193" y="602"/>
      <point x="267" y="613"/>
      <point x="294" y="613" type="qcurve" smooth="yes"/>
      <point x="403" y="613"/>
      <point x="527" y="504"/>
      <point x="527" y="392" type="qcurve" smooth="yes"/>
      <point x="527" y="364"/>
      <point x="523" y="309"/>
      <point x="523" y="280" type="qcurve" smooth="yes"/>
      <point x="523" y="247"/>
      <point x="536" y="181"/>
      <point x="567" y="127"/>
      <point x="620" y="93"/>
      <point x="659" y="93" type="qcurve" smooth="yes"/>
      <point x="697" y="93"/>
      <point x="741" y="138"/>
      <point x="741" y="176" type="qcurve" smooth="yes"/>
      <point x="741" y="603" type="line"/>
      <point x="856" y="603" type="line"/>
      <point x="856" y="176" type="line" smooth="yes"/>
      <point x="856" y="135"/>
      <point x="825" y="67"/>
      <point x="771" y="18"/>
      <point x="700" y="-9"/>
      <point x="660" y="-9" type="qcurve" smooth="yes"/>
      <point x="622" y="-9"/>
      <point x="547" y="12"/>
      <point x="517" y="37" type="qcurve"/>
      <point x="512" y="1" type="line"/>
      <point x="412" y="1" type="line"/>
      <point x="412" y="425" type="line" smooth="yes"/>
      <point x="412" y="448"/>
      <point x="391" y="480"/>
      <point x="358" y="501"/>
      <point x="317" y="511"/>
      <point x="297" y="511" type="qcurve" smooth="yes"/>
      <point x="287" y="511"/>
      <point x="259" y="509"/>
      <point x="230" y="505"/>
      <point x="203" y="497"/>
      <point x="195" y="491" type="qcurve"/>
      <point x="195" y="118" type="line" smooth="yes"/>
      <point x="195" y="107"/>
      <point x="230" y="100"/>
      <point x="253" y="100" type="qcurve" smooth="yes"/>
      <point x="273" y="100"/>
      <point x="309" y="103"/>
      <point x="317" y="103" type="qcurve"/>
      <point x="317" y="1" type="line"/>
      <point x="206" y="1" type="line" smooth="yes"/>
      <point x="181" y="1"/>
      <point x="136" y="18"/>
      <point x="101" y="49"/>
      <point x="80" y="92"/>
    </contour>
  </outline>
</glyph>
<glyph name="registered" format="2">
  <advance width="852"/>
  <unicode hex="00AE"/>
  <unicode hex="012B"/>
  <outline>
    <contour>
      <point x="129" y="391" type="qcurve" smooth="yes"/>
      <point x="129" y="330"/>
      <point x="176" y="225"/>
      <point x="256" y="147"/>
      <point x="363" y="103"/>
      <point x="423" y="103" type="qcurve" smooth="yes"/>
      <point x="483" y="103"/>
      <point x="591" y="147"/>
      <point x="672" y="224"/>
      <point x="719" y="330"/>
      <point x="719" y="391" type="qcurve" smooth="yes"/>
      <point x="719" y="451"/>
      <point x="671" y="557"/>
      <point x="590" y="635"/>
      <point x="483" y="680"/>
      <point x="423" y="680" type="qcurve" smooth="yes"/>
      <point x="363" y="680"/>
      <point x="257" y="635"/>
      <point x="176" y="557"/>
      <point x="129" y="451"/>
    </contour>
    <contour>
      <point x="14" y="391" type="qcurve" smooth="yes"/>
      <point x="14" y="475"/>
      <point x="81" y="618"/>
      <point x="193" y="723"/>
      <point x="342" y="782"/>
      <point x="423" y="782" type="qcurve" smooth="yes"/>
      <point x="504" y="782"/>
      <point x="653" y="723"/>
      <point x="766" y="618"/>
      <point x="833" y="475"/>
      <point x="833" y="391" type="qcurve" smooth="yes"/>
      <point x="833" y="307"/>
      <point x="766" y="165"/>
      <point x="653" y="60"/>
      <point x="504" y="1"/>
      <point x="423" y="1" type="qcurve" smooth="yes"/>
      <point x="341" y="1"/>
      <point x="193" y="60"/>
      <point x="81" y="164"/>
      <point x="14" y="307"/>
    </contour>
    <contour>
      <point x="385" y="442" type="line"/>
      <point x="480" y="442" type="line"/>
      <point x="485" y="447" type="line"/>
      <point x="487" y="452"/>
      <point x="489" y="461"/>
      <point x="489" y="466" type="qcurve" smooth="yes"/>
      <point x="489" y="472"/>
      <point x="485" y="485"/>
      <point x="479" y="488" type="qcurve"/>
      <point x="385" y="488" type="line"/>
    </contour>
    <contour>
      <point x="269" y="207" type="line"/>
      <point x="269" y="590" type="line"/>
      <point x="478" y="590" type="line" smooth="yes"/>
      <point x="505" y="590"/>
      <point x="551" y="572"/>
      <point x="585" y="539"/>
      <point x="604" y="493"/>
      <point x="604" y="466" type="qcurve" smooth="yes"/>
      <point x="604" y="439"/>
      <point x="586" y="391"/>
      <point x="565" y="373" type="qcurve"/>
      <point x="642" y="207" type="line"/>
      <point x="518" y="207" type="line"/>
      <point x="458" y="340" type="line"/>
      <point x="385" y="340" type="line"/>
      <point x="385" y="207" type="line"/>
    </contour>
  </outline>
</glyph>
<glyph name="macron" format="2">
  <advance width="661"/>
  <unicode hex="00AF"/>
  <unicode hex="0E0F"/>
  <outline>
    <contour>
      <point x="85" y="-169" type="line"/>
      <point x="85" y="-67" type="line"/>
      <point x="205" y="-67" type="line"/>
      <point x="333" y="49" type="line"/>
      <point x="443" y="-50" type="line"/>
      <point x="467" y="-29"/>
      <point x="467" y="0" type="qcurve" smooth="yes"/>
      <point x="467" y="425" type="line" smooth="yes"/>
      <point x="467" y="451"/>
      <point x="436" y="483"/>
      <point x="390" y="503"/>
      <point x="340" y="510"/>
      <point x="320" y="510" type="qcurve" smooth="yes"/>
      <point x="311" y="510"/>
      <point x="276" y="507"/>
      <point x="240" y="501"/>
      <point x="207" y="493"/>
      <point x="199" y="489" type="qcurve"/>
      <point x="199" y="101" type="line" smooth="yes"/>
      <point x="199" y="64"/>
      <point x="168" y="24"/>
      <point x="119" y="5"/>
      <point x="60" y="1"/>
      <point x="32" y="1" type="qcurve"/>
      <point x="32" y="103" type="line"/>
      <point x="46" y="103"/>
      <point x="71" y="102"/>
      <point x="85" y="102" type="qcurve"/>
      <point x="85" y="493" type="line" smooth="yes"/>
      <point x="85" y="532"/>
      <point x="141" y="578"/>
      <point x="219" y="604"/>
      <point x="303" y="612"/>
      <point x="331" y="612" type="qcurve" smooth="yes"/>
      <point x="373" y="612"/>
      <point x="462" y="590"/>
      <point x="535" y="545"/>
      <point x="581" y="474"/>
      <point x="581" y="425" type="qcurve" smooth="yes"/>
      <point x="581" y="-1" type="line" smooth="yes"/>
      <point x="581" y="-37"/>
      <point x="554" y="-93"/>
      <point x="511" y="-135"/>
      <point x="454" y="-167"/>
      <point x="424" y="-179" type="qcurve"/>
      <point x="333" y="-90" type="line"/>
      <point x="256" y="-169" type="line"/>
    </contour>
  </outline>
</glyph>
<glyph name="degree" format="2">
  <advance width="599"/>
  <unicode hex="00B0"/>
  <unicode hex="0E10"/>
  <outline>
    <contour>
      <point x="92" y="-169" type="line"/>
      <point x="92" y="-67" type="line"/>
      <point x="161" y="-67" type="line"/>
      <point x="288" y="49" type="line"/>
      <point x="400" y="-52" type="line"/>
      <point x="408" y="-45"/>
      <point x="422" y="-29"/>
      <point x="430" y="-21" type="qcurve"/>
      <point x="515" y="-87" type="line"/>
      <point x="499" y="-105"/>
      <point x="470" y="-134"/>
      <point x="438" y="-157"/>
      <point x="400" y="-173"/>
      <point x="376" y="-178" type="qcurve"/>
      <point x="288" y="-90" type="line"/>
      <point x="210" y="-169" type="line"/>
    </contour>
    <contour>
      <point x="98" y="462" type="qcurve"/>
      <point x="20" y="537" type="line"/>
      <point x="28" y="544"/>
      <point x="44" y="559"/>
      <point x="52" y="566" type="qcurve" smooth="yes"/>
      <point x="70" y="580"/>
      <point x="120" y="599"/>
      <point x="175" y="609"/>
      <point x="230" y="613"/>
      <point x="252" y="613" type="qcurve" smooth="yes"/>
      <point x="287" y="613"/>
      <point x="358" y="601"/>
      <point x="390" y="587" type="qcurve"/>
      <point x="390" y="612" type="line"/>
      <point x="506" y="612" type="line"/>
      <point x="506" y="586" type="line" smooth="yes"/>
      <point x="506" y="564"/>
      <point x="495" y="522"/>
      <point x="483" y="503" type="qcurve"/>
      <point x="506" y="468"/>
      <point x="506" y="425" type="qcurve" smooth="yes"/>
      <point x="506" y="1" type="line"/>
      <point x="390" y="1" type="line"/>
      <point x="390" y="172" type="line" smooth="yes"/>
      <point x="390" y="202"/>
      <point x="354" y="236"/>
      <point x="303" y="253"/>
      <point x="246" y="257"/>
      <point x="225" y="257" type="qcurve"/>
      <point x="225" y="359" type="line"/>
      <point x="256" y="359" type="line" smooth="yes"/>
      <point x="291" y="359"/>
      <point x="358" y="347"/>
      <point x="390" y="333" type="qcurve"/>
      <point x="390" y="425" type="line" smooth="yes"/>
      <point x="390" y="451"/>
      <point x="361" y="484"/>
      <point x="319" y="503"/>
      <point x="270" y="511"/>
      <point x="250" y="511" type="qcurve" smooth="yes"/>
      <point x="227" y="511"/>
      <point x="187" y="509"/>
      <point x="150" y="499"/>
      <point x="115" y="479"/>
    </contour>
  </outline>
</glyph>
<glyph name="plusminus" format="2">
  <advance width="737"/>
  <unicode hex="00B1"/>
  <unicode hex="0E11"/>
  <outline>
    <contour>
      <point x="157" y="1" type="line"/>
      <point x="157" y="225" type="line" smooth="yes"/>
      <point x="157" y="263"/>
      <point x="168" y="329"/>
      <point x="185" y="363" type="qcurve" smooth="yes"/>
      <point x="199" y="392"/>
      <point x="226" y="444"/>
      <point x="226" y="478" type="qcurve" smooth="yes"/>
      <point x="226" y="480"/>
      <point x="225" y="483"/>
      <point x="225" y="485" type="qcurve"/>
      <point x="159" y="430" type="line"/>
      <point x="20" y="552" type="line"/>
      <point x="102" y="626" type="line"/>
      <point x="159" y="569" type="line"/>
      <point x="195" y="603" type="line"/>
      <point x="210" y="603" type="line" smooth="yes"/>
      <point x="240" y="603"/>
      <point x="294" y="583"/>
      <point x="313" y="558" type="qcurve"/>
      <point x="364" y="613"/>
      <point x="439" y="613" type="qcurve" smooth="yes"/>
      <point x="479" y="613"/>
      <point x="557" y="586"/>
      <point x="618" y="537"/>
      <point x="656" y="468"/>
      <point x="656" y="425" type="qcurve" smooth="yes"/>
      <point x="656" y="1" type="line"/>
      <point x="540" y="1" type="line"/>
      <point x="540" y="407" type="line" smooth="yes"/>
      <point x="540" y="456"/>
      <point x="489" y="511"/>
      <point x="439" y="511" type="qcurve" smooth="yes"/>
      <point x="424" y="511"/>
      <point x="402" y="497"/>
      <point x="384" y="475"/>
      <point x="370" y="451"/>
      <point x="363" y="440" type="qcurve" smooth="yes"/>
      <point x="344" y="409"/>
      <point x="310" y="364"/>
      <point x="286" y="318"/>
      <point x="272" y="264"/>
      <point x="272" y="225" type="qcurve" smooth="yes"/>
      <point x="272" y="1" type="line"/>
    </contour>
  </outline>
</glyph>
<glyph name="twosuperior" format="2">
  <advance width="937"/>
  <unicode hex="00B2"/>
  <unicode hex="0E12"/>
  <outline>
    <contour>
      <point x="80" y="161" type="qcurve" smooth="yes"/>
      <point x="80" y="440" type="line" smooth="yes"/>
      <point x="80" y="475"/>
      <point x="107" y="531"/>
      <point x="150" y="574"/>
      <point x="206" y="607"/>
      <point x="235" y="620" type="qcurve"/>
      <point x="303" y="561" type="line"/>
      <point x="370" y="620" type="line"/>
      <point x="415" y="600"/>
      <point x="475" y="561"/>
      <point x="511" y="510"/>
      <point x="527" y="441"/>
      <point x="527" y="393" type="qcurve" smooth="yes"/>
      <point x="527" y="360"/>
      <point x="525" y="294"/>
      <point x="525" y="261" type="qcurve" smooth="yes"/>
      <point x="525" y="231"/>
      <point x="542" y="171"/>
      <point x="575" y="123"/>
      <point x="625" y="93"/>
      <point x="659" y="93" type="qcurve" smooth="yes"/>
      <point x="698" y="93"/>
      <point x="741" y="139"/>
      <point x="741" y="177" type="qcurve" smooth="yes"/>
      <point x="741" y="603" type="line"/>
      <point x="856" y="603" type="line"/>
      <point x="856" y="177" type="line" smooth="yes"/>
      <point x="856" y="136"/>
      <point x="824" y="67"/>
      <point x="770" y="18"/>
      <point x="698" y="-9"/>
      <point x="658" y="-9" type="qcurve" smooth="yes"/>
      <point x="620" y="-9"/>
      <point x="547" y="14"/>
      <point x="517" y="38" type="qcurve"/>
      <point x="512" y="1" type="line"/>
      <point x="412" y="1" type="line"/>
      <point x="412" y="440" type="line" smooth="yes"/>
      <point x="412" y="455"/>
      <point x="398" y="481"/>
      <point x="387" y="491" type="qcurve"/>
      <point x="303" y="418" type="line"/>
      <point x="218" y="491" type="line"/>
      <point x="195" y="471"/>
      <point x="195" y="440" type="qcurve" smooth="yes"/>
      <point x="195" y="161" type="line" smooth="yes"/>
      <point x="195" y="150"/>
      <point x="200" y="126"/>
      <point x="211" y="106"/>
      <point x="230" y="93"/>
      <point x="243" y="93" type="qcurve" smooth="yes"/>
      <point x="272" y="93"/>
      <point x="307" y="122"/>
      <point x="327" y="141" type="qcurve"/>
      <point x="405" y="67" type="line"/>
      <point x="371" y="32"/>
      <point x="294" y="-9"/>
      <point x="243" y="-9" type="qcurve" smooth="yes"/>
      <point x="206" y="-9"/>
      <point x="146" y="17"/>
      <point x="103" y="63"/>
      <point x="80" y="125"/>
    </contour>
  </outline>
</glyph>
<glyph name="threesuperior" format="2">
  <advance width="936"/>
  <unicode hex="00B3"/>
  <unicode hex="0E13"/>
  <outline>
    <contour>
      <point x="80" y="118" type="qcurve" smooth="yes"/>
      <point x="80" y="492" type="line" smooth="yes"/>
      <point x="80" y="528"/>
      <point x="126" y="575"/>
      <point x="193" y="602"/>
      <point x="267" y="613"/>
      <point x="294" y="613" type="qcurve" smooth="yes"/>
      <point x="337" y="613"/>
      <point x="420" y="590"/>
      <point x="485" y="544"/>
      <point x="525" y="473"/>
      <point x="525" y="425" type="qcurve" smooth="yes"/>
      <point x="525" y="177" type="line" smooth="yes"/>
      <point x="525" y="138"/>
      <point x="569" y="93"/>
      <point x="608" y="93" type="qcurve" smooth="yes"/>
      <point x="643" y="93"/>
      <point x="693" y="122"/>
      <point x="725" y="170"/>
      <point x="740" y="230"/>
      <point x="740" y="261" type="qcurve" smooth="yes"/>
      <point x="740" y="603" type="line"/>
      <point x="855" y="603" type="line"/>
      <point x="855" y="2" type="line"/>
      <point x="754" y="2" type="line"/>
      <point x="749" y="38" type="line"/>
      <point x="720" y="14"/>
      <point x="649" y="-9"/>
      <point x="611" y="-9" type="qcurve" smooth="yes"/>
      <point x="571" y="-9"/>
      <point x="499" y="18"/>
      <point x="444" y="67"/>
      <point x="412" y="136"/>
      <point x="412" y="177" type="qcurve" smooth="yes"/>
      <point x="412" y="425" type="line" smooth="yes"/>
      <point x="412" y="449"/>
      <point x="391" y="481"/>
      <point x="358" y="502"/>
      <point x="317" y="511"/>
      <point x="297" y="511" type="qcurve" smooth="yes"/>
      <point x="287" y="511"/>
      <point x="259" y="509"/>
      <point x="230" y="505"/>
      <point x="203" y="497"/>
      <point x="195" y="491" type="qcurve"/>
      <point x="195" y="118" type="line" smooth="yes"/>
      <point x="195" y="107"/>
      <point x="230" y="100"/>
      <point x="253" y="100" type="qcurve" smooth="yes"/>
      <point x="273" y="100"/>
      <point x="309" y="103"/>
      <point x="317" y="103" type="qcurve"/>
      <point x="317" y="1" type="line"/>
      <point x="206" y="1" type="line" smooth="yes"/>
      <point x="181" y="1"/>
      <point x="136" y="18"/>
      <point x="101" y="49"/>
      <point x="80" y="92"/>
    </contour>
  </outline>
</glyph>
<glyph name="acute" format="2">
  <advance width="658"/>
  <unicode hex="00B4"/>
  <unicode hex="0E14"/>
  <outline>
    <contour>
      <point x="69" y="275" type="qcurve" smooth="yes"/>
      <point x="69" y="347"/>
      <point x="86" y="471"/>
      <point x="141" y="562"/>
      <point x="243" y="613"/>
      <point x="328" y="613" type="qcurve" smooth="yes"/>
      <point x="369" y="613"/>
      <point x="457" y="591"/>
      <point x="530" y="544"/>
      <point x="577" y="474"/>
      <point x="577" y="426" type="qcurve" smooth="yes"/>
      <point x="577" y="1" type="line"/>
      <point x="463" y="1" type="line"/>
      <point x="463" y="426" type="line" smooth="yes"/>
      <point x="463" y="451"/>
      <point x="435" y="484"/>
      <point x="395" y="503"/>
      <point x="348" y="511"/>
      <point x="328" y="511" type="qcurve" smooth="yes"/>
      <point x="307" y="511"/>
      <point x="269" y="507"/>
      <point x="237" y="493"/>
      <point x="212" y="467"/>
      <point x="204" y="445" type="qcurve" smooth="yes"/>
      <point x="187" y="401"/>
      <point x="182" y="306"/>
      <point x="182" y="260" type="qcurve" smooth="yes"/>
      <point x="182" y="245"/>
      <point x="184" y="189"/>
      <point x="195" y="134"/>
      <point x="220" y="93"/>
      <point x="243" y="93" type="qcurve" smooth="yes"/>
      <point x="272" y="93"/>
      <point x="308" y="123"/>
      <point x="327" y="141" type="qcurve"/>
      <point x="405" y="67" type="line"/>
      <point x="372" y="33"/>
      <point x="290" y="-9"/>
      <point x="242" y="-9" type="qcurve" smooth="yes"/>
      <point x="181" y="-9"/>
      <point x="111" y="45"/>
      <point x="77" y="128"/>
      <point x="69" y="228"/>
    </contour>
  </outline>
</glyph>
<glyph name="uni00B5" format="2">
  <advance width="658"/>
  <unicode hex="00B5"/>
  <unicode hex="0E15"/>
  <outline>
    <contour>
      <point x="65" y="288" type="qcurve" smooth="yes"/>
      <point x="65" y="347"/>
      <point x="73" y="446"/>
      <point x="106" y="528"/>
      <point x="174" y="594"/>
      <point x="235" y="620" type="qcurve"/>
      <point x="328" y="537" type="line"/>
      <point x="421" y="620" type="line"/>
      <point x="450" y="607"/>
      <point x="506" y="574"/>
      <point x="550" y="532"/>
      <point x="577" y="477"/>
      <point x="577" y="441" type="qcurve" smooth="yes"/>
      <point x="577" y="1" type="line"/>
      <point x="463" y="1" type="line"/>
      <point x="463" y="440" type="line" smooth="yes"/>
      <point x="463" y="455"/>
      <point x="447" y="481"/>
      <point x="436" y="491" type="qcurve"/>
      <point x="328" y="402" type="line"/>
      <point x="220" y="491" type="line"/>
      <point x="205" y="473"/>
      <point x="189" y="427"/>
      <point x="181" y="377"/>
      <point x="179" y="327"/>
      <point x="179" y="305" type="qcurve" smooth="yes"/>
      <point x="179" y="294"/>
      <point x="179" y="253"/>
      <point x="182" y="206"/>
      <point x="190" y="158"/>
      <point x="204" y="119"/>
      <point x="226" y="94"/>
      <point x="242" y="94" type="qcurve" smooth="yes"/>
      <point x="271" y="94"/>
      <point x="307" y="122"/>
      <point x="327" y="141" type="qcurve"/>
      <point x="405" y="67" type="line"/>
      <point x="372" y="33"/>
      <point x="291" y="-8"/>
      <point x="243" y="-8" type="qcurve" smooth="yes"/>
      <point x="180" y="-8"/>
      <point x="109" y="49"/>
      <point x="73" y="136"/>
      <point x="65" y="240"/>
    </contour>
  </outline>
</glyph>
<glyph name="paragraph" format="2">
  <advance width="659"/>
  <unicode hex="00B6"/>
  <unicode hex="0E16"/>
  <outline>
    <contour>
      <point x="80" y="118" type="qcurve" smooth="yes"/>
      <point x="80" y="494" type="line" smooth="yes"/>
      <point x="80" y="520"/>
      <point x="106" y="558"/>
      <point x="148" y="584"/>
      <point x="200" y="601"/>
      <point x="255" y="610"/>
      <point x="306" y="613"/>
      <point x="325" y="613" type="qcurve" smooth="yes"/>
      <point x="367" y="613"/>
      <point x="457" y="592"/>
      <point x="531" y="546"/>
      <point x="578" y="476"/>
      <point x="578" y="426" type="qcurve" smooth="yes"/>
      <point x="578" y="1" type="line"/>
      <point x="463" y="1" type="line"/>
      <point x="463" y="426" type="line" smooth="yes"/>
      <point x="463" y="451"/>
      <point x="433" y="484"/>
      <point x="389" y="503"/>
      <point x="340" y="511"/>
      <point x="320" y="511" type="qcurve" smooth="yes"/>
      <point x="308" y="511"/>
      <point x="274" y="508"/>
      <point x="238" y="503"/>
      <point x="205" y="495"/>
      <point x="195" y="490" type="qcurve"/>
      <point x="195" y="118" type="line" smooth="yes"/>
      <point x="195" y="111"/>
      <point x="198" y="105" type="qcurve"/>
      <point x="205" y="103"/>
      <point x="242" y="102"/>
      <point x="285" y="102"/>
      <point x="325" y="103"/>
      <point x="335" y="103" type="qcurve"/>
      <point x="335" y="1" type="line"/>
      <point x="206" y="1" type="line" smooth="yes"/>
      <point x="181" y="1"/>
      <point x="136" y="18"/>
      <point x="101" y="49"/>
      <point x="80" y="92"/>
    </contour>
  </outline>
</glyph>
<glyph name="periodcentered" format="2">
  <advance width="659"/>
  <unicode hex="00B7"/>
  <unicode hex="0E17"/>
  <unicode hex="2219"/>
  <outline>
    <contour>
      <point x="80" y="1" type="line"/>
      <point x="80" y="603" type="line"/>
      <point x="183" y="603" type="line"/>
      <point x="187" y="558" type="line"/>
      <point x="223" y="587"/>
      <point x="309" y="613"/>
      <point x="354" y="613" type="qcurve" smooth="yes"/>
      <point x="395" y="613"/>
      <point x="476" y="588"/>
      <point x="539" y="540"/>
      <point x="578" y="470"/>
      <point x="578" y="425" type="qcurve" smooth="yes"/>
      <point x="578" y="1" type="line"/>
      <point x="463" y="1" type="line"/>
      <point x="463" y="425" type="line" smooth="yes"/>
      <point x="463" y="446"/>
      <point x="443" y="478"/>
      <point x="411" y="500"/>
      <point x="372" y="511"/>
      <point x="354" y="511" type="qcurve" smooth="yes"/>
      <point x="318" y="511"/>
      <point x="259" y="484"/>
      <point x="218" y="438"/>
      <point x="195" y="377"/>
      <point x="195" y="342" type="qcurve" smooth="yes"/>
      <point x="195" y="1" type="line"/>
    </contour>
  </outline>
</glyph>
<glyph name="cedilla" format="2">
  <advance width="601"/>
  <unicode hex="00B8"/>
  <unicode hex="0E18"/>
  <outline>
    <contour>
      <point x="59" y="118" type="qcurve" smooth="yes"/>
      <point x="59" y="214" type="line"/>
      <point x="173" y="214" type="line"/>
      <point x="173" y="118" type="line" smooth="yes"/>
      <point x="173" y="103"/>
      <point x="186" y="103" type="qcurve" smooth="yes"/>
      <point x="420" y="103" type="line" smooth="yes"/>
      <point x="433" y="103"/>
      <point x="433" y="118" type="qcurve" smooth="yes"/>
      <point x="433" y="199" type="line" smooth="yes"/>
      <point x="433" y="219"/>
      <point x="413" y="240"/>
      <point x="396" y="245" type="qcurve" smooth="yes"/>
      <point x="359" y="256"/>
      <point x="284" y="262"/>
      <point x="210" y="270"/>
      <point x="139" y="292"/>
      <point x="107" y="319" type="qcurve" smooth="yes"/>
      <point x="81" y="342"/>
      <point x="49" y="398"/>
      <point x="49" y="433" type="qcurve" smooth="yes"/>
      <point x="49" y="482"/>
      <point x="96" y="550"/>
      <point x="168" y="593"/>
      <point x="256" y="613"/>
      <point x="297" y="613" type="qcurve" smooth="yes"/>
      <point x="319" y="613"/>
      <point x="375" y="609"/>
      <point x="433" y="598"/>
      <point x="485" y="580"/>
      <point x="502" y="566" type="qcurve" smooth="yes"/>
      <point x="510" y="559"/>
      <point x="526" y="544"/>
      <point x="534" y="537" type="qcurve"/>
      <point x="454" y="458" type="line"/>
      <point x="450" y="463"/>
      <point x="444" y="473"/>
      <point x="440" y="478" type="qcurve" smooth="yes"/>
      <point x="432" y="489"/>
      <point x="395" y="501"/>
      <point x="352" y="509"/>
      <point x="311" y="511"/>
      <point x="298" y="511" type="qcurve" smooth="yes"/>
      <point x="280" y="511"/>
      <point x="234" y="505"/>
      <point x="192" y="488"/>
      <point x="164" y="458"/>
      <point x="164" y="434" type="qcurve" smooth="yes"/>
      <point x="164" y="410"/>
      <point x="202" y="381"/>
      <point x="261" y="364"/>
      <point x="335" y="354"/>
      <point x="405" y="346"/>
      <point x="464" y="334"/>
      <point x="480" y="324" type="qcurve" smooth="yes"/>
      <point x="512" y="303"/>
      <point x="549" y="237"/>
      <point x="549" y="199" type="qcurve" smooth="yes"/>
      <point x="549" y="118" type="line" smooth="yes"/>
      <point x="549" y="91"/>
      <point x="528" y="48"/>
      <point x="492" y="18"/>
      <point x="446" y="1"/>
      <point x="420" y="1" type="qcurve" smooth="yes"/>
      <point x="186" y="1" type="line" smooth="yes"/>
      <point x="162" y="1"/>
      <point x="116" y="18"/>
      <point x="80" y="50"/>
      <point x="59" y="93"/>
    </contour>
  </outline>
</glyph>
<glyph name="onesuperior" format="2">
  <advance width="659"/>
  <unicode hex="00B9"/>
  <unicode hex="0E19"/>
  <outline>
    <contour>
      <point x="80" y="176" type="qcurve" smooth="yes"/>
      <point x="80" y="603" type="line"/>
      <point x="195" y="603" type="line"/>
      <point x="195" y="176" type="line" smooth="yes"/>
      <point x="195" y="155"/>
      <point x="214" y="123"/>
      <point x="245" y="103"/>
      <point x="283" y="93"/>
      <point x="302" y="93" type="qcurve" smooth="yes"/>
      <point x="338" y="93"/>
      <point x="398" y="119"/>
      <point x="440" y="164"/>
      <point x="463" y="225"/>
      <point x="463" y="261" type="qcurve" smooth="yes"/>
      <point x="463" y="603" type="line"/>
      <point x="578" y="603" type="line"/>
      <point x="578" y="1" type="line"/>
      <point x="476" y="1" type="line"/>
      <point x="470" y="46" type="line"/>
      <point x="435" y="17"/>
      <point x="348" y="-9"/>
      <point x="303" y="-9" type="qcurve" smooth="yes"/>
      <point x="262" y="-9"/>
      <point x="182" y="15"/>
      <point x="119" y="61"/>
      <point x="80" y="131"/>
    </contour>
  </outline>
</glyph>
<glyph name="guillemotright" format="2">
  <advance width="659"/>
  <unicode hex="00BB"/>
  <unicode hex="0E1B"/>
  <outline>
    <contour>
      <point x="80" y="177" type="qcurve" smooth="yes"/>
      <point x="80" y="603" type="line"/>
      <point x="195" y="603" type="line"/>
      <point x="195" y="177" type="line" smooth="yes"/>
      <point x="195" y="153"/>
      <point x="222" y="121"/>
      <point x="263" y="102"/>
      <point x="309" y="94"/>
      <point x="328" y="94" type="qcurve" smooth="yes"/>
      <point x="347" y="94"/>
      <point x="394" y="102"/>
      <point x="435" y="121"/>
      <point x="463" y="153"/>
      <point x="463" y="177" type="qcurve" smooth="yes"/>
      <point x="463" y="783" type="line"/>
      <point x="578" y="783" type="line"/>
      <point x="578" y="177" type="line" smooth="yes"/>
      <point x="578" y="128"/>
      <point x="532" y="58"/>
      <point x="460" y="13"/>
      <point x="372" y="-8"/>
      <point x="330" y="-8" type="qcurve" smooth="yes"/>
      <point x="289" y="-8"/>
      <point x="200" y="13"/>
      <point x="127" y="58"/>
      <point x="80" y="128"/>
    </contour>
  </outline>
</glyph>
<glyph name="onequarter" format="2">
  <advance width="659"/>
  <unicode hex="00BC"/>
  <unicode hex="0E1C"/>
  <outline>
    <contour>
      <point x="80" y="164" type="qcurve" smooth="yes"/>
      <point x="80" y="486" type="line" smooth="yes"/>
      <point x="80" y="512"/>
      <point x="101" y="555"/>
      <point x="136" y="586"/>
      <point x="181" y="603"/>
      <point x="206" y="603" type="qcurve" smooth="yes"/>
      <point x="317" y="603" type="line"/>
      <point x="317" y="501" type="line"/>
      <point x="297" y="501"/>
      <point x="257" y="502"/>
      <point x="237" y="502" type="qcurve" smooth="yes"/>
      <point x="233" y="502"/>
      <point x="219" y="502"/>
      <point x="205" y="499"/>
      <point x="195" y="492"/>
      <point x="195" y="486" type="qcurve" smooth="yes"/>
      <point x="195" y="164" type="line" smooth="yes"/>
      <point x="195" y="150"/>
      <point x="207" y="124"/>
      <point x="217" y="114" type="qcurve"/>
      <point x="328" y="212" type="line"/>
      <point x="439" y="114" type="line"/>
      <point x="450" y="124"/>
      <point x="463" y="150"/>
      <point x="463" y="164" type="qcurve" smooth="yes"/>
      <point x="463" y="603" type="line"/>
      <point x="578" y="603" type="line"/>
      <point x="578" y="164" type="line" smooth="yes"/>
      <point x="578" y="131"/>
      <point x="556" y="80"/>
      <point x="520" y="40"/>
      <point x="471" y="9"/>
      <point x="444" y="-4" type="qcurve"/>
      <point x="453" y="8" type="line"/>
      <point x="450" y="7"/>
      <point x="445" y="6"/>
      <point x="442" y="6" type="qcurve" smooth="yes"/>
      <point x="429" y="6"/>
      <point x="397" y="21"/>
      <point x="366" y="43"/>
      <point x="337" y="67"/>
      <point x="328" y="76" type="qcurve"/>
      <point x="233" y="-19" type="line"/>
      <point x="219" y="-8"/>
      <point x="187" y="8"/>
      <point x="172" y="17" type="qcurve" smooth="yes"/>
      <point x="130" y="42"/>
      <point x="80" y="114"/>
    </contour>
  </outline>
</glyph>
